KayPhoDu-Bold.ufo
<glyph name="numbersign" format="2">
  <advance width="1180"/>
  <unicode hex="0023"/>
  <outline>
    <contour>
      <point x="515" y="140" type="line"/>
      <point x="671" y="140" type="line"/>
      <point x="1050" y="1306" type="line"/>
      <point x="894" y="1306" type="line"/>
    </contour>
    <contour>
      <point x="100" y="466" type="line"/>
      <point x="970" y="466" type="line"/>
      <point x="970" y="618" type="line"/>
      <point x="100" y="618" type="line"/>
    </contour>
    <contour>
      <point x="130" y="140" type="line"/>
      <point x="286" y="140" type="line"/>
      <point x="665" y="1306" type="line"/>
      <point x="509" y="1306" type="line"/>
    </contour>
    <contour>
      <point x="210" y="826" type="line"/>
      <point x="1080" y="826" type="line"/>
      <point x="1080" y="978" type="line"/>
      <point x="210" y="978" type="line"/>
    </contour>
  </outline>
</glyph>
<glyph name="percent" format="2">
  <advance width="1364"/>
  <unicode hex="0025"/>
  <outline>
    <component base="fraction" xOffset="107"/>
    <contour>
      <point x="341" y="723" type="curve"/>
      <point x="494" y="723"/>
      <point x="583" y="852"/>
      <point x="583" y="1090" type="curve" smooth="yes"/>
      <point x="583" y="1329"/>
      <point x="494" y="1458"/>
      <point x="341" y="1458" type="curve"/>
      <point x="187" y="1458"/>
      <point x="98" y="1329"/>
      <point x="98" y="1090" type="curve" smooth="yes"/>
      <point x="98" y="852"/>
      <point x="187" y="723"/>
    </contour>
    <contour>
      <point x="341" y="853" type="curve" smooth="yes"/>
      <point x="275" y="853"/>
      <point x="262" y="928"/>
      <point x="262" y="1090" type="curve" smooth="yes"/>
      <point x="262" y="1252"/>
      <point x="275" y="1328"/>
      <point x="341" y="1328" type="curve" smooth="yes"/>
      <point x="406" y="1328"/>
      <point x="419" y="1252"/>
      <point x="419" y="1090" type="curve" smooth="yes"/>
      <point x="419" y="928"/>
      <point x="406" y="853"/>
    </contour>
    <contour>
      <point x="1024" y="-12" type="curve"/>
      <point x="1177" y="-12"/>
      <point x="1266" y="117"/>
      <point x="1266" y="355" type="curve" smooth="yes"/>
      <point x="1266" y="594"/>
      <point x="1177" y="723"/>
      <point x="1024" y="723" type="curve"/>
      <point x="870" y="723"/>
      <point x="781" y="594"/>
      <point x="781" y="355" type="curve" smooth="yes"/>
      <point x="781" y="117"/>
      <point x="870" y="-12"/>
    </contour>
    <contour>
      <point x="1024" y="118" type="curve" smooth="yes"/>
      <point x="958" y="118"/>
      <point x="945" y="193"/>
      <point x="945" y="355" type="curve" smooth="yes"/>
      <point x="945" y="517"/>
      <point x="958" y="593"/>
      <point x="1024" y="593" type="curve" smooth="yes"/>
      <point x="1089" y="593"/>
      <point x="1102" y="517"/>
      <point x="1102" y="355" type="curve" smooth="yes"/>
      <point x="1102" y="193"/>
      <point x="1089" y="118"/>
    </contour>
  </outline>
</glyph>
<glyph name="ampersand" format="2">
  <advance width="1300"/>
  <unicode hex="0026"/>
  <outline>
    <contour>
      <point x="1007" y="0" type="curve"/>
      <point x="1078" y="0" type="line"/>
      <point x="1148" y="124" type="line"/>
      <point x="1076" y="208"/>
      <point x="651" y="711"/>
      <point x="525" y="861" type="curve" smooth="yes"/>
      <point x="421" y="985"/>
      <point x="402" y="1040"/>
      <point x="402" y="1112" type="curve" smooth="yes"/>
      <point x="402" y="1213"/>
      <point x="433" y="1280"/>
      <point x="543" y="1280" type="curve" smooth="yes"/>
      <point x="633" y="1280"/>
      <point x="684" y="1223"/>
      <point x="684" y="1152" type="curve" smooth="yes"/>
      <point x="684" y="1070"/>
      <point x="670" y="977"/>
      <point x="448" y="834" type="curve"/>
      <point x="552" y="687" type="line"/>
      <point x="791" y="839"/>
      <point x="892" y="1013"/>
      <point x="892" y="1162" type="curve" smooth="yes"/>
      <point x="892" y="1302"/>
      <point x="793" y="1458"/>
      <point x="543" y="1458" type="curve" smooth="yes"/>
      <point x="293" y="1458"/>
      <point x="194" y="1280"/>
      <point x="194" y="1112" type="curve" smooth="yes"/>
      <point x="194" y="1015"/>
      <point x="225" y="928"/>
      <point x="346" y="783" type="curve" smooth="yes"/>
      <point x="469" y="635"/>
      <point x="957" y="59"/>
    </contour>
    <contour>
      <point x="523" y="-12" type="curve" smooth="yes"/>
      <point x="870" y="-12"/>
      <point x="1123" y="310"/>
      <point x="1123" y="614" type="curve"/>
      <point x="1087" y="614"/>
      <point x="958" y="614"/>
      <point x="925" y="614" type="curve"/>
      <point x="925" y="349"/>
      <point x="708" y="176"/>
      <point x="523" y="176" type="curve" smooth="yes"/>
      <point x="405" y="176"/>
      <point x="306" y="265"/>
      <point x="306" y="370" type="curve" smooth="yes"/>
      <point x="306" y="505"/>
      <point x="368" y="576"/>
      <point x="499" y="659" type="curve"/>
      <point x="398" y="809" type="line"/>
      <point x="247" y="706"/>
      <point x="98" y="574"/>
      <point x="98" y="370" type="curve"/>
      <point x="98" y="166"/>
      <point x="256" y="-12"/>
    </contour>
    <contour>
      <point x="1052" y="0" type="line"/>
      <point x="1214" y="0" type="line"/>
      <point x="1214" y="188" type="line"/>
      <point x="1052" y="188" type="line"/>
    </contour>
    <contour>
      <point x="833" y="594" type="line"/>
      <point x="1214" y="594" type="line"/>
      <point x="1214" y="782" type="line"/>
      <point x="833" y="782" type="line"/>
    </contour>
  </outline>
</glyph>
<glyph name="quotesingle" format="2">
  <advance width="504"/>
  <unicode hex="0027"/>
  <outline>
    <contour>
      <point x="140" y="1400" type="line"/>
      <point x="364" y="1400" type="line"/>
      <point x="364" y="1624" type="line"/>
      <point x="140" y="1624" type="line"/>
    </contour>
    <contour>
      <point x="220" y="1118" type="line"/>
      <point x="284" y="1118" type="line"/>
      <point x="328" y="1440" type="line"/>
      <point x="176" y="1440" type="line"/>
    </contour>
  </outline>
</glyph>
<glyph name="parenleft" format="2">
  <advance width="795"/>
  <unicode hex="0028"/>
  <outline>
    <contour>
      <point x="706" y="-350" type="line"/>
      <point x="436" y="-165"/>
      <point x="254" y="150"/>
      <point x="254" y="550" type="curve" smooth="yes"/>
      <point x="254" y="950"/>
      <point x="436" y="1265"/>
      <point x="706" y="1450" type="curve"/>
      <point x="481" y="1450" type="line"/>
      <point x="281" y="1295"/>
      <point x="96" y="980"/>
      <point x="96" y="550" type="curve" smooth="yes"/>
      <point x="96" y="120"/>
      <point x="281" y="-195"/>
      <point x="481" y="-350" type="curve"/>
    </contour>
  </outline>
</glyph>
<glyph name="plus" format="2">
  <advance width="1192"/>
  <unicode hex="002B"/>
  <outline>
    <contour>
      <point x="128" y="660" type="line"/>
      <point x="968" y="660" type="line"/>
      <point x="968" y="784" type="line"/>
      <point x="128" y="784" type="line"/>
    </contour>
    <contour>
      <point x="486" y="302" type="line"/>
      <point x="610" y="302" type="line"/>
      <point x="610" y="1142" type="line"/>
      <point x="486" y="1142" type="line"/>
    </contour>
  </outline>
</glyph>
<glyph name="comma" format="2">
  <advance width="584"/>
  <unicode hex="002C"/>
  <outline>
    <contour>
      <point x="86" y="-207" type="line"/>
      <point x="322" y="0" type="line"/>
      <point x="206" y="103" type="line"/>
      <point x="41" y="-168" type="line"/>
    </contour>
    <contour>
      <point x="200" y="0" type="line"/>
      <point x="440" y="0" type="line"/>
      <point x="440" y="240" type="line"/>
      <point x="200" y="240" type="line"/>
    </contour>
  </outline>
</glyph>
<glyph name="hyphen" format="2">
  <advance width="1160"/>
  <unicode hex="002D"/>
  <outline>
    <contour>
      <point x="128" y="474" type="line"/>
      <point x="1052" y="474" type="line"/>
      <point x="1052" y="576" type="line"/>
      <point x="128" y="576" type="line"/>
    </contour>
  </outline>
</glyph>
<glyph name="period" format="2">
  <advance width="528"/>
  <unicode hex="002E"/>
  <outline>
    <contour>
      <point x="144" y="0" type="line"/>
      <point x="384" y="0" type="line"/>
      <point x="384" y="240" type="line"/>
      <point x="144" y="240" type="line"/>
    </contour>
  </outline>
</glyph>
<glyph name="slash" format="2">
  <advance width="1071"/>
  <unicode hex="002F"/>
  <outline>
    <contour>
      <point x="271" y="0" type="line"/>
      <point x="1004" y="1354" type="line"/>
      <point x="801" y="1358" type="line"/>
      <point x="67" y="0" type="line"/>
    </contour>
  </outline>
</glyph>
<glyph name="zero" format="2">
  <advance width="1200"/>
  <unicode hex="0030"/>
  <outline>
    <contour>
      <point x="565" y="-12" type="curve"/>
      <point x="852" y="-12"/>
      <point x="1010" y="246"/>
      <point x="1010" y="722" type="curve" smooth="yes"/>
      <point x="1010" y="1199"/>
      <point x="852" y="1458"/>
      <point x="565" y="1458" type="curve"/>
      <point x="278" y="1458"/>
      <point x="120" y="1199"/>
      <point x="120" y="722" type="curve" smooth="yes"/>
      <point x="120" y="246"/>
      <point x="278" y="-12"/>
    </contour>
    <contour>
      <point x="565" y="112" type="curve" smooth="yes"/>
      <point x="353" y="112"/>
      <point x="248" y="323"/>
      <point x="248" y="722" type="curve" smooth="yes"/>
      <point x="248" y="1121"/>
      <point x="353" y="1334"/>
      <point x="565" y="1334" type="curve" smooth="yes"/>
      <point x="777" y="1334"/>
      <point x="882" y="1121"/>
      <point x="882" y="722" type="curve" smooth="yes"/>
      <point x="882" y="323"/>
      <point x="777" y="112"/>
    </contour>
  </outline>
</glyph>
<glyph name="one" format="2">
  <advance width="1106"/>
  <unicode hex="0031"/>
  <outline>
    <contour>
      <point x="116" y="1009" type="line"/>
      <point x="449" y="1251" type="line"/>
      <point x="657" y="1251" type="line"/>
      <point x="657" y="1458" type="line"/>
      <point x="449" y="1458" type="line"/>
      <point x="116" y="1220" type="line"/>
    </contour>
    <contour>
      <point x="116" y="0" type="line"/>
      <point x="990" y="0" type="line"/>
      <point x="990" y="188" type="line"/>
      <point x="116" y="188" type="line"/>
    </contour>
    <contour>
      <point x="449" y="0" type="line"/>
      <point x="657" y="0" type="line"/>
      <point x="657" y="1351" type="line"/>
      <point x="449" y="1351" type="line"/>
    </contour>
  </outline>
</glyph>
<glyph name="two" format="2">
  <advance width="1106"/>
  <unicode hex="0032"/>
  <outline>
    <contour>
      <point x="116" y="0" type="line"/>
      <point x="200" y="0" type="line"/>
      <point x="627" y="464" type="line" smooth="yes"/>
      <point x="901" y="761"/>
      <point x="959" y="891"/>
      <point x="959" y="1074" type="curve" smooth="yes"/>
      <point x="959" y="1285"/>
      <point x="818" y="1458"/>
      <point x="554" y="1458" type="curve" smooth="yes"/>
      <point x="358" y="1458"/>
      <point x="217" y="1367"/>
      <point x="133" y="1246" type="curve"/>
      <point x="266" y="1110" type="line"/>
      <point x="337" y="1221"/>
      <point x="444" y="1270"/>
      <point x="554" y="1270" type="curve" smooth="yes"/>
      <point x="658" y="1270"/>
      <point x="751" y="1198"/>
      <point x="751" y="1074" type="curve" smooth="yes"/>
      <point x="751" y="955"/>
      <point x="705" y="827"/>
      <point x="508" y="613" type="curve" smooth="yes"/>
      <point x="116" y="188" type="line"/>
    </contour>
    <contour>
      <point x="116" y="0" type="line"/>
      <point x="990" y="0" type="line"/>
      <point x="990" y="188" type="line"/>
      <point x="116" y="188" type="line"/>
    </contour>
  </outline>
</glyph>
<glyph name="three" format="2">
  <advance width="1106"/>
  <unicode hex="0033"/>
  <outline>
    <contour>
      <point x="180" y="1317" type="curve"/>
      <point x="301" y="1178" type="line"/>
      <point x="364" y="1243"/>
      <point x="463" y="1270"/>
      <point x="553" y="1270" type="curve" smooth="yes"/>
      <point x="707" y="1270"/>
      <point x="754" y="1175"/>
      <point x="754" y="1083" type="curve" smooth="yes"/>
      <point x="754" y="981"/>
      <point x="709" y="851"/>
      <point x="520" y="851" type="curve"/>
      <point x="625" y="723" type="line"/>
      <point x="871" y="773"/>
      <point x="962" y="933"/>
      <point x="962" y="1093" type="curve" smooth="yes"/>
      <point x="962" y="1286"/>
      <point x="823" y="1458"/>
      <point x="553" y="1458" type="curve" smooth="yes"/>
      <point x="395" y="1458"/>
      <point x="257" y="1393"/>
    </contour>
    <contour>
      <point x="255" y="357" type="curve"/>
      <point x="98" y="261" type="line"/>
      <point x="177" y="92"/>
      <point x="338" y="-12"/>
      <point x="553" y="-12" type="curve" smooth="yes"/>
      <point x="840" y="-12"/>
      <point x="1008" y="203"/>
      <point x="1008" y="416" type="curve" smooth="yes"/>
      <point x="1008" y="629"/>
      <point x="874" y="851"/>
      <point x="550" y="851" type="curve" smooth="yes"/>
      <point x="530" y="851"/>
      <point x="385" y="851"/>
      <point x="368" y="851" type="curve"/>
      <point x="368" y="689" type="line"/>
      <point x="386" y="689"/>
      <point x="533" y="689"/>
      <point x="550" y="689" type="curve" smooth="yes"/>
      <point x="752" y="689"/>
      <point x="800" y="545"/>
      <point x="800" y="416" type="curve" smooth="yes"/>
      <point x="800" y="287"/>
      <point x="720" y="176"/>
      <point x="553" y="176" type="curve" smooth="yes"/>
      <point x="409" y="176"/>
      <point x="316" y="228"/>
    </contour>
  </outline>
</glyph>
<glyph name="four" format="2">
  <advance width="1106"/>
  <unicode hex="0034"/>
  <outline>
    <contour>
      <point x="108" y="352" type="line"/>
      <point x="195" y="352" type="line"/>
      <point x="749" y="1204" type="line"/>
      <point x="884" y="1204" type="line"/>
      <point x="884" y="1458" type="line"/>
      <point x="711" y="1458" type="line"/>
      <point x="108" y="524" type="line"/>
    </contour>
    <contour>
      <point x="108" y="352" type="line"/>
      <point x="1030" y="352" type="line"/>
      <point x="1030" y="514" type="line"/>
      <point x="108" y="514" type="line"/>
    </contour>
    <contour>
      <point x="676" y="0" type="line"/>
      <point x="884" y="0" type="line"/>
      <point x="884" y="1365" type="line"/>
      <point x="676" y="1365" type="line"/>
    </contour>
  </outline>
</glyph>
<glyph name="five" format="2">
  <advance width="1106"/>
  <unicode hex="0035"/>
  <outline>
    <contour>
      <point x="553" y="-12" type="curve" smooth="yes"/>
      <point x="840" y="-12"/>
      <point x="998" y="222"/>
      <point x="998" y="458" type="curve" smooth="yes"/>
      <point x="998" y="695"/>
      <point x="858" y="918"/>
      <point x="553" y="918" type="curve" smooth="yes"/>
      <point x="408" y="918"/>
      <point x="327" y="892"/>
      <point x="199" y="837" type="curve"/>
      <point x="199" y="710" type="line"/>
      <point x="325" y="771"/>
      <point x="422" y="794"/>
      <point x="553" y="794" type="curve" smooth="yes"/>
      <point x="792" y="794"/>
      <point x="870" y="621"/>
      <point x="870" y="458" type="curve" smooth="yes"/>
      <point x="870" y="296"/>
      <point x="775" y="112"/>
      <point x="553" y="112" type="curve" smooth="yes"/>
      <point x="381" y="112"/>
      <point x="270" y="209"/>
      <point x="216" y="331" type="curve"/>
      <point x="108" y="267" type="line"/>
      <point x="182" y="109"/>
      <point x="338" y="-12"/>
    </contour>
    <contour>
      <point x="199" y="812" type="line"/>
      <point x="327" y="812" type="line"/>
      <point x="327" y="1446" type="line"/>
      <point x="199" y="1446" type="line"/>
    </contour>
    <contour>
      <point x="266" y="1322" type="line"/>
      <point x="925" y="1322" type="line"/>
      <point x="925" y="1446" type="line"/>
      <point x="266" y="1446" type="line"/>
    </contour>
  </outline>
</glyph>
<glyph name="six" format="2">
  <advance width="1106"/>
  <unicode hex="0036"/>
  <outline>
    <contour>
      <point x="571" y="-12" type="curve" smooth="yes"/>
      <point x="850" y="-12"/>
      <point x="1008" y="212"/>
      <point x="1008" y="449" type="curve" smooth="yes"/>
      <point x="1008" y="685"/>
      <point x="859" y="876"/>
      <point x="571" y="876" type="curve" smooth="yes"/>
      <point x="418" y="876"/>
      <point x="308" y="822"/>
      <point x="208" y="749" type="curve"/>
      <point x="208" y="549" type="line"/>
      <point x="306" y="628"/>
      <point x="432" y="688"/>
      <point x="571" y="688" type="curve" smooth="yes"/>
      <point x="734" y="688"/>
      <point x="800" y="591"/>
      <point x="800" y="449" type="curve" smooth="yes"/>
      <point x="800" y="306"/>
      <point x="735" y="176"/>
      <point x="571" y="176" type="curve" smooth="yes"/>
      <point x="432" y="176"/>
      <point x="306" y="270"/>
      <point x="306" y="722" type="curve" smooth="yes"/>
      <point x="306" y="1152"/>
      <point x="428" y="1270"/>
      <point x="600" y="1270" type="curve" smooth="yes"/>
      <point x="685" y="1270"/>
      <point x="783" y="1243"/>
      <point x="871" y="1170" type="curve"/>
      <point x="971" y="1332" type="line"/>
      <point x="850" y="1427"/>
      <point x="740" y="1458"/>
      <point x="600" y="1458" type="curve"/>
      <point x="312" y="1458"/>
      <point x="98" y="1254"/>
      <point x="98" y="722" type="curve" smooth="yes"/>
      <point x="98" y="166"/>
      <point x="324" y="-12"/>
    </contour>
  </outline>
</glyph>
<glyph name="seven" format="2">
  <advance width="1106"/>
  <unicode hex="0037"/>
  <outline>
    <contour>
      <point x="1010" y="1446" type="line"/>
      <point x="888" y="1446" type="line"/>
      <point x="245" y="0" type="line"/>
      <point x="451" y="0" type="line"/>
      <point x="1010" y="1258" type="line"/>
    </contour>
    <contour>
      <point x="1010" y="1446" type="line"/>
      <point x="118" y="1446" type="line"/>
      <point x="118" y="1258" type="line"/>
      <point x="1010" y="1258" type="line"/>
    </contour>
  </outline>
</glyph>
<glyph name="eight" format="2">
  <advance width="1106"/>
  <unicode hex="0038"/>
  <outline>
    <contour>
      <point x="632" y="717" type="line"/>
      <point x="878" y="794"/>
      <point x="972" y="943"/>
      <point x="972" y="1112" type="curve" smooth="yes"/>
      <point x="972" y="1282"/>
      <point x="823" y="1458"/>
      <point x="553" y="1458" type="curve" smooth="yes"/>
      <point x="283" y="1458"/>
      <point x="134" y="1280"/>
      <point x="134" y="1112" type="curve" smooth="yes"/>
      <point x="134" y="935"/>
      <point x="222" y="800"/>
      <point x="516" y="690" type="curve" smooth="yes"/>
      <point x="744" y="605"/>
      <point x="800" y="504"/>
      <point x="800" y="390" type="curve" smooth="yes"/>
      <point x="800" y="275"/>
      <point x="740" y="176"/>
      <point x="553" y="176" type="curve" smooth="yes"/>
      <point x="365" y="176"/>
      <point x="306" y="275"/>
      <point x="306" y="390" type="curve" smooth="yes"/>
      <point x="306" y="504"/>
      <point x="373" y="622"/>
      <point x="581" y="689" type="curve"/>
      <point x="488" y="833" type="line"/>
      <point x="241" y="759"/>
      <point x="98" y="574"/>
      <point x="98" y="370" type="curve"/>
      <point x="98" y="166"/>
      <point x="256" y="-12"/>
      <point x="553" y="-12" type="curve" smooth="yes"/>
      <point x="850" y="-12"/>
      <point x="1008" y="166"/>
      <point x="1008" y="370" type="curve" smooth="yes"/>
      <point x="1008" y="574"/>
      <point x="883" y="739"/>
      <point x="584" y="847" type="curve" smooth="yes"/>
      <point x="377" y="922"/>
      <point x="342" y="1011"/>
      <point x="342" y="1112" type="curve" smooth="yes"/>
      <point x="342" y="1193"/>
      <point x="403" y="1270"/>
      <point x="553" y="1270" type="curve" smooth="yes"/>
      <point x="703" y="1270"/>
      <point x="764" y="1193"/>
      <point x="764" y="1112" type="curve" smooth="yes"/>
      <point x="764" y="1011"/>
      <point x="718" y="912"/>
      <point x="536" y="858" type="curve"/>
    </contour>
  </outline>
</glyph>
<glyph name="nine" format="2">
  <advance width="1200"/>
  <unicode hex="0039"/>
  <outline>
    <contour>
      <point x="488" y="-12" type="curve"/>
      <point x="785" y="-12"/>
      <point x="998" y="192"/>
      <point x="998" y="724" type="curve" smooth="yes"/>
      <point x="998" y="1280"/>
      <point x="794" y="1458"/>
      <point x="534" y="1458" type="curve" smooth="yes"/>
      <point x="275" y="1458"/>
      <point x="108" y="1280"/>
      <point x="108" y="1044" type="curve" smooth="yes"/>
      <point x="108" y="807"/>
      <point x="247" y="608"/>
      <point x="534" y="608" type="curve" smooth="yes"/>
      <point x="688" y="608"/>
      <point x="798" y="662"/>
      <point x="898" y="735" type="curve"/>
      <point x="898" y="870" type="line"/>
      <point x="800" y="790"/>
      <point x="669" y="732"/>
      <point x="534" y="732" type="curve" smooth="yes"/>
      <point x="313" y="732"/>
      <point x="236" y="882"/>
      <point x="236" y="1044" type="curve" smooth="yes"/>
      <point x="236" y="1201"/>
      <point x="340" y="1334"/>
      <point x="534" y="1334" type="curve" smooth="yes"/>
      <point x="729" y="1334"/>
      <point x="870" y="1201"/>
      <point x="870" y="724" type="curve" smooth="yes"/>
      <point x="870" y="264"/>
      <point x="709" y="112"/>
      <point x="488" y="112" type="curve" smooth="yes"/>
      <point x="383" y="112"/>
      <point x="292" y="138"/>
      <point x="196" y="221" type="curve"/>
      <point x="127" y="119" type="line"/>
      <point x="238" y="24"/>
      <point x="353" y="-12"/>
    </contour>
  </outline>
</glyph>
<glyph name="less" format="2">
  <advance width="1192"/>
  <unicode hex="003C"/>
  <outline>
    <contour>
      <point x="968" y="325" type="line"/>
      <point x="968" y="458" type="line"/>
      <point x="247" y="723" type="line"/>
      <point x="968" y="988" type="line"/>
      <point x="968" y="1121" type="line"/>
      <point x="128" y="805" type="line"/>
      <point x="128" y="641" type="line"/>
    </contour>
  </outline>
</glyph>
<glyph name="equal" format="2">
  <advance width="1180"/>
  <unicode hex="003D"/>
  <outline>
    <contour>
      <point x="150" y="826" type="line"/>
      <point x="1030" y="826" type="line"/>
      <point x="1030" y="1014" type="line"/>
      <point x="150" y="1014" type="line"/>
    </contour>
    <contour>
      <point x="150" y="430" type="line"/>
      <point x="1030" y="430" type="line"/>
      <point x="1030" y="618" type="line"/>
      <point x="150" y="618" type="line"/>
    </contour>
  </outline>
</glyph>
<glyph name="greater" format="2">
  <advance width="1180"/>
  <unicode hex="003E"/>
  <outline>
    <contour>
      <point x="160" y="273" type="line"/>
      <point x="1020" y="629" type="line"/>
      <point x="1020" y="817" type="line"/>
      <point x="160" y="1173" type="line"/>
      <point x="160" y="988" type="line"/>
      <point x="943" y="668" type="line"/>
      <point x="943" y="778" type="line"/>
      <point x="160" y="458" type="line"/>
    </contour>
  </outline>
</glyph>
<glyph name="question" format="2">
  <advance width="1120"/>
  <unicode hex="003F"/>
  <outline>
    <component base="period" xOffset="312"/>
    <contour>
      <point x="464" y="308" type="line"/>
      <point x="672" y="308" type="line"/>
      <point x="672" y="507" type="line" smooth="yes"/>
      <point x="672" y="634"/>
      <point x="745" y="733"/>
      <point x="835" y="830" type="curve" smooth="yes"/>
      <point x="926" y="928"/>
      <point x="1002" y="1023"/>
      <point x="1002" y="1175" type="curve" smooth="yes"/>
      <point x="1002" y="1435"/>
      <point x="829" y="1574"/>
      <point x="568" y="1574" type="curve" smooth="yes"/>
      <point x="307" y="1574"/>
      <point x="118" y="1377"/>
      <point x="118" y="1085" type="curve" smooth="yes"/>
      <point x="118" y="1061"/>
      <point x="118" y="1058"/>
      <point x="118" y="1035" type="curve"/>
      <point x="143" y="1035"/>
      <point x="302" y="1035"/>
      <point x="326" y="1035" type="curve"/>
      <point x="326" y="1059"/>
      <point x="326" y="1062"/>
      <point x="326" y="1084" type="curve" smooth="yes"/>
      <point x="326" y="1239"/>
      <point x="408" y="1386"/>
      <point x="568" y="1386" type="curve" smooth="yes"/>
      <point x="728" y="1386"/>
      <point x="794" y="1298"/>
      <point x="794" y="1175" type="curve" smooth="yes"/>
      <point x="794" y="1062"/>
      <point x="735" y="979"/>
      <point x="654" y="892" type="curve" smooth="yes"/>
      <point x="556" y="787"/>
      <point x="464" y="675"/>
      <point x="464" y="517" type="curve" smooth="yes"/>
    </contour>
  </outline>
</glyph>
<glyph name="at" format="2">
  <advance width="1682"/>
  <unicode hex="0040"/>
  <outline>
    <component base="_lathalfserifSE" xOffset="297"/>
    <component base="_latstemSE" xOffset="247"/>
    <component base="_latstemNE" xOffset="247"/>
    <component base="_latroundarchW" xOffset="347"/>
    <component base="_latroundbowlW" xOffset="347"/>
    <contour>
      <point x="1531" y="-139" type="curve"/>
      <point x="1309" y="-139" type="line"/>
      <point x="1198" y="-293"/>
      <point x="1068" y="-337"/>
      <point x="867" y="-337" type="curve" smooth="yes"/>
      <point x="825" y="-337" type="line" smooth="yes"/>
      <point x="514" y="-337"/>
      <point x="316" y="-78"/>
      <point x="316" y="423" type="curve" smooth="yes"/>
      <point x="316" y="635" type="line" smooth="yes"/>
      <point x="316" y="1137"/>
      <point x="514" y="1380"/>
      <point x="825" y="1380" type="curve" smooth="yes"/>
      <point x="867" y="1380" type="line" smooth="yes"/>
      <point x="1188" y="1380"/>
      <point x="1356" y="1177"/>
      <point x="1356" y="705" type="curve" smooth="yes"/>
      <point x="1356" y="279"/>
      <point x="1356" y="122"/>
      <point x="1356" y="0" type="curve"/>
      <point x="1564" y="0" type="line"/>
      <point x="1564" y="125"/>
      <point x="1564" y="278"/>
      <point x="1564" y="718" type="curve" smooth="yes"/>
      <point x="1564" y="1289"/>
      <point x="1295" y="1568"/>
      <point x="874" y="1568" type="curve" smooth="yes"/>
      <point x="820" y="1568" type="line" smooth="yes"/>
      <point x="408" y="1568"/>
      <point x="108" y="1259"/>
      <point x="108" y="648" type="curve" smooth="yes"/>
      <point x="108" y="411" type="line" smooth="yes"/>
      <point x="108" y="-202"/>
      <point x="408" y="-525"/>
      <point x="820" y="-525" type="curve" smooth="yes"/>
      <point x="874" y="-525" type="line" smooth="yes"/>
      <point x="1194" y="-525"/>
      <point x="1390" y="-408"/>
    </contour>
  </outline>
</glyph>
<glyph name="A" format="2">
  <advance width="1310"/>
  <unicode hex="0041"/>
  <anchor x="654" y="1460" name="U"/>
  <outline>
    <component base="_latserifSW" xOffset="-16"/>
    <component base="_latserifSE" xOffset="162"/>
    <contour>
      <point x="112" y="0" type="line"/>
      <point x="305" y="0" type="line"/>
      <point x="654" y="1158" type="line"/>
      <point x="1005" y="0" type="line"/>
      <point x="1198" y="0" type="line"/>
      <point x="756" y="1446" type="line"/>
      <point x="552" y="1446" type="line"/>
    </contour>
    <contour>
      <point x="350" y="430" type="line"/>
      <point x="964" y="430" type="line"/>
      <point x="964" y="618" type="line"/>
      <point x="350" y="618" type="line"/>
    </contour>
  </outline>
</glyph>
<glyph name="B" format="2">
  <advance width="1174"/>
  <unicode hex="0042"/>
  <outline>
    <component base="_latserifSW" xOffset="16"/>
    <component base="_latstemSW" xOffset="16"/>
    <component base="_latstemNW" xOffset="16"/>
    <component base="_latstemascW" xOffset="16" yOffset="-128"/>
    <component base="_lathalfserifascW" xOffset="16" yOffset="-128"/>
    <contour>
      <point x="298" y="648" type="line"/>
      <point x="537" y="648" type="line" smooth="yes"/>
      <point x="720" y="648"/>
      <point x="1010" y="820"/>
      <point x="1010" y="1067" type="curve" smooth="yes"/>
      <point x="1010" y="1084" type="line"/>
      <point x="802" y="1084" type="line"/>
      <point x="802" y="1067" type="line" smooth="yes"/>
      <point x="802" y="913"/>
      <point x="674" y="836"/>
      <point x="551" y="836" type="curve" smooth="yes"/>
      <point x="298" y="836" type="line"/>
    </contour>
    <contour>
      <point x="802" y="1074" type="line"/>
      <point x="1010" y="1074" type="line"/>
      <point x="1010" y="1090" type="line" smooth="yes"/>
      <point x="1010" y="1347"/>
      <point x="820" y="1446"/>
      <point x="527" y="1446" type="curve" smooth="yes"/>
      <point x="298" y="1446" type="line"/>
      <point x="298" y="1258" type="line"/>
      <point x="521" y="1258" type="line" smooth="yes"/>
      <point x="684" y="1258"/>
      <point x="802" y="1224"/>
      <point x="802" y="1090" type="curve" smooth="yes"/>
    </contour>
    <contour>
      <point x="318" y="0" type="line"/>
      <point x="567" y="0" type="line" smooth="yes"/>
      <point x="880" y="0"/>
      <point x="1060" y="149"/>
      <point x="1060" y="406" type="curve" smooth="yes"/>
      <point x="1060" y="423" type="line"/>
      <point x="852" y="423" type="line"/>
      <point x="852" y="406" type="line" smooth="yes"/>
      <point x="852" y="252"/>
      <point x="747" y="188"/>
      <point x="561" y="188" type="curve" smooth="yes"/>
      <point x="318" y="188" type="line"/>
    </contour>
    <contour>
      <point x="852" y="413" type="line"/>
      <point x="1060" y="413" type="line"/>
      <point x="1060" y="429" type="line" smooth="yes"/>
      <point x="1060" y="686"/>
      <point x="804" y="836"/>
      <point x="572" y="836" type="curve" smooth="yes"/>
      <point x="318" y="836" type="line"/>
      <point x="318" y="648" type="line"/>
      <point x="571" y="648" type="line" smooth="yes"/>
      <point x="723" y="648"/>
      <point x="852" y="603"/>
      <point x="852" y="429" type="curve" smooth="yes"/>
    </contour>
  </outline>
</glyph>
<glyph name="C" format="2">
  <advance width="1174"/>
  <unicode hex="0043"/>
  <anchor x="615" y="-50" name="L"/>
  <outline>
    <contour>
      <point x="597" y="-12" type="curve" smooth="yes"/>
      <point x="618" y="-12" type="line"/>
      <point x="618" y="176" type="line"/>
      <point x="602" y="176" type="line" smooth="yes"/>
      <point x="399" y="176"/>
      <point x="322" y="367"/>
      <point x="322" y="712" type="curve" smooth="yes"/>
      <point x="322" y="734" type="line"/>
      <point x="114" y="734" type="line"/>
      <point x="114" y="702" type="line" smooth="yes"/>
      <point x="114" y="228"/>
      <point x="269" y="-12"/>
    </contour>
    <contour>
      <point x="614" y="-12" type="line"/>
      <point x="635" y="-12" type="line" smooth="yes"/>
      <point x="963" y="-12"/>
      <point x="1068" y="204"/>
      <point x="1068" y="408" type="curve" smooth="yes"/>
      <point x="1068" y="420" type="line"/>
      <point x="855" y="420" type="line"/>
      <point x="855" y="408" type="line" smooth="yes"/>
      <point x="855" y="283"/>
      <point x="812" y="176"/>
      <point x="629" y="176" type="curve" smooth="yes"/>
      <point x="614" y="176" type="line"/>
    </contour>
    <contour>
      <point x="114" y="724" type="line"/>
      <point x="322" y="724" type="line"/>
      <point x="322" y="745" type="line" smooth="yes"/>
      <point x="322" y="1090"/>
      <point x="399" y="1270"/>
      <point x="602" y="1270" type="curve" smooth="yes"/>
      <point x="618" y="1270" type="line"/>
      <point x="618" y="1458" type="line"/>
      <point x="597" y="1458" type="line" smooth="yes"/>
      <point x="269" y="1458"/>
      <point x="114" y="1229"/>
      <point x="114" y="756" type="curve" smooth="yes"/>
    </contour>
    <contour>
      <point x="855" y="1038" type="line"/>
      <point x="1068" y="1038" type="line"/>
      <point x="1068" y="1050" type="line" smooth="yes"/>
      <point x="1068" y="1263"/>
      <point x="963" y="1458"/>
      <point x="635" y="1458" type="curve" smooth="yes"/>
      <point x="614" y="1458" type="line"/>
      <point x="614" y="1270" type="line"/>
      <point x="629" y="1270" type="line" smooth="yes"/>
      <point x="812" y="1270"/>
      <point x="855" y="1174"/>
      <point x="855" y="1049" type="curve" smooth="yes"/>
    </contour>
  </outline>
</glyph>
<glyph name="D" format="2">
  <advance width="1234"/>
  <unicode hex="0044"/>
  <outline>
    <component base="_latserifSW" xOffset="16"/>
    <component base="_latstemSW" xOffset="16"/>
    <component base="_latstemNW" xOffset="16"/>
    <component base="_latstemascW" xOffset="16" yOffset="-128"/>
    <component base="_latserifNW" xOffset="16" yOffset="408"/>
    <contour>
      <point x="470" y="0" type="line"/>
      <point x="551" y="0" type="line" smooth="yes"/>
      <point x="889" y="0"/>
      <point x="1120" y="236"/>
      <point x="1120" y="710" type="curve" smooth="yes"/>
      <point x="1120" y="742" type="line"/>
      <point x="912" y="742" type="line"/>
      <point x="912" y="720" type="line" smooth="yes"/>
      <point x="912" y="375"/>
      <point x="774" y="188"/>
      <point x="545" y="188" type="curve" smooth="yes"/>
      <point x="470" y="188" type="line"/>
    </contour>
    <contour>
      <point x="912" y="732" type="line"/>
      <point x="1120" y="732" type="line"/>
      <point x="1120" y="764" type="line" smooth="yes"/>
      <point x="1120" y="1237"/>
      <point x="925" y="1446"/>
      <point x="547" y="1446" type="curve" smooth="yes"/>
      <point x="466" y="1446" type="line"/>
      <point x="466" y="1258" type="line"/>
      <point x="541" y="1258" type="line" smooth="yes"/>
      <point x="814" y="1258"/>
      <point x="912" y="1098"/>
      <point x="912" y="753" type="curve" smooth="yes"/>
    </contour>
  </outline>
</glyph>
<glyph name="F" format="2">
  <advance width="1112"/>
  <unicode hex="0046"/>
  <outline>
    <component base="_latserifSW" xOffset="16"/>
    <component base="_latstemSW" xOffset="16"/>
    <component base="_latstemNW" xOffset="16"/>
    <component base="_latstemascW" xOffset="16" yOffset="-128"/>
    <component base="_latserifNW" xOffset="16" yOffset="408"/>
    <contour>
      <point x="288" y="1258" type="line"/>
      <point x="964" y="1258" type="line"/>
      <point x="964" y="1446" type="line"/>
      <point x="288" y="1446" type="line"/>
    </contour>
    <contour>
      <point x="288" y="648" type="line"/>
      <point x="794" y="648" type="line"/>
      <point x="794" y="836" type="line"/>
      <point x="288" y="836" type="line"/>
    </contour>
    <contour>
      <point x="670" y="514" type="line"/>
      <point x="850" y="514" type="line"/>
      <point x="850" y="970" type="line"/>
      <point x="670" y="970" type="line"/>
    </contour>
    <contour>
      <point x="840" y="1126" type="line"/>
      <point x="1028" y="1126" type="line"/>
      <point x="1028" y="1446" type="line"/>
      <point x="840" y="1446" type="line"/>
    </contour>
  </outline>
</glyph>
<glyph name="H" format="2">
  <advance width="1342"/>
  <unicode hex="0048"/>
  <outline>
    <component base="_latserifSW" xOffset="16"/>
    <component base="_latstemSW" xOffset="16"/>
    <component base="_latstemNW" xOffset="16"/>
    <component base="_latserifSE" xOffset="162"/>
    <component base="_latstemSE" xOffset="162"/>
    <component base="_latstemascW" xOffset="16" yOffset="-128"/>
    <component base="_latserifNW" xOffset="16" yOffset="408"/>
    <component base="_latstemNE" xOffset="162"/>
    <component base="_latstemascW" xOffset="754" yOffset="-128"/>
    <component base="_latserifNE" xOffset="162" yOffset="408"/>
    <contour>
      <point x="288" y="648" type="line"/>
      <point x="1038" y="648" type="line"/>
      <point x="1038" y="836" type="line"/>
      <point x="288" y="836" type="line"/>
    </contour>
  </outline>
</glyph>
<glyph name="I" format="2">
  <advance width="864"/>
  <unicode hex="0049"/>
  <anchor x="432" y="1460" name="U"/>
  <outline>
    <component base="_latstemSW" xOffset="146"/>
    <component base="_latstemNW" xOffset="146"/>
    <component base="_latstemascW" xOffset="146" yOffset="-128"/>
    <contour>
      <point x="116" y="0" type="line"/>
      <point x="748" y="0" type="line"/>
      <point x="748" y="188" type="line"/>
      <point x="116" y="188" type="line"/>
    </contour>
    <contour>
      <point x="116" y="1258" type="line"/>
      <point x="748" y="1258" type="line"/>
      <point x="748" y="1446" type="line"/>
      <point x="116" y="1446" type="line"/>
    </contour>
  </outline>
</glyph>
<glyph name="J" format="2">
  <advance width="846"/>
  <unicode hex="004A"/>
  <outline>
    <component base="_latstemNW" xOffset="292"/>
    <component base="_latstemascW" xOffset="292" yOffset="-128"/>
    <contour>
      <point x="64" y="0" type="line"/>
      <point x="235" y="0" type="line" smooth="yes"/>
      <point x="558" y="0"/>
      <point x="682" y="217"/>
      <point x="682" y="471" type="curve" smooth="yes"/>
      <point x="682" y="603" type="line"/>
      <point x="474" y="603" type="line"/>
      <point x="474" y="481" type="line" smooth="yes"/>
      <point x="474" y="286"/>
      <point x="406" y="188"/>
      <point x="195" y="188" type="curve" smooth="yes"/>
      <point x="64" y="188" type="line"/>
    </contour>
    <contour>
      <point x="95" y="1258" type="line"/>
      <point x="561" y="1258" type="line"/>
      <point x="561" y="1446" type="line"/>
      <point x="95" y="1446" type="line"/>
    </contour>
  </outline>
</glyph>
<glyph name="K" format="2">
  <advance width="1220"/>
  <unicode hex="004B"/>
  <outline>
    <component base="_latserifSW" xOffset="16"/>
    <component base="_latstemSW" xOffset="16"/>
    <component base="_latstemNW" xOffset="16"/>
    <component base="_latstemascW" xOffset="16" yOffset="-128"/>
    <component base="_latserifNW" xOffset="16" yOffset="408"/>
    <contour>
      <point x="461" y="693" type="line"/>
      <point x="603" y="693" type="line"/>
      <point x="1131" y="1342" type="line"/>
      <point x="1131" y="1446" type="line"/>
      <point x="979" y="1446" type="line"/>
      <point x="461" y="810" type="line"/>
    </contour>
    <contour>
      <point x="1007" y="0" type="line"/>
      <point x="1167" y="0" type="line"/>
      <point x="1167" y="188" type="line"/>
      <point x="1007" y="188" type="line"/>
    </contour>
    <contour>
      <point x="959" y="0" type="line"/>
      <point x="1051" y="0" type="line"/>
      <point x="1051" y="188" type="line"/>
      <point x="619" y="800" type="line"/>
      <point x="475" y="800" type="line"/>
      <point x="475" y="685" type="line"/>
    </contour>
    <contour>
      <point x="321" y="664" type="line"/>
      <point x="585" y="664" type="line"/>
      <point x="585" y="852" type="line"/>
      <point x="321" y="852" type="line"/>
    </contour>
    <contour>
      <point x="735" y="1258" type="line"/>
      <point x="1151" y="1258" type="line"/>
      <point x="1151" y="1446" type="line"/>
      <point x="735" y="1446" type="line"/>
    </contour>
  </outline>
</glyph>
<glyph name="L" format="2">
  <advance width="1220"/>
  <unicode hex="004C"/>
  <outline>
    <component base="_latserifSW"/>
    <component base="_latstemSW"/>
    <component base="_latstemNW"/>
    <component base="_latstemascW"/>
    <component base="_latserifNW" yOffset="536"/>
    <contour>
      <point x="256" y="0" type="line"/>
      <point x="932" y="0" type="line"/>
      <point x="932" y="124" type="line"/>
      <point x="256" y="124" type="line"/>
    </contour>
    <contour>
      <point x="868" y="0" type="line"/>
      <point x="996" y="0" type="line"/>
      <point x="996" y="352" type="line"/>
      <point x="868" y="352" type="line"/>
    </contour>
  </outline>
</glyph>
<glyph name="M" format="2">
  <advance width="1614"/>
  <unicode hex="004D"/>
  <outline>
    <component base="_latserifSW" xOffset="16"/>
    <component base="_latstemSW" xOffset="16"/>
    <component base="_latstemNW" xOffset="16"/>
    <component base="_latserifSE" xOffset="434"/>
    <component base="_latstemSE" xOffset="434"/>
    <component base="_latstemascW" xOffset="16" yOffset="-128"/>
    <component base="_lathalfserifascW" xOffset="16" yOffset="-128"/>
    <component base="_latstemNE" xOffset="434"/>
    <component base="_latstemascW" xOffset="1026" yOffset="-128"/>
    <component base="_lathalfserifascW" xOffset="1264" yOffset="-128"/>
    <contour>
      <point x="724" y="300" type="line"/>
      <point x="890" y="300" type="line"/>
      <point x="1310" y="1446" type="line"/>
      <point x="1128" y="1446" type="line"/>
      <point x="807" y="573" type="line"/>
      <point x="486" y="1446" type="line"/>
      <point x="304" y="1446" type="line"/>
    </contour>
  </outline>
</glyph>
<glyph name="N" format="2">
  <advance width="1390"/>
  <unicode hex="004E"/>
  <anchor x="687" y="1460" name="U"/>
  <outline>
    <component base="_latserifSW" xOffset="16"/>
    <component base="_latstemSW" xOffset="16"/>
    <component base="_latstemNW" xOffset="16"/>
    <component base="_latstemSE" xOffset="210"/>
    <component base="_latstemascW" xOffset="16" yOffset="-128"/>
    <component base="_lathalfserifascW" xOffset="16" yOffset="-128"/>
    <component base="_latstemNE" xOffset="210"/>
    <component base="_latstemascW" xOffset="802" yOffset="-128"/>
    <component base="_latserifNE" xOffset="210" yOffset="408"/>
    <contour>
      <point x="967" y="0" type="line"/>
      <point x="1092" y="0" type="line"/>
      <point x="1092" y="166" type="line"/>
      <point x="448" y="1446" type="line"/>
      <point x="323" y="1446" type="line"/>
      <point x="323" y="1280" type="line"/>
    </contour>
  </outline>
</glyph>
<glyph name="O" format="2">
  <advance width="1232"/>
  <unicode hex="004F"/>
  <anchor x="616" y="1460" name="U"/>
  <outline>
    <contour>
      <point x="910" y="724" type="line"/>
      <point x="1118" y="724" type="line"/>
      <point x="1118" y="756" type="line" smooth="yes"/>
      <point x="1118" y="1229"/>
      <point x="963" y="1458"/>
      <point x="635" y="1458" type="curve" smooth="yes"/>
      <point x="614" y="1458" type="line"/>
      <point x="614" y="1270" type="line"/>
      <point x="629" y="1270" type="line" smooth="yes"/>
      <point x="832" y="1270"/>
      <point x="910" y="1090"/>
      <point x="910" y="745" type="curve" smooth="yes"/>
    </contour>
    <contour>
      <point x="114" y="724" type="line"/>
      <point x="322" y="724" type="line"/>
      <point x="322" y="745" type="line" smooth="yes"/>
      <point x="322" y="1090"/>
      <point x="399" y="1270"/>
      <point x="602" y="1270" type="curve" smooth="yes"/>
      <point x="618" y="1270" type="line"/>
      <point x="618" y="1458" type="line"/>
      <point x="597" y="1458" type="line" smooth="yes"/>
      <point x="269" y="1458"/>
      <point x="114" y="1229"/>
      <point x="114" y="756" type="curve" smooth="yes"/>
    </contour>
    <contour>
      <point x="614" y="-12" type="line"/>
      <point x="635" y="-12" type="line" smooth="yes"/>
      <point x="963" y="-12"/>
      <point x="1118" y="228"/>
      <point x="1118" y="702" type="curve" smooth="yes"/>
      <point x="1118" y="734" type="line"/>
      <point x="910" y="734" type="line"/>
      <point x="910" y="712" type="line" smooth="yes"/>
      <point x="910" y="367"/>
      <point x="832" y="176"/>
      <point x="629" y="176" type="curve" smooth="yes"/>
      <point x="614" y="176" type="line"/>
    </contour>
    <contour>
      <point x="597" y="-12" type="curve" smooth="yes"/>
      <point x="618" y="-12" type="line"/>
      <point x="618" y="176" type="line"/>
      <point x="602" y="176" type="line" smooth="yes"/>
      <point x="399" y="176"/>
      <point x="322" y="367"/>
      <point x="322" y="712" type="curve" smooth="yes"/>
      <point x="322" y="734" type="line"/>
      <point x="114" y="734" type="line"/>
      <point x="114" y="702" type="line" smooth="yes"/>
      <point x="114" y="228"/>
      <point x="269" y="-12"/>
    </contour>
  </outline>
</glyph>
<glyph name="P" format="2">
  <advance width="1138"/>
  <unicode hex="0050"/>
  <outline>
    <component base="_latserifSW" xOffset="16"/>
    <component base="_latstemSW" xOffset="16"/>
    <component base="_latstemNW" xOffset="16"/>
    <component base="_latstemascW" xOffset="16" yOffset="-128"/>
    <component base="_lathalfserifascW" xOffset="16" yOffset="-128"/>
    <contour>
      <point x="288" y="600" type="line"/>
      <point x="527" y="600" type="line" smooth="yes"/>
      <point x="870" y="600"/>
      <point x="1030" y="778"/>
      <point x="1030" y="1011" type="curve" smooth="yes"/>
      <point x="1030" y="1043" type="line"/>
      <point x="822" y="1043" type="line"/>
      <point x="822" y="1021" type="line" smooth="yes"/>
      <point x="822" y="852"/>
      <point x="714" y="788"/>
      <point x="521" y="788" type="curve" smooth="yes"/>
      <point x="288" y="788" type="line"/>
    </contour>
    <contour>
      <point x="822" y="1033" type="line"/>
      <point x="1030" y="1033" type="line"/>
      <point x="1030" y="1065" type="line" smooth="yes"/>
      <point x="1030" y="1298"/>
      <point x="870" y="1446"/>
      <point x="527" y="1446" type="curve" smooth="yes"/>
      <point x="288" y="1446" type="line"/>
      <point x="288" y="1258" type="line"/>
      <point x="521" y="1258" type="line" smooth="yes"/>
      <point x="714" y="1258"/>
      <point x="822" y="1207"/>
      <point x="822" y="1054" type="curve" smooth="yes"/>
    </contour>
  </outline>
</glyph>
<glyph name="Q" format="2">
  <advance width="1232"/>
  <unicode hex="0051"/>
  <outline>
    <component base="O"/>
    <contour>
      <point x="1108" y="-200" type="line"/>
      <point x="1108" y="57" type="line"/>
      <point x="616" y="535" type="line"/>
      <point x="616" y="279" type="line"/>
    </contour>
  </outline>
</glyph>
<glyph name="R" format="2">
  <advance width="1220"/>
  <unicode hex="0052"/>
  <outline>
    <component base="_latserifSW" xOffset="16"/>
    <component base="_latstemSW" xOffset="16"/>
    <component base="_latstemNW" xOffset="16"/>
    <component base="_latstemascW" xOffset="16" yOffset="-128"/>
    <component base="_lathalfserifascW" xOffset="16" yOffset="-128"/>
    <contour>
      <point x="880" y="0" type="line"/>
      <point x="989" y="0" type="line"/>
      <point x="989" y="186" type="line"/>
      <point x="654" y="809" type="line"/>
      <point x="526" y="809" type="line"/>
      <point x="526" y="658" type="line"/>
    </contour>
    <contour>
      <point x="952" y="0" type="line"/>
      <point x="1094" y="0" type="line"/>
      <point x="1094" y="186" type="line"/>
      <point x="952" y="186" type="line"/>
    </contour>
    <contour>
      <point x="288" y="624" type="line"/>
      <point x="543" y="624" type="line" smooth="yes"/>
      <point x="876" y="624"/>
      <point x="1030" y="809"/>
      <point x="1030" y="1024" type="curve" smooth="yes"/>
      <point x="1030" y="1056" type="line"/>
      <point x="822" y="1056" type="line"/>
      <point x="822" y="1034" type="line" smooth="yes"/>
      <point x="822" y="880"/>
      <point x="719" y="812"/>
      <point x="537" y="812" type="curve" smooth="yes"/>
      <point x="288" y="812" type="line"/>
    </contour>
    <contour>
      <point x="822" y="1046" type="line"/>
      <point x="1030" y="1046" type="line"/>
      <point x="1030" y="1078" type="line" smooth="yes"/>
      <point x="1030" y="1293"/>
      <point x="876" y="1446"/>
      <point x="543" y="1446" type="curve" smooth="yes"/>
      <point x="288" y="1446" type="line"/>
      <point x="288" y="1258" type="line"/>
      <point x="537" y="1258" type="line" smooth="yes"/>
      <point x="730" y="1258"/>
      <point x="822" y="1202"/>
      <point x="822" y="1067" type="curve" smooth="yes"/>
    </contour>
  </outline>
</glyph>
<glyph name="S" format="2">
  <advance width="1132"/>
  <unicode hex="0053"/>
  <anchor x="566" y="1460" name="U"/>
  <outline>
    <contour>
      <point x="563" y="-12" type="curve"/>
      <point x="883" y="-12"/>
      <point x="1018" y="210"/>
      <point x="1018" y="414" type="curve"/>
      <point x="1018" y="652"/>
      <point x="898" y="819"/>
      <point x="585" y="844" type="curve" smooth="yes"/>
      <point x="390" y="860"/>
      <point x="352" y="959"/>
      <point x="352" y="1069" type="curve" smooth="yes"/>
      <point x="352" y="1182"/>
      <point x="395" y="1270"/>
      <point x="564" y="1270" type="curve"/>
      <point x="742" y="1270"/>
      <point x="775" y="1144"/>
      <point x="775" y="1049" type="curve" smooth="yes"/>
      <point x="775" y="1038" type="line"/>
      <point x="988" y="1038" type="line"/>
      <point x="988" y="1050" type="line" smooth="yes"/>
      <point x="988" y="1233"/>
      <point x="883" y="1458"/>
      <point x="565" y="1458" type="curve" smooth="yes"/>
      <point x="249" y="1458"/>
      <point x="144" y="1251"/>
      <point x="144" y="1070" type="curve"/>
      <point x="144" y="859"/>
      <point x="249" y="684"/>
      <point x="559" y="658" type="curve" smooth="yes"/>
      <point x="741" y="643"/>
      <point x="810" y="557"/>
      <point x="810" y="413" type="curve" smooth="yes"/>
      <point x="810" y="289"/>
      <point x="742" y="176"/>
      <point x="566" y="176" type="curve"/>
      <point x="390" y="176"/>
      <point x="327" y="313"/>
      <point x="327" y="408" type="curve" smooth="yes"/>
      <point x="327" y="420" type="line"/>
      <point x="114" y="420" type="line"/>
      <point x="114" y="408" type="line" smooth="yes"/>
      <point x="114" y="224"/>
      <point x="249" y="-12"/>
    </contour>
  </outline>
</glyph>
<glyph name="T" format="2">
  <advance width="1232"/>
  <unicode hex="0054"/>
  <outline>
    <component base="_latserifSW" xOffset="344"/>
    <component base="_latstemSW" xOffset="344"/>
    <component base="_latstemNW" xOffset="344"/>
    <component base="_latstemascW" xOffset="344" yOffset="-128"/>
    <component base="_latserifNW" xOffset="344" yOffset="408"/>
    <contour>
      <point x="166" y="1258" type="line"/>
      <point x="1066" y="1258" type="line"/>
      <point x="1066" y="1446" type="line"/>
      <point x="166" y="1446" type="line"/>
    </contour>
    <contour>
      <point x="972" y="1078" type="line"/>
      <point x="1160" y="1078" type="line"/>
      <point x="1160" y="1446" type="line"/>
      <point x="972" y="1446" type="line"/>
    </contour>
    <contour>
      <point x="72" y="1078" type="line"/>
      <point x="260" y="1078" type="line"/>
      <point x="260" y="1446" type="line"/>
      <point x="72" y="1446" type="line"/>
    </contour>
  </outline>
</glyph>
<glyph name="U" format="2">
  <advance width="1310"/>
  <unicode hex="0055"/>
  <anchor x="655" y="1460" name="U"/>
  <outline>
    <component base="_latstemascW" yOffset="-122"/>
    <component base="_latserifNW" yOffset="414"/>
    <component base="_latstemascW" xOffset="738" yOffset="-122"/>
    <component base="_latserifNE" xOffset="146" yOffset="414"/>
    <contour>
      <point x="637" y="-12" type="curve" smooth="yes"/>
      <point x="658" y="-12" type="line"/>
      <point x="658" y="176" type="line"/>
      <point x="642" y="176" type="line" smooth="yes"/>
      <point x="451" y="176"/>
      <point x="390" y="311"/>
      <point x="390" y="536" type="curve" smooth="yes"/>
      <point x="390" y="1038" type="line"/>
      <point x="182" y="1038" type="line"/>
      <point x="182" y="526" type="line" smooth="yes"/>
      <point x="182" y="202"/>
      <point x="321" y="-12"/>
    </contour>
    <contour>
      <point x="654" y="-12" type="line"/>
      <point x="675" y="-12" type="line" smooth="yes"/>
      <point x="991" y="-12"/>
      <point x="1128" y="202"/>
      <point x="1128" y="526" type="curve" smooth="yes"/>
      <point x="1128" y="1038" type="line"/>
      <point x="920" y="1038" type="line"/>
      <point x="920" y="536" type="line" smooth="yes"/>
      <point x="920" y="311"/>
      <point x="870" y="176"/>
      <point x="669" y="176" type="curve" smooth="yes"/>
      <point x="654" y="176" type="line"/>
    </contour>
  </outline>
</glyph>
<glyph name="V" format="2">
  <advance width="1220"/>
  <unicode hex="0056"/>
  <outline>
    <component base="_latserifNW" xOffset="-34" yOffset="536"/>
    <component base="_latserifNE" xOffset="128" yOffset="536"/>
    <contour>
      <point x="539" y="0" type="line"/>
      <point x="703" y="0" type="line"/>
      <point x="1144" y="1574" type="line"/>
      <point x="1015" y="1574" type="line"/>
      <point x="621" y="166" type="line"/>
      <point x="226" y="1574" type="line"/>
      <point x="97" y="1574" type="line"/>
    </contour>
  </outline>
</glyph>
<glyph name="W" format="2">
  <advance width="1760"/>
  <unicode hex="0057"/>
  <outline>
    <component base="_latserifNW" xOffset="-24" yOffset="408"/>
    <component base="_latserifNE" xOffset="620" yOffset="408"/>
    <contour>
      <point x="419" y="0" type="line"/>
      <point x="652" y="0" type="line"/>
      <point x="967" y="1446" type="line"/>
      <point x="796" y="1446" type="line"/>
      <point x="543" y="288" type="line"/>
      <point x="310" y="1446" type="line"/>
      <point x="123" y="1446" type="line"/>
    </contour>
    <contour>
      <point x="1108" y="0" type="line"/>
      <point x="1341" y="0" type="line"/>
      <point x="1636" y="1446" type="line"/>
      <point x="1449" y="1446" type="line"/>
      <point x="1217" y="288" type="line"/>
      <point x="964" y="1446" type="line"/>
      <point x="793" y="1446" type="line"/>
    </contour>
  </outline>
</glyph>
<glyph name="X" format="2">
  <advance width="1220"/>
  <unicode hex="0058"/>
  <outline>
    <component base="_latserifSW"/>
    <component base="_latserifSE" xOffset="140"/>
    <component base="_latserifNW" xOffset="30" yOffset="408"/>
    <component base="_latserifNE" xOffset="110" yOffset="408"/>
    <contour>
      <point x="1051" y="0" type="line"/>
      <point x="1197" y="0" type="line"/>
      <point x="299" y="1446" type="line"/>
      <point x="153" y="1446" type="line"/>
    </contour>
    <contour>
      <point x="121" y="0" type="line"/>
      <point x="266" y="0" type="line"/>
      <point x="669" y="665" type="line"/>
      <point x="597" y="783" type="line"/>
    </contour>
    <contour>
      <point x="722" y="718" type="line"/>
      <point x="1166" y="1446" type="line"/>
      <point x="1021" y="1446" type="line"/>
      <point x="650" y="836" type="line"/>
    </contour>
  </outline>
</glyph>
<glyph name="Y" format="2">
  <advance width="1294"/>
  <unicode hex="0059"/>
  <anchor x="647" y="1460" name="U"/>
  <outline>
    <component base="_latserifSW" xOffset="361"/>
    <component base="_latstemSW" xOffset="361"/>
    <component base="_latserifNW" xOffset="-24" yOffset="408"/>
    <component base="_latserifNE" xOffset="154" yOffset="408"/>
    <contour>
      <point x="551" y="532" type="line"/>
      <point x="743" y="532" type="line"/>
      <point x="1243" y="1446" type="line"/>
      <point x="1034" y="1446" type="line"/>
      <point x="647" y="730" type="line"/>
      <point x="259" y="1446" type="line"/>
      <point x="50" y="1446" type="line"/>
    </contour>
    <contour>
      <point x="543" y="464" type="line"/>
      <point x="751" y="464" type="line"/>
      <point x="751" y="640" type="line"/>
      <point x="543" y="640" type="line"/>
    </contour>
  </outline>
</glyph>
<glyph name="Z" format="2">
  <advance width="1151"/>
  <unicode hex="005A"/>
  <anchor x="597" y="1460" name="U"/>
  <outline>
    <contour>
      <point x="124" y="0" type="line"/>
      <point x="218" y="0" type="line"/>
      <point x="1017" y="1258" type="line"/>
      <point x="1017" y="1446" type="line"/>
      <point x="923" y="1446" type="line"/>
      <point x="124" y="188" type="line"/>
    </contour>
    <contour>
      <point x="155" y="0" type="line"/>
      <point x="1027" y="0" type="line"/>
      <point x="1027" y="188" type="line"/>
      <point x="155" y="188" type="line"/>
    </contour>
    <contour>
      <point x="839" y="126" type="line"/>
      <point x="1027" y="126" type="line"/>
      <point x="1027" y="424" type="line"/>
      <point x="839" y="424" type="line"/>
    </contour>
    <contour>
      <point x="144" y="1022" type="line"/>
      <point x="332" y="1022" type="line"/>
      <point x="332" y="1384" type="line"/>
      <point x="144" y="1384" type="line"/>
    </contour>
    <contour>
      <point x="144" y="1258" type="line"/>
      <point x="977" y="1258" type="line"/>
      <point x="977" y="1446" type="line"/>
      <point x="144" y="1446" type="line"/>
    </contour>
  </outline>
</glyph>
<glyph name="backslash" format="2">
  <advance width="1080"/>
  <unicode hex="005C"/>
  <outline>
    <contour>
      <point x="811" y="0" type="line"/>
      <point x="1016" y="0" type="line"/>
      <point x="267" y="1385" type="line"/>
      <point x="64" y="1382" type="line"/>
    </contour>
  </outline>
</glyph>
<glyph name="asciicircum" format="2">
  <advance width="1180"/>
  <unicode hex="005E"/>
  <outline>
    <contour>
      <point x="145" y="339" type="line"/>
      <point x="328" y="339" type="line"/>
      <point x="656" y="1080" type="line"/>
      <point x="524" y="1080" type="line"/>
      <point x="852" y="339" type="line"/>
      <point x="1035" y="339" type="line"/>
      <point x="590" y="1344" type="line"/>
    </contour>
  </outline>
</glyph>
<glyph name="underscore" format="2">
  <advance width="1180"/>
  <unicode hex="005F"/>
  <outline>
    <contour>
      <point x="0" y="-342" type="line"/>
      <point x="1180" y="-342" type="line"/>
      <point x="1180" y="-154" type="line"/>
      <point x="0" y="-154" type="line"/>
    </contour>
  </outline>
</glyph>
<glyph name="a" format="2">
  <advance width="1058"/>
  <unicode hex="0061"/>
  <anchor x="520" y="1100" name="U"/>
  <outline>
    <component base="_lathalfserifSE" xOffset="-90"/>
    <component base="_latstemSE" xOffset="-90"/>
    <contour>
      <point x="684" y="512" type="line"/>
      <point x="892" y="512" type="line"/>
      <point x="892" y="694" type="line" smooth="yes"/>
      <point x="892" y="931"/>
      <point x="765" y="1050"/>
      <point x="514" y="1050" type="curve" smooth="yes"/>
      <point x="232" y="1050"/>
      <point x="126" y="868"/>
      <point x="126" y="712" type="curve" smooth="yes"/>
      <point x="126" y="705" type="line"/>
      <point x="339" y="705" type="line"/>
      <point x="339" y="712" type="line" smooth="yes"/>
      <point x="339" y="765"/>
      <point x="370" y="846"/>
      <point x="514" y="846" type="curve" smooth="yes"/>
      <point x="655" y="846"/>
      <point x="684" y="797"/>
      <point x="684" y="682" type="curve" smooth="yes"/>
    </contour>
    <contour>
      <point x="390" y="-12" type="curve" smooth="yes"/>
      <point x="591" y="-12"/>
      <point x="766" y="169"/>
      <point x="812" y="379" type="curve"/>
      <point x="690" y="378" type="line"/>
      <point x="653" y="280"/>
      <point x="563" y="192"/>
      <point x="430" y="192" type="curve" smooth="yes"/>
      <point x="325" y="192"/>
      <point x="306" y="257"/>
      <point x="306" y="302" type="curve" smooth="yes"/>
      <point x="306" y="310" type="line"/>
      <point x="98" y="310" type="line"/>
      <point x="98" y="300" type="line" smooth="yes"/>
      <point x="98" y="187"/>
      <point x="165" y="-12"/>
    </contour>
    <contour>
      <point x="98" y="305" type="line"/>
      <point x="306" y="305" type="line"/>
      <point x="306" y="312" type="line"/>
      <point x="306" y="375"/>
      <point x="350" y="426"/>
      <point x="472" y="426" type="curve" smooth="yes"/>
      <point x="488" y="426" type="line"/>
      <point x="488" y="630" type="line"/>
      <point x="461" y="630" type="line" smooth="yes"/>
      <point x="208" y="630"/>
      <point x="98" y="469"/>
      <point x="98" y="313" type="curve"/>
    </contour>
    <contour>
      <point x="479" y="426" type="line"/>
      <point x="823" y="426" type="line"/>
      <point x="823" y="630" type="line"/>
      <point x="479" y="630" type="line"/>
    </contour>
  </outline>
</glyph>
<glyph name="e" format="2">
  <advance width="988"/>
  <unicode hex="0065"/>
  <anchor x="498" y="1100" name="U"/>
  <outline>
    <component base="_latcirSW"/>
    <component base="_latcurveSE"/>
    <component base="_latcirNW"/>
    <contour>
      <point x="690" y="482" type="line"/>
      <point x="898" y="482" type="line"/>
      <point x="898" y="604" type="line" smooth="yes"/>
      <point x="898" y="927"/>
      <point x="773" y="1050"/>
      <point x="524" y="1050" type="curve" smooth="yes"/>
      <point x="508" y="1050" type="line"/>
      <point x="508" y="846" type="line"/>
      <point x="523" y="846" type="line" smooth="yes"/>
      <point x="627" y="846"/>
      <point x="690" y="813"/>
      <point x="690" y="633" type="curve" smooth="yes"/>
    </contour>
    <contour>
      <point x="172" y="433" type="line"/>
      <point x="898" y="433" type="line"/>
      <point x="898" y="535" type="line"/>
      <point x="793" y="637" type="line"/>
      <point x="172" y="637" type="line"/>
    </contour>
  </outline>
</glyph>
<glyph name="f" format="2">
  <advance width="590"/>
  <unicode hex="0066"/>
  <outline>
    <component base="_latlongserifSW"/>
    <component base="_latstemSW"/>
    <component base="_latstemNW"/>
    <component base="_latcrossbar" xOffset="-40"/>
    <contour>
      <point x="192" y="973" type="line"/>
      <point x="320" y="973" type="line"/>
      <point x="320" y="1095" type="line" smooth="yes"/>
      <point x="320" y="1280"/>
      <point x="355" y="1438"/>
      <point x="576" y="1438" type="curve" smooth="yes"/>
      <point x="662" y="1438" type="line"/>
      <point x="662" y="1562" type="line"/>
      <point x="555" y="1562" type="line" smooth="yes"/>
      <point x="272" y="1562"/>
      <point x="192" y="1349"/>
      <point x="192" y="1105" type="curve" smooth="yes"/>
    </contour>
  </outline>
</glyph>
<glyph name="g" format="2">
  <advance width="1004"/>
  <unicode hex="0067"/>
  <outline>
    <component base="_latroundbowlW"/>
    <component base="_latstemSE" xOffset="-84"/>
    <component base="_latroundarchW"/>
    <component base="_latstemNE" xOffset="-84"/>
    <contour>
      <point x="496" y="-525" type="line"/>
      <point x="510" y="-525" type="line" smooth="yes"/>
      <point x="783" y="-525"/>
      <point x="898" y="-331"/>
      <point x="898" y="-17" type="curve" smooth="yes"/>
      <point x="898" y="15" type="line"/>
      <point x="690" y="15" type="line"/>
      <point x="690" y="-7" type="line" smooth="yes"/>
      <point x="690" y="-260"/>
      <point x="647" y="-337"/>
      <point x="499" y="-337" type="curve" smooth="yes"/>
      <point x="496" y="-337" type="line"/>
    </contour>
    <contour>
      <point x="486" y="-525" type="curve" smooth="yes"/>
      <point x="500" y="-525" type="line"/>
      <point x="500" y="-337" type="line"/>
      <point x="496" y="-337" type="line" smooth="yes"/>
      <point x="358" y="-337"/>
      <point x="306" y="-286"/>
      <point x="306" y="-151" type="curve" smooth="yes"/>
      <point x="306" y="-141" type="line"/>
      <point x="98" y="-141" type="line"/>
      <point x="98" y="-161" type="line" smooth="yes"/>
      <point x="98" y="-385"/>
      <point x="233" y="-525"/>
    </contour>
  </outline>
</glyph>
<glyph name="i" format="2">
  <advance width="572"/>
  <unicode hex="0069"/>
  <anchor x="332" y="1100" name="U"/>
  <outline>
    <component base="_latstemSW" xOffset="60"/>
    <component base="_latstemNW" xOffset="60"/>
    <component base="_latdot" xOffset="30"/>
    <contour>
      <point x="100" y="0" type="line"/>
      <point x="564" y="0" type="line"/>
      <point x="564" y="124" type="line"/>
      <point x="100" y="124" type="line"/>
    </contour>
    <contour>
      <point x="100" y="914" type="line"/>
      <point x="332" y="914" type="line"/>
      <point x="332" y="1038" type="line"/>
      <point x="100" y="1038" type="line"/>
    </contour>
  </outline>
</glyph>
<glyph name="j" format="2">
  <advance width="522"/>
  <unicode hex="006A"/>
  <outline>
    <component base="_latstemSW" xOffset="24"/>
    <component base="_latstemNW" xOffset="24"/>
    <component base="_latdot" xOffset="-36"/>
    <contour>
      <point x="-65" y="-525" type="line"/>
      <point x="41" y="-525" type="line" smooth="yes"/>
      <point x="334" y="-525"/>
      <point x="414" y="-314"/>
      <point x="414" y="-70" type="curve" smooth="yes"/>
      <point x="414" y="62" type="line"/>
      <point x="206" y="62" type="line"/>
      <point x="206" y="-60" type="line" smooth="yes"/>
      <point x="206" y="-245"/>
      <point x="172" y="-321"/>
      <point x="21" y="-321" type="curve" smooth="yes"/>
      <point x="-65" y="-321" type="line"/>
    </contour>
    <contour>
      <point x="56" y="834" type="line"/>
      <point x="296" y="834" type="line"/>
      <point x="296" y="1038" type="line"/>
      <point x="56" y="1038" type="line"/>
    </contour>
  </outline>
</glyph>
<glyph name="k" format="2">
  <advance width="1047"/>
  <unicode hex="006B"/>
  <outline>
    <component base="_latserifSW"/>
    <component base="_latstemSW"/>
    <component base="_latstemNW"/>
    <component base="_latstemascW"/>
    <component base="_lathalfserifascW"/>
    <contour>
      <point x="824" y="-1" type="line"/>
      <point x="910" y="0" type="line"/>
      <point x="910" y="188" type="line"/>
      <point x="619" y="577" type="line"/>
      <point x="440" y="577" type="line"/>
      <point x="440" y="522" type="line"/>
    </contour>
    <contour>
      <point x="259" y="465" type="line"/>
      <point x="573" y="465" type="line"/>
      <point x="573" y="641" type="line"/>
      <point x="259" y="641" type="line"/>
    </contour>
    <contour>
      <point x="844" y="0" type="line"/>
      <point x="1017" y="0" type="line"/>
      <point x="1017" y="188" type="line"/>
      <point x="844" y="188" type="line"/>
    </contour>
    <contour>
      <point x="411" y="534" type="line"/>
      <point x="582" y="534" type="line"/>
      <point x="971" y="934" type="line"/>
      <point x="971" y="1038" type="line"/>
      <point x="853" y="1038" type="line"/>
      <point x="411" y="589" type="line"/>
    </contour>
    <contour>
      <point x="576" y="850" type="line"/>
      <point x="987" y="850" type="line"/>
      <point x="987" y="1038" type="line"/>
      <point x="576" y="1038" type="line"/>
    </contour>
  </outline>
</glyph>
<glyph name="m" format="2">
  <advance width="1536"/>
  <unicode hex="006D"/>
  <outline>
    <component base="_latserifSW"/>
    <component base="_latserifSE" xOffset="-80"/>
    <component base="_lathalfserifNW"/>
    <component base="_latstemSW"/>
    <component base="_latstemNW"/>
    <component base="_latstemSE" xOffset="-80"/>
    <component base="_latserifSE" xOffset="456"/>
    <component base="_latstemSE" xOffset="456"/>
    <contour>
      <point x="728" y="512" type="line"/>
      <point x="856" y="512" type="line"/>
      <point x="856" y="644" type="line" smooth="yes"/>
      <point x="856" y="897"/>
      <point x="789" y="1050"/>
      <point x="574" y="1050" type="curve" smooth="yes"/>
      <point x="393" y="1050"/>
      <point x="284" y="891"/>
      <point x="238" y="761" type="curve"/>
      <point x="320" y="762" type="line"/>
      <point x="357" y="820"/>
      <point x="441" y="926"/>
      <point x="574" y="926" type="curve" smooth="yes"/>
      <point x="699" y="926"/>
      <point x="728" y="847"/>
      <point x="728" y="632" type="curve" smooth="yes"/>
    </contour>
    <contour>
      <point x="1264" y="512" type="line"/>
      <point x="1392" y="512" type="line"/>
      <point x="1392" y="644" type="line" smooth="yes"/>
      <point x="1392" y="897"/>
      <point x="1325" y="1050"/>
      <point x="1110" y="1050" type="curve" smooth="yes"/>
      <point x="929" y="1050"/>
      <point x="813" y="891"/>
      <point x="767" y="761" type="curve"/>
      <point x="849" y="762" type="line"/>
      <point x="886" y="820"/>
      <point x="977" y="926"/>
      <point x="1110" y="926" type="curve" smooth="yes"/>
      <point x="1235" y="926"/>
      <point x="1264" y="847"/>
      <point x="1264" y="632" type="curve" smooth="yes"/>
    </contour>
  </outline>
</glyph>
<glyph name="r" format="2">
  <advance width="940"/>
  <unicode hex="0072"/>
  <outline>
    <component base="_latlongserifSW"/>
    <component base="_latstemSW"/>
    <component base="_latstemNW"/>
    <component base="_lathalfserifNW"/>
    <contour>
      <point x="284" y="662" type="curve"/>
      <point x="386" y="663" type="line"/>
      <point x="423" y="751"/>
      <point x="515" y="844"/>
      <point x="658" y="844" type="curve"/>
      <point x="658" y="874"/>
      <point x="658" y="999"/>
      <point x="658" y="1050" type="curve"/>
      <point x="477" y="1050"/>
      <point x="330" y="852"/>
    </contour>
    <contour>
      <point x="658" y="652" type="line"/>
      <point x="866" y="652" type="line"/>
      <point x="866" y="1050" type="line"/>
      <point x="658" y="1050" type="line"/>
    </contour>
  </outline>
</glyph>
<glyph name="s" format="2">
  <advance width="982"/>
  <unicode hex="0073"/>
  <anchor x="496" y="1100" name="U"/>
  <outline>
    <component base="_latcurveNE" xOffset="-24"/>
    <contour>
      <point x="478" y="-12" type="line"/>
      <point x="505" y="-12" type="line" smooth="yes"/>
      <point x="754" y="-12"/>
      <point x="884" y="147"/>
      <point x="884" y="312" type="curve" smooth="yes"/>
      <point x="884" y="325" type="line" smooth="yes"/>
      <point x="884" y="500"/>
      <point x="783" y="600"/>
      <point x="516" y="621" type="curve" smooth="yes"/>
      <point x="364" y="633"/>
      <point x="316" y="668"/>
      <point x="316" y="742" type="curve" smooth="yes"/>
      <point x="316" y="795"/>
      <point x="352" y="846"/>
      <point x="474" y="846" type="curve" smooth="yes"/>
      <point x="490" y="846" type="line"/>
      <point x="490" y="1050" type="line"/>
      <point x="463" y="1050" type="line" smooth="yes"/>
      <point x="224" y="1050"/>
      <point x="108" y="894"/>
      <point x="108" y="748" type="curve" smooth="yes"/>
      <point x="108" y="731" type="line" smooth="yes"/>
      <point x="108" y="564"/>
      <point x="222" y="445"/>
      <point x="465" y="429" type="curve" smooth="yes"/>
      <point x="632" y="418"/>
      <point x="674" y="387"/>
      <point x="676" y="313" type="curve" smooth="yes"/>
      <point x="678" y="239"/>
      <point x="612" y="192"/>
      <point x="494" y="192" type="curve" smooth="yes"/>
      <point x="478" y="192" type="line"/>
    </contour>
    <contour>
      <point x="461" y="-12" type="curve" smooth="yes"/>
      <point x="488" y="-12" type="line"/>
      <point x="488" y="192" type="line"/>
      <point x="472" y="192" type="line" smooth="yes"/>
      <point x="350" y="192"/>
      <point x="311" y="243"/>
      <point x="311" y="326" type="curve"/>
      <point x="311" y="333" type="line"/>
      <point x="98" y="333" type="line"/>
      <point x="98" y="316" type="line"/>
      <point x="98" y="140"/>
      <point x="208" y="-12"/>
    </contour>
  </outline>
</glyph>
<glyph name="t" format="2">
  <advance width="678"/>
  <unicode hex="0074"/>
  <outline>
    <component base="_latstemNW"/>
    <component base="_latcrossbar" xOffset="-50"/>
    <component base="_klmidW" xOffset="64"/>
    <contour>
      <point x="182" y="988" type="line"/>
      <point x="390" y="988" type="line"/>
      <point x="390" y="1316" type="line"/>
      <point x="182" y="1316" type="line"/>
    </contour>
    <contour>
      <point x="432" y="0" type="curve" smooth="yes"/>
      <point x="630" y="0" type="line"/>
      <point x="630" y="188" type="line"/>
      <point x="452" y="188" type="line" smooth="yes"/>
      <point x="421" y="188"/>
      <point x="390" y="223"/>
      <point x="390" y="266" type="curve" smooth="yes"/>
      <point x="390" y="338" type="line"/>
      <point x="182" y="338" type="line"/>
      <point x="182" y="256" type="line" smooth="yes"/>
      <point x="182" y="92"/>
      <point x="289" y="0"/>
    </contour>
  </outline>
</glyph>
<glyph name="v" format="2">
  <advance width="1100"/>
  <unicode hex="0076"/>
  <outline>
    <contour>
      <point x="640" y="0" type="line"/>
      <point x="1007" y="1038" type="line"/>
      <point x="813" y="1038" type="line"/>
      <point x="550" y="275" type="line"/>
      <point x="286" y="1038" type="line"/>
      <point x="92" y="1038" type="line"/>
      <point x="460" y="0" type="line"/>
    </contour>
    <contour>
      <point x="30" y="850" type="line"/>
      <point x="470" y="850" type="line"/>
      <point x="470" y="1038" type="line"/>
      <point x="30" y="1038" type="line"/>
    </contour>
    <contour>
      <point x="630" y="850" type="line"/>
      <point x="1070" y="850" type="line"/>
      <point x="1070" y="1038" type="line"/>
      <point x="630" y="1038" type="line"/>
    </contour>
  </outline>
</glyph>
<glyph name="w" format="2">
  <advance width="1480"/>
  <unicode hex="0077"/>
  <outline>
    <contour>
      <point x="930" y="0" type="line"/>
      <point x="1141" y="0" type="line"/>
      <point x="1387" y="1038" type="line"/>
      <point x="1215" y="1038" type="line"/>
      <point x="1033" y="275" type="line"/>
      <point x="823" y="1038" type="line"/>
      <point x="658" y="1038" type="line"/>
    </contour>
    <contour>
      <point x="335" y="0" type="line"/>
      <point x="546" y="0" type="line"/>
      <point x="818" y="1038" type="line"/>
      <point x="653" y="1038" type="line"/>
      <point x="443" y="275" type="line"/>
      <point x="260" y="1038" type="line"/>
      <point x="88" y="1038" type="line"/>
    </contour>
    <contour>
      <point x="30" y="850" type="line"/>
      <point x="432" y="850" type="line"/>
      <point x="432" y="1038" type="line"/>
      <point x="30" y="1038" type="line"/>
    </contour>
    <contour>
      <point x="1048" y="850" type="line"/>
      <point x="1450" y="850" type="line"/>
      <point x="1450" y="1038" type="line"/>
      <point x="1048" y="1038" type="line"/>
    </contour>
  </outline>
</glyph>
<glyph name="y" format="2">
  <advance width="1080"/>
  <unicode hex="0079"/>
  <anchor x="530" y="1100" name="U"/>
  <outline>
    <contour>
      <point x="595" y="-78" type="line"/>
      <point x="985" y="1038" type="line"/>
      <point x="789" y="1038" type="line"/>
      <point x="530" y="275" type="line"/>
      <point x="270" y="1038" type="line"/>
      <point x="74" y="1038" type="line"/>
      <point x="467" y="-78" type="line"/>
    </contour>
    <contour>
      <point x="169" y="-525" type="line" smooth="yes"/>
      <point x="329" y="-525"/>
      <point x="475" y="-439"/>
      <point x="565" y="-170" type="curve" smooth="yes"/>
      <point x="656" y="103" type="line"/>
      <point x="472" y="103" type="line"/>
      <point x="396" y="-117" type="line" smooth="yes"/>
      <point x="331" y="-304"/>
      <point x="260" y="-337"/>
      <point x="129" y="-337" type="curve" smooth="yes"/>
      <point x="81" y="-337" type="line"/>
      <point x="81" y="-525" type="line"/>
    </contour>
    <contour>
      <point x="30" y="850" type="line"/>
      <point x="454" y="850" type="line"/>
      <point x="454" y="1038" type="line"/>
      <point x="30" y="1038" type="line"/>
    </contour>
    <contour>
      <point x="626" y="850" type="line"/>
      <point x="1050" y="850" type="line"/>
      <point x="1050" y="1038" type="line"/>
      <point x="626" y="1038" type="line"/>
    </contour>
  </outline>
</glyph>
<glyph name="z" format="2">
  <advance width="979"/>
  <unicode hex="007A"/>
  <anchor x="490" y="1100" name="U"/>
  <outline>
    <contour>
      <point x="98" y="0" type="line"/>
      <point x="160" y="0" type="line"/>
      <point x="871" y="850" type="line"/>
      <point x="871" y="1038" type="line"/>
      <point x="809" y="1038" type="line"/>
      <point x="98" y="188" type="line"/>
    </contour>
    <contour>
      <point x="129" y="0" type="line"/>
      <point x="881" y="0" type="line"/>
      <point x="881" y="188" type="line"/>
      <point x="129" y="188" type="line"/>
    </contour>
    <contour>
      <point x="693" y="62" type="line"/>
      <point x="881" y="62" type="line"/>
      <point x="881" y="324" type="line"/>
      <point x="693" y="324" type="line"/>
    </contour>
    <contour>
      <point x="118" y="714" type="line"/>
      <point x="306" y="714" type="line"/>
      <point x="306" y="976" type="line"/>
      <point x="118" y="976" type="line"/>
    </contour>
    <contour>
      <point x="118" y="850" type="line"/>
      <point x="831" y="850" type="line"/>
      <point x="831" y="1038" type="line"/>
      <point x="118" y="1038" type="line"/>
    </contour>
  </outline>
</glyph>
<glyph name="braceleft" format="2">
  <advance width="610"/>
  <unicode hex="007B"/>
  <outline>
    <contour>
      <point x="85" y="436" type="line"/>
      <point x="163" y="436" type="line" smooth="yes"/>
      <point x="196" y="436"/>
      <point x="458" y="530"/>
      <point x="458" y="780" type="curve" smooth="yes"/>
      <point x="458" y="1001"/>
      <point x="338" y="1166"/>
      <point x="338" y="1273" type="curve" smooth="yes"/>
      <point x="338" y="1343"/>
      <point x="384" y="1386"/>
      <point x="473" y="1386" type="curve" smooth="yes"/>
      <point x="497" y="1386"/>
      <point x="529" y="1386"/>
      <point x="544" y="1386" type="curve"/>
      <point x="546" y="1574" type="line"/>
      <point x="475" y="1574" type="line" smooth="yes"/>
      <point x="285" y="1574"/>
      <point x="130" y="1458"/>
      <point x="130" y="1293" type="curve" smooth="yes"/>
      <point x="130" y="1090"/>
      <point x="250" y="967"/>
      <point x="250" y="790" type="curve" smooth="yes"/>
      <point x="250" y="693"/>
      <point x="199" y="624"/>
      <point x="110" y="624" type="curve" smooth="yes"/>
      <point x="75" y="624" type="line"/>
    </contour>
    <contour>
      <point x="475" y="-512" type="curve" smooth="yes"/>
      <point x="546" y="-512" type="line"/>
      <point x="544" y="-324" type="line"/>
      <point x="529" y="-324"/>
      <point x="497" y="-324"/>
      <point x="473" y="-324" type="curve" smooth="yes"/>
      <point x="384" y="-324"/>
      <point x="338" y="-283"/>
      <point x="338" y="-213" type="curve" smooth="yes"/>
      <point x="338" y="-106"/>
      <point x="458" y="59"/>
      <point x="458" y="280" type="curve" smooth="yes"/>
      <point x="458" y="530"/>
      <point x="196" y="624"/>
      <point x="163" y="624" type="curve" smooth="yes"/>
      <point x="85" y="624" type="line"/>
      <point x="75" y="436" type="line"/>
      <point x="110" y="436" type="line" smooth="yes"/>
      <point x="199" y="436"/>
      <point x="250" y="367"/>
      <point x="250" y="270" type="curve" smooth="yes"/>
      <point x="250" y="93"/>
      <point x="130" y="-30"/>
      <point x="130" y="-233" type="curve" smooth="yes"/>
      <point x="130" y="-398"/>
      <point x="285" y="-512"/>
    </contour>
    <contour>
      <point x="64" y="436" type="line"/>
      <point x="98" y="436" type="line"/>
      <point x="98" y="624" type="line"/>
      <point x="64" y="624" type="line"/>
    </contour>
  </outline>
</glyph>
<glyph name="asciitilde" format="2">
  <advance width="1020"/>
  <unicode hex="007E"/>
  <outline>
    <contour>
      <point x="88" y="594" type="curve"/>
      <point x="248" y="594" type="line"/>
      <point x="248" y="606"/>
      <point x="248" y="707"/>
      <point x="248" y="717" type="curve" smooth="yes"/>
      <point x="248" y="852"/>
      <point x="279" y="899"/>
      <point x="333" y="899" type="curve" smooth="yes"/>
      <point x="374" y="899"/>
      <point x="423" y="821"/>
      <point x="466" y="750" type="curve" smooth="yes"/>
      <point x="533" y="639"/>
      <point x="605" y="584"/>
      <point x="689" y="584" type="curve" smooth="yes"/>
      <point x="826" y="584"/>
      <point x="932" y="700"/>
      <point x="932" y="932" type="curve" smooth="yes"/>
      <point x="932" y="950"/>
      <point x="932" y="1046"/>
      <point x="932" y="1065" type="curve"/>
      <point x="772" y="1065" type="line"/>
      <point x="772" y="1054"/>
      <point x="772" y="959"/>
      <point x="772" y="946" type="curve" smooth="yes"/>
      <point x="772" y="812"/>
      <point x="751" y="760"/>
      <point x="687" y="760" type="curve" smooth="yes"/>
      <point x="649" y="760"/>
      <point x="599" y="839"/>
      <point x="553" y="912" type="curve" smooth="yes"/>
      <point x="493" y="1008"/>
      <point x="414" y="1075"/>
      <point x="331" y="1075" type="curve" smooth="yes"/>
      <point x="194" y="1075"/>
      <point x="88" y="963"/>
      <point x="88" y="731" type="curve" smooth="yes"/>
      <point x="88" y="707"/>
      <point x="88" y="618"/>
    </contour>
  </outline>
</glyph>
<glyph name="sterling" format="2">
  <advance width="1220"/>
  <unicode hex="00A3"/>
  <outline>
    <component base="_latserifSW" xOffset="23"/>
    <component base="_latstemSW" xOffset="23"/>
    <component base="_latstemNW" xOffset="23" yOffset="-60"/>
    <contour>
      <point x="295" y="0" type="line"/>
      <point x="1035" y="0" type="line"/>
      <point x="1035" y="124" type="line"/>
      <point x="295" y="124" type="line"/>
    </contour>
    <contour>
      <point x="231" y="964" type="line"/>
      <point x="359" y="964" type="line"/>
      <point x="359" y="985" type="line" smooth="yes"/>
      <point x="359" y="1150"/>
      <point x="386" y="1334"/>
      <point x="609" y="1334" type="curve" smooth="yes"/>
      <point x="625" y="1334" type="line"/>
      <point x="625" y="1458" type="line"/>
      <point x="604" y="1458" type="line" smooth="yes"/>
      <point x="326" y="1458"/>
      <point x="231" y="1249"/>
      <point x="231" y="996" type="curve" smooth="yes"/>
    </contour>
    <contour>
      <point x="902" y="1070" type="line"/>
      <point x="1035" y="1070" type="line"/>
      <point x="1035" y="1082" type="line" smooth="yes"/>
      <point x="1035" y="1265"/>
      <point x="920" y="1458"/>
      <point x="642" y="1458" type="curve" smooth="yes"/>
      <point x="621" y="1458" type="line"/>
      <point x="621" y="1334" type="line"/>
      <point x="636" y="1334" type="line" smooth="yes"/>
      <point x="859" y="1334"/>
      <point x="902" y="1176"/>
      <point x="902" y="1081" type="curve" smooth="yes"/>
    </contour>
    <contour>
      <point x="71" y="610" type="line"/>
      <point x="771" y="610" type="line"/>
      <point x="771" y="734" type="line"/>
      <point x="71" y="734" type="line"/>
    </contour>
  </outline>
</glyph>
<glyph name="currency" format="2">
  <advance width="1106"/>
  <unicode hex="00A4"/>
  <outline>
    <contour>
      <point x="303" y="811" type="curve" smooth="yes"/>
      <point x="442" y="673"/>
      <point x="665" y="674"/>
      <point x="804" y="812" type="curve" smooth="yes"/>
      <point x="941" y="950"/>
      <point x="941" y="1174"/>
      <point x="804" y="1312" type="curve" smooth="yes"/>
      <point x="666" y="1449"/>
      <point x="442" y="1449"/>
      <point x="304" y="1312" type="curve" smooth="yes"/>
      <point x="166" y="1173"/>
      <point x="166" y="949"/>
    </contour>
    <contour>
      <point x="411" y="919" type="curve" smooth="yes"/>
      <point x="332" y="998"/>
      <point x="333" y="1125"/>
      <point x="412" y="1204" type="curve" smooth="yes"/>
      <point x="490" y="1282"/>
      <point x="617" y="1282"/>
      <point x="696" y="1204" type="curve" smooth="yes"/>
      <point x="775" y="1125"/>
      <point x="775" y="999"/>
      <point x="696" y="920" type="curve" smooth="yes"/>
      <point x="616" y="840"/>
      <point x="491" y="839"/>
    </contour>
    <contour>
      <point x="119" y="1362" type="line"/>
      <point x="274" y="1207" type="line"/>
      <point x="407" y="1340" type="line"/>
      <point x="252" y="1495" type="line"/>
    </contour>
    <contour>
      <point x="699" y="1340" type="line"/>
      <point x="832" y="1207" type="line"/>
      <point x="987" y="1362" type="line"/>
      <point x="854" y="1495" type="line"/>
    </contour>
    <contour>
      <point x="699" y="782" type="line"/>
      <point x="854" y="627" type="line"/>
      <point x="987" y="760" type="line"/>
      <point x="832" y="915" type="line"/>
    </contour>
    <contour>
      <point x="119" y="760" type="line"/>
      <point x="252" y="627" type="line"/>
      <point x="407" y="782" type="line"/>
      <point x="274" y="915" type="line"/>
    </contour>
  </outline>
</glyph>
<glyph name="yen" format="2">
  <advance width="1220"/>
  <unicode hex="00A5"/>
  <outline>
    <component base="_latserifSW" xOffset="281"/>
    <component base="_latstemSW" xOffset="281"/>
    <component base="_latserifNW" xOffset="-18" yOffset="408"/>
    <component base="_latserifNE" xOffset="-56" yOffset="408"/>
    <contour>
      <point x="497" y="532" type="line"/>
      <point x="609" y="532" type="line"/>
      <point x="973" y="1446" type="line"/>
      <point x="836" y="1446" type="line"/>
      <point x="553" y="695" type="line"/>
      <point x="269" y="1446" type="line"/>
      <point x="132" y="1446" type="line"/>
    </contour>
    <contour>
      <point x="489" y="464" type="line"/>
      <point x="617" y="464" type="line"/>
      <point x="617" y="640" type="line"/>
      <point x="489" y="640" type="line"/>
    </contour>
    <contour>
      <point x="91" y="414" type="line"/>
      <point x="1011" y="414" type="line"/>
      <point x="1011" y="537" type="line"/>
      <point x="91" y="538" type="line"/>
    </contour>
    <contour>
      <point x="91" y="746" type="line"/>
      <point x="421" y="746" type="line"/>
      <point x="421" y="870" type="line"/>
      <point x="91" y="870" type="line"/>
    </contour>
    <contour>
      <point x="681" y="746" type="line"/>
      <point x="1011" y="746" type="line"/>
      <point x="1011" y="870" type="line"/>
      <point x="681" y="870" type="line"/>
    </contour>
  </outline>
</glyph>
<glyph name="section" format="2">
  <advance width="1130"/>
  <unicode hex="00A7"/>
  <outline>
    <contour>
      <point x="630" y="88" type="line"/>
      <point x="853" y="137"/>
      <point x="1012" y="297"/>
      <point x="1012" y="524" type="curve"/>
      <point x="1012" y="756"/>
      <point x="846" y="945"/>
      <point x="569" y="974" type="curve" smooth="yes"/>
      <point x="373" y="994"/>
      <point x="356" y="1090"/>
      <point x="356" y="1200" type="curve"/>
      <point x="315" y="1200"/>
      <point x="189" y="1200"/>
      <point x="148" y="1200" type="curve"/>
      <point x="148" y="1005"/>
      <point x="244" y="820"/>
      <point x="543" y="788" type="curve" smooth="yes"/>
      <point x="716" y="770"/>
      <point x="804" y="657"/>
      <point x="804" y="523" type="curve" smooth="yes"/>
      <point x="804" y="379"/>
      <point x="738" y="281"/>
      <point x="594" y="245" type="curve"/>
    </contour>
    <contour>
      <point x="774" y="-160" type="curve"/>
      <point x="815" y="-160"/>
      <point x="941" y="-160"/>
      <point x="982" y="-160" type="curve"/>
      <point x="982" y="35"/>
      <point x="886" y="220"/>
      <point x="587" y="252" type="curve" smooth="yes"/>
      <point x="414" y="270"/>
      <point x="326" y="383"/>
      <point x="326" y="517" type="curve" smooth="yes"/>
      <point x="326" y="651"/>
      <point x="383" y="756"/>
      <point x="536" y="795" type="curve"/>
      <point x="500" y="952" type="line"/>
      <point x="277" y="903"/>
      <point x="118" y="733"/>
      <point x="118" y="516" type="curve"/>
      <point x="118" y="294"/>
      <point x="284" y="95"/>
      <point x="561" y="66" type="curve" smooth="yes"/>
      <point x="757" y="46"/>
      <point x="774" y="-50"/>
    </contour>
    <contour>
      <point x="148" y="1200" type="line"/>
      <point x="356" y="1200" type="line"/>
      <point x="356" y="1265" type="line" smooth="yes"/>
      <point x="356" y="1329"/>
      <point x="381" y="1374"/>
      <point x="432" y="1374" type="curve" smooth="yes"/>
      <point x="527" y="1374" type="line"/>
      <point x="527" y="1562" type="line"/>
      <point x="401" y="1562" type="line" smooth="yes"/>
      <point x="248" y="1562"/>
      <point x="148" y="1462"/>
      <point x="148" y="1276" type="curve" smooth="yes"/>
    </contour>
    <contour>
      <point x="774" y="1200" type="line"/>
      <point x="982" y="1200" type="line"/>
      <point x="982" y="1276" type="line" smooth="yes"/>
      <point x="982" y="1462"/>
      <point x="883" y="1562"/>
      <point x="729" y="1562" type="curve" smooth="yes"/>
      <point x="503" y="1562" type="line"/>
      <point x="503" y="1374" type="line"/>
      <point x="698" y="1374" type="line" smooth="yes"/>
      <point x="749" y="1374"/>
      <point x="774" y="1329"/>
      <point x="774" y="1266" type="curve" smooth="yes"/>
    </contour>
    <contour>
      <point x="603" y="-525" type="line"/>
      <point x="729" y="-525" type="line" smooth="yes"/>
      <point x="882" y="-525"/>
      <point x="982" y="-425"/>
      <point x="982" y="-239" type="curve" smooth="yes"/>
      <point x="982" y="-160" type="line"/>
      <point x="774" y="-160" type="line"/>
      <point x="774" y="-228" type="line" smooth="yes"/>
      <point x="774" y="-292"/>
      <point x="749" y="-337"/>
      <point x="698" y="-337" type="curve" smooth="yes"/>
      <point x="603" y="-337" type="line"/>
    </contour>
    <contour>
      <point x="401" y="-525" type="curve" smooth="yes"/>
      <point x="627" y="-525" type="line"/>
      <point x="627" y="-337" type="line"/>
      <point x="432" y="-337" type="line" smooth="yes"/>
      <point x="381" y="-337"/>
      <point x="356" y="-292"/>
      <point x="356" y="-229" type="curve" smooth="yes"/>
      <point x="356" y="-160" type="line"/>
      <point x="148" y="-160" type="line"/>
      <point x="148" y="-239" type="line" smooth="yes"/>
      <point x="148" y="-425"/>
      <point x="247" y="-525"/>
    </contour>
  </outline>
</glyph>
<glyph name="copyright" format="2">
  <advance width="1220"/>
  <unicode hex="00A9"/>
  <outline>
    <contour>
      <point x="863" y="-12" type="curve" smooth="yes"/>
      <point x="1270" y="-12"/>
      <point x="1597" y="314"/>
      <point x="1597" y="722" type="curve" smooth="yes"/>
      <point x="1597" y="1129"/>
      <point x="1270" y="1458"/>
      <point x="863" y="1458" type="curve" smooth="yes"/>
      <point x="455" y="1458"/>
      <point x="128" y="1129"/>
      <point x="128" y="722" type="curve" smooth="yes"/>
      <point x="128" y="314"/>
      <point x="455" y="-12"/>
    </contour>
    <contour>
      <point x="841" y="262" type="curve" smooth="yes"/>
      <point x="863" y="262" type="line" smooth="yes"/>
      <point x="1046" y="262"/>
      <point x="1137" y="400"/>
      <point x="1137" y="515" type="curve" smooth="yes"/>
      <point x="1137" y="522" type="line"/>
      <point x="1027" y="522" type="line"/>
      <point x="1027" y="515" type="line" smooth="yes"/>
      <point x="1027" y="458"/>
      <point x="990" y="366"/>
      <point x="860" y="366" type="curve" smooth="yes"/>
      <point x="844" y="366" type="line" smooth="yes"/>
      <point x="696" y="366"/>
      <point x="644" y="485"/>
      <point x="644" y="716" type="curve" smooth="yes"/>
      <point x="644" y="736" type="line" smooth="yes"/>
      <point x="644" y="967"/>
      <point x="696" y="1080"/>
      <point x="844" y="1080" type="curve" smooth="yes"/>
      <point x="860" y="1080" type="line" smooth="yes"/>
      <point x="990" y="1080"/>
      <point x="1027" y="995"/>
      <point x="1027" y="938" type="curve" smooth="yes"/>
      <point x="1027" y="931" type="line"/>
      <point x="1137" y="931" type="line"/>
      <point x="1137" y="938" type="line" smooth="yes"/>
      <point x="1137" y="1058"/>
      <point x="1046" y="1184"/>
      <point x="863" y="1184" type="curve" smooth="yes"/>
      <point x="841" y="1184" type="line" smooth="yes"/>
      <point x="640" y="1184"/>
      <point x="537" y="1037"/>
      <point x="537" y="743" type="curve" smooth="yes"/>
      <point x="537" y="710" type="line" smooth="yes"/>
      <point x="537" y="416"/>
      <point x="640" y="262"/>
    </contour>
    <contour>
      <point x="863" y="91" type="curve" smooth="yes"/>
      <point x="512" y="91"/>
      <point x="231" y="371"/>
      <point x="231" y="722" type="curve" smooth="yes"/>
      <point x="231" y="1072"/>
      <point x="512" y="1355"/>
      <point x="863" y="1355" type="curve" smooth="yes"/>
      <point x="1213" y="1355"/>
      <point x="1494" y="1072"/>
      <point x="1494" y="722" type="curve" smooth="yes"/>
      <point x="1494" y="371"/>
      <point x="1213" y="91"/>
    </contour>
  </outline>
</glyph>
<glyph name="ordfeminine" format="2">
  <advance width="590"/>
  <unicode hex="00AA"/>
  <outline>
    <contour>
      <point x="342" y="1189" type="line"/>
      <point x="469" y="1189" type="line"/>
      <point x="469" y="1295" type="line" smooth="yes"/>
      <point x="469" y="1387"/>
      <point x="396" y="1458"/>
      <point x="275" y="1458" type="curve" smooth="yes"/>
      <point x="132" y="1458"/>
      <point x="67" y="1387"/>
      <point x="67" y="1294" type="curve" smooth="yes"/>
      <point x="67" y="1291" type="line"/>
      <point x="192" y="1291" type="line"/>
      <point x="192" y="1294" type="line" smooth="yes"/>
      <point x="192" y="1316"/>
      <point x="207" y="1344"/>
      <point x="273" y="1344" type="curve" smooth="yes"/>
      <point x="335" y="1344"/>
      <point x="342" y="1313"/>
      <point x="342" y="1269" type="curve" smooth="yes"/>
    </contour>
    <contour>
      <point x="54" y="724" type="line"/>
      <point x="536" y="724" type="line"/>
      <point x="536" y="851" type="line"/>
      <point x="54" y="851" type="line"/>
    </contour>
    <contour>
      <point x="226" y="927" type="curve"/>
      <point x="302" y="927"/>
      <point x="399" y="1031"/>
      <point x="423" y="1114" type="curve"/>
      <point x="342" y="1103" type="line"/>
      <point x="322" y="1064"/>
      <point x="285" y="1041"/>
      <point x="239" y="1041" type="curve" smooth="yes"/>
      <point x="197" y="1041"/>
      <point x="181" y="1061"/>
      <point x="181" y="1087" type="curve" smooth="yes"/>
      <point x="181" y="1091" type="line"/>
      <point x="54" y="1091" type="line"/>
      <point x="54" y="1087" type="line" smooth="yes"/>
      <point x="54" y="994"/>
      <point x="116" y="927"/>
    </contour>
    <contour>
      <point x="54" y="1089" type="line"/>
      <point x="181" y="1089" type="line"/>
      <point x="181" y="1093" type="line"/>
      <point x="181" y="1114"/>
      <point x="200" y="1144"/>
      <point x="251" y="1144" type="curve" smooth="yes"/>
      <point x="259" y="1144" type="line"/>
      <point x="259" y="1250" type="line"/>
      <point x="246" y="1250" type="line" smooth="yes"/>
      <point x="104" y="1250"/>
      <point x="54" y="1159"/>
      <point x="54" y="1093" type="curve"/>
    </contour>
    <contour>
      <point x="414" y="933" type="line"/>
      <point x="536" y="933" type="line"/>
      <point x="536" y="1047" type="line"/>
      <point x="414" y="1047" type="line"/>
    </contour>
    <contour>
      <point x="342" y="933" type="line"/>
      <point x="469" y="933" type="line"/>
      <point x="469" y="1202" type="line"/>
      <point x="342" y="1202" type="line"/>
    </contour>
    <contour>
      <point x="253" y="1144" type="line"/>
      <point x="430" y="1144" type="line"/>
      <point x="430" y="1250" type="line"/>
      <point x="253" y="1250" type="line"/>
    </contour>
  </outline>
</glyph>
<glyph name="logicalnot" format="2">
  <advance width="1180"/>
  <unicode hex="00AC"/>
  <outline>
    <contour>
      <point x="160" y="628" type="line"/>
      <point x="1020" y="628" type="line"/>
      <point x="1020" y="816" type="line"/>
      <point x="160" y="816" type="line"/>
    </contour>
    <contour>
      <point x="832" y="413" type="line"/>
      <point x="1020" y="413" type="line"/>
      <point x="1020" y="722" type="line"/>
      <point x="832" y="722" type="line"/>
    </contour>
  </outline>
</glyph>
<glyph name="registered" format="2">
  <advance width="1725"/>
  <unicode hex="00AE"/>
  <outline>
    <contour>
      <point x="863" y="-12" type="curve" smooth="yes"/>
      <point x="1275" y="-12"/>
      <point x="1607" y="319"/>
      <point x="1607" y="732" type="curve" smooth="yes"/>
      <point x="1607" y="1144"/>
      <point x="1275" y="1478"/>
      <point x="863" y="1478" type="curve" smooth="yes"/>
      <point x="450" y="1478"/>
      <point x="118" y="1144"/>
      <point x="118" y="732" type="curve" smooth="yes"/>
      <point x="118" y="319"/>
      <point x="450" y="-12"/>
    </contour>
    <contour>
      <point x="541" y="289" type="line"/>
      <point x="855" y="289" type="line"/>
      <point x="855" y="447" type="line"/>
      <point x="541" y="447" type="line"/>
    </contour>
    <contour>
      <point x="617" y="289" type="line"/>
      <point x="779" y="289" type="line"/>
      <point x="779" y="622" type="line"/>
      <point x="617" y="622" type="line"/>
    </contour>
    <contour>
      <point x="617" y="606" type="line"/>
      <point x="779" y="606" type="line"/>
      <point x="779" y="922" type="line"/>
      <point x="617" y="922" type="line"/>
    </contour>
    <contour>
      <point x="1093" y="289" type="line"/>
      <point x="1225" y="289" type="line"/>
      <point x="1225" y="447" type="line"/>
      <point x="1093" y="447" type="line"/>
    </contour>
    <contour>
      <point x="1046" y="289" type="line"/>
      <point x="1146" y="289" type="line"/>
      <point x="1146" y="447" type="line"/>
      <point x="983" y="746" type="line"/>
      <point x="824" y="746" type="line"/>
      <point x="824" y="713" type="line"/>
    </contour>
    <contour>
      <point x="863" y="138" type="curve" smooth="yes"/>
      <point x="522" y="138"/>
      <point x="268" y="391"/>
      <point x="268" y="732" type="curve" smooth="yes"/>
      <point x="268" y="1072"/>
      <point x="522" y="1328"/>
      <point x="863" y="1328" type="curve" smooth="yes"/>
      <point x="1203" y="1328"/>
      <point x="1457" y="1072"/>
      <point x="1457" y="732" type="curve" smooth="yes"/>
      <point x="1457" y="391"/>
      <point x="1203" y="138"/>
    </contour>
    <contour>
      <point x="617" y="814" type="line"/>
      <point x="779" y="814" type="line"/>
      <point x="779" y="1176" type="line"/>
      <point x="617" y="1176" type="line"/>
    </contour>
    <contour>
      <point x="695" y="646" type="line"/>
      <point x="868" y="646" type="line" smooth="yes"/>
      <point x="1076" y="646"/>
      <point x="1168" y="779"/>
      <point x="1168" y="908" type="curve" smooth="yes"/>
      <point x="1168" y="927" type="line"/>
      <point x="1006" y="927" type="line"/>
      <point x="1006" y="914" type="line" smooth="yes"/>
      <point x="1006" y="842"/>
      <point x="968" y="804"/>
      <point x="865" y="804" type="curve" smooth="yes"/>
      <point x="695" y="804" type="line"/>
    </contour>
    <contour>
      <point x="541" y="1018" type="line"/>
      <point x="695" y="1018" type="line"/>
      <point x="695" y="1176" type="line"/>
      <point x="541" y="1176" type="line"/>
    </contour>
    <contour>
      <point x="1006" y="921" type="line"/>
      <point x="1168" y="921" type="line"/>
      <point x="1168" y="940" type="line" smooth="yes"/>
      <point x="1168" y="1069"/>
      <point x="1076" y="1176"/>
      <point x="868" y="1176" type="curve" smooth="yes"/>
      <point x="695" y="1176" type="line"/>
      <point x="695" y="1018" type="line"/>
      <point x="865" y="1018" type="line" smooth="yes"/>
      <point x="964" y="1018"/>
      <point x="1006" y="994"/>
      <point x="1006" y="934" type="curve" smooth="yes"/>
    </contour>
  </outline>
</glyph>
<glyph name="macron" format="2">
  <unicode hex="00AF"/>
  <outline>
    <contour>
      <point x="155" y="1259" type="line"/>
      <point x="865" y="1259" type="line"/>
      <point x="865" y="1383" type="line"/>
      <point x="155" y="1383" type="line"/>
    </contour>
  </outline>
</glyph>
<glyph name="degree" format="2">
  <advance width="801"/>
  <unicode hex="00B0"/>
  <outline>
    <contour>
      <point x="86" y="1260" type="curve" smooth="yes"/>
      <point x="86" y="1087"/>
      <point x="228" y="946"/>
      <point x="401" y="946" type="curve" smooth="yes"/>
      <point x="573" y="946"/>
      <point x="713" y="1088"/>
      <point x="715" y="1260" type="curve" smooth="yes"/>
      <point x="713" y="1432"/>
      <point x="573" y="1574"/>
      <point x="401" y="1574" type="curve" smooth="yes"/>
      <point x="228" y="1574"/>
      <point x="86" y="1432"/>
    </contour>
    <contour>
      <point x="246" y="1260" type="curve" smooth="yes"/>
      <point x="247" y="1345"/>
      <point x="315" y="1414"/>
      <point x="401" y="1414" type="curve" smooth="yes"/>
      <point x="486" y="1414"/>
      <point x="555" y="1345"/>
      <point x="555" y="1260" type="curve" smooth="yes"/>
      <point x="555" y="1174"/>
      <point x="486" y="1106"/>
      <point x="401" y="1106" type="curve" smooth="yes"/>
      <point x="315" y="1107"/>
      <point x="246" y="1174"/>
    </contour>
  </outline>
</glyph>
<glyph name="plusminus" format="2">
  <advance width="1180"/>
  <unicode hex="00B1"/>
  <outline>
    <contour>
      <point x="150" y="845" type="line"/>
      <point x="1030" y="845" type="line"/>
      <point x="1030" y="1033" type="line"/>
      <point x="150" y="1033" type="line"/>
    </contour>
    <contour>
      <point x="496" y="559" type="line"/>
      <point x="684" y="559" type="line"/>
      <point x="684" y="1319" type="line"/>
      <point x="496" y="1319" type="line"/>
    </contour>
    <contour>
      <point x="150" y="249" type="line"/>
      <point x="1030" y="249" type="line"/>
      <point x="1030" y="437" type="line"/>
      <point x="150" y="437" type="line"/>
    </contour>
  </outline>
</glyph>
<glyph name="twosuperior" format="2">
  <advance width="600"/>
  <unicode hex="00B2"/>
  <outline>
    <contour>
      <point x="77" y="729" type="line"/>
      <point x="127" y="729" type="line"/>
      <point x="336" y="961" type="line" smooth="yes"/>
      <point x="478" y="1119"/>
      <point x="514" y="1177"/>
      <point x="514" y="1266" type="curve" smooth="yes"/>
      <point x="514" y="1370"/>
      <point x="438" y="1458"/>
      <point x="301" y="1458" type="curve" smooth="yes"/>
      <point x="208" y="1458"/>
      <point x="117" y="1408"/>
      <point x="72" y="1338" type="curve"/>
      <point x="151" y="1241" type="line"/>
      <point x="184" y="1293"/>
      <point x="229" y="1318"/>
      <point x="284" y="1318" type="curve" smooth="yes"/>
      <point x="331" y="1318"/>
      <point x="362" y="1285"/>
      <point x="362" y="1246" type="curve" smooth="yes"/>
      <point x="362" y="1197"/>
      <point x="333" y="1148"/>
      <point x="238" y="1041" type="curve" smooth="yes"/>
      <point x="77" y="859" type="line"/>
    </contour>
    <contour>
      <point x="77" y="729" type="line"/>
      <point x="529" y="729" type="line"/>
      <point x="529" y="859" type="line"/>
      <point x="77" y="859" type="line"/>
    </contour>
  </outline>
</glyph>
<glyph name="threesuperior" format="2">
  <advance width="600"/>
  <unicode hex="00B3"/>
  <outline>
    <contour>
      <point x="98" y="1374" type="curve"/>
      <point x="186" y="1275" type="line"/>
      <point x="215" y="1307"/>
      <point x="251" y="1328"/>
      <point x="286" y="1328" type="curve" smooth="yes"/>
      <point x="320" y="1328"/>
      <point x="365" y="1307"/>
      <point x="365" y="1256" type="curve" smooth="yes"/>
      <point x="365" y="1220"/>
      <point x="348" y="1172"/>
      <point x="273" y="1172" type="curve"/>
      <point x="331" y="1067" type="line"/>
      <point x="439" y="1087"/>
      <point x="509" y="1186"/>
      <point x="509" y="1276" type="curve" smooth="yes"/>
      <point x="509" y="1374"/>
      <point x="435" y="1458"/>
      <point x="300" y="1458" type="curve" smooth="yes"/>
      <point x="211" y="1458"/>
      <point x="136" y="1412"/>
    </contour>
    <contour>
      <point x="174" y="946" type="curve"/>
      <point x="59" y="884" type="line"/>
      <point x="99" y="784"/>
      <point x="182" y="723"/>
      <point x="300" y="723" type="curve" smooth="yes"/>
      <point x="443" y="723"/>
      <point x="532" y="821"/>
      <point x="532" y="937" type="curve" smooth="yes"/>
      <point x="532" y="1054"/>
      <point x="450" y="1172"/>
      <point x="298" y="1172" type="curve" smooth="yes"/>
      <point x="288" y="1172"/>
      <point x="226" y="1172"/>
      <point x="217" y="1172" type="curve"/>
      <point x="217" y="1052" type="line"/>
      <point x="226" y="1052"/>
      <point x="280" y="1052"/>
      <point x="288" y="1052" type="curve" smooth="yes"/>
      <point x="344" y="1052"/>
      <point x="388" y="1017"/>
      <point x="388" y="947" type="curve" smooth="yes"/>
      <point x="388" y="898"/>
      <point x="343" y="853"/>
      <point x="290" y="853" type="curve" smooth="yes"/>
      <point x="233" y="853"/>
      <point x="198" y="882"/>
    </contour>
  </outline>
</glyph>
<glyph name="micro" format="2">
  <advance width="1064"/>
  <unicode hex="00B5"/>
  <outline>
    <component base="_latstemSE" xOffset="-84"/>
    <component base="_lathalfserifSE" xOffset="-84"/>
    <component base="_latstemNE" xOffset="-84"/>
    <component base="_latstemSW" xOffset="-84"/>
    <component base="_latstemNW" xOffset="-84"/>
    <component base="_latstemdescW" xOffset="-84"/>
    <contour>
      <point x="466" y="-12" type="curve" smooth="yes"/>
      <point x="667" y="-12"/>
      <point x="796" y="285"/>
      <point x="842" y="415" type="curve"/>
      <point x="730" y="414" type="line"/>
      <point x="713" y="356"/>
      <point x="619" y="176"/>
      <point x="466" y="176" type="curve" smooth="yes"/>
      <point x="381" y="176"/>
      <point x="306" y="305"/>
      <point x="306" y="430" type="curve" smooth="yes"/>
      <point x="306" y="502" type="line"/>
      <point x="104" y="502" type="line"/>
      <point x="104" y="480" type="line" smooth="yes"/>
      <point x="104" y="277"/>
      <point x="321" y="-12"/>
    </contour>
  </outline>
</glyph>
<glyph name="paragraph" format="2">
  <advance width="1350"/>
  <unicode hex="00B6"/>
  <outline>
    <component base="_latstemdescW" xOffset="476"/>
    <component base="_latstemdescW" xOffset="772"/>
    <component base="_latstemSW" xOffset="476"/>
    <component base="_latstemSW" xOffset="772"/>
    <component base="_latstemNW" xOffset="476"/>
    <component base="_latstemNW" xOffset="772"/>
    <component base="_latstemascW" xOffset="476" yOffset="-128"/>
    <component base="_latstemascW" xOffset="772" yOffset="-128"/>
    <contour>
      <point x="601" y="568" type="curve" smooth="yes"/>
      <point x="740" y="568" type="line"/>
      <point x="740" y="756" type="line"/>
      <point x="607" y="756" type="line" smooth="yes"/>
      <point x="424" y="756"/>
      <point x="306" y="850"/>
      <point x="306" y="1005" type="curve" smooth="yes"/>
      <point x="306" y="1027" type="line"/>
      <point x="98" y="1027" type="line"/>
      <point x="98" y="995" type="line" smooth="yes"/>
      <point x="98" y="762"/>
      <point x="278" y="568"/>
    </contour>
    <contour>
      <point x="524" y="-512" type="line"/>
      <point x="1296" y="-512" type="line"/>
      <point x="1296" y="-388" type="line"/>
      <point x="524" y="-388" type="line"/>
    </contour>
    <contour>
      <point x="98" y="1017" type="line"/>
      <point x="306" y="1017" type="line"/>
      <point x="306" y="1038" type="line" smooth="yes"/>
      <point x="306" y="1193"/>
      <point x="424" y="1258"/>
      <point x="607" y="1258" type="curve" smooth="yes"/>
      <point x="740" y="1258" type="line"/>
      <point x="740" y="1446" type="line"/>
      <point x="601" y="1446" type="line" smooth="yes"/>
      <point x="278" y="1446"/>
      <point x="98" y="1282"/>
      <point x="98" y="1049" type="curve" smooth="yes"/>
    </contour>
    <contour>
      <point x="748" y="1258" type="line"/>
      <point x="1296" y="1258" type="line"/>
      <point x="1296" y="1446" type="line"/>
      <point x="748" y="1446" type="line"/>
    </contour>
  </outline>
</glyph>
<glyph name="onesuperior" format="2">
  <advance width="600"/>
  <unicode hex="00B9"/>
  <outline>
    <contour>
      <point x="71" y="1166" type="line"/>
      <point x="242" y="1302" type="line"/>
      <point x="374" y="1302" type="line"/>
      <point x="374" y="1458" type="line"/>
      <point x="238" y="1458" type="line"/>
      <point x="71" y="1324" type="line"/>
    </contour>
    <contour>
      <point x="71" y="729" type="line"/>
      <point x="528" y="729" type="line"/>
      <point x="528" y="859" type="line"/>
      <point x="71" y="859" type="line"/>
    </contour>
    <contour>
      <point x="230" y="729" type="line"/>
      <point x="374" y="729" type="line"/>
      <point x="374" y="1405" type="line"/>
      <point x="230" y="1405" type="line"/>
    </contour>
  </outline>
</glyph>
<glyph name="ordmasculine" format="2">
  <advance width="590"/>
  <unicode hex="00BA"/>
  <outline>
    <contour>
      <point x="283" y="927" type="curve" smooth="yes"/>
      <point x="307" y="927" type="line" smooth="yes"/>
      <point x="419" y="927"/>
      <point x="536" y="1029"/>
      <point x="536" y="1181" type="curve" smooth="yes"/>
      <point x="536" y="1210" type="line" smooth="yes"/>
      <point x="536" y="1362"/>
      <point x="419" y="1458"/>
      <point x="307" y="1458" type="curve" smooth="yes"/>
      <point x="283" y="1458" type="line" smooth="yes"/>
      <point x="172" y="1458"/>
      <point x="54" y="1362"/>
      <point x="54" y="1210" type="curve" smooth="yes"/>
      <point x="54" y="1181" type="line" smooth="yes"/>
      <point x="54" y="1029"/>
      <point x="172" y="927"/>
    </contour>
    <contour>
      <point x="288" y="1051" type="line" smooth="yes"/>
      <point x="229" y="1051"/>
      <point x="181" y="1104"/>
      <point x="181" y="1186" type="curve" smooth="yes"/>
      <point x="181" y="1205" type="line" smooth="yes"/>
      <point x="181" y="1287"/>
      <point x="229" y="1334"/>
      <point x="288" y="1334" type="curve" smooth="yes"/>
      <point x="302" y="1334" type="line" smooth="yes"/>
      <point x="361" y="1334"/>
      <point x="409" y="1287"/>
      <point x="409" y="1205" type="curve" smooth="yes"/>
      <point x="409" y="1186" type="line" smooth="yes"/>
      <point x="409" y="1104"/>
      <point x="361" y="1051"/>
      <point x="302" y="1051" type="curve" smooth="yes"/>
    </contour>
    <contour>
      <point x="54" y="724" type="line"/>
      <point x="536" y="724" type="line"/>
      <point x="536" y="851" type="line"/>
      <point x="54" y="851" type="line"/>
    </contour>
  </outline>
</glyph>
<glyph name="AE" format="2">
  <advance width="1812"/>
  <unicode hex="00C6"/>
  <anchor x="991" y="1460" name="U"/>
  <outline>
    <component base="_latserifSW" xOffset="-16"/>
    <component base="_latserifSW" xOffset="706"/>
    <component base="_latstemSW" xOffset="706"/>
    <component base="_latstemNW" xOffset="706"/>
    <component base="_latstemascW" xOffset="706" yOffset="-128"/>
    <contour>
      <point x="101" y="0" type="line"/>
      <point x="295" y="0" type="line"/>
      <point x="828" y="1372" type="line"/>
      <point x="662" y="1446" type="line"/>
    </contour>
    <contour>
      <point x="400" y="430" type="line"/>
      <point x="956" y="430" type="line"/>
      <point x="956" y="618" type="line"/>
      <point x="400" y="618" type="line"/>
    </contour>
    <contour>
      <point x="978" y="0" type="line"/>
      <point x="1654" y="0" type="line"/>
      <point x="1654" y="188" type="line"/>
      <point x="978" y="188" type="line"/>
    </contour>
    <contour>
      <point x="1510" y="0" type="line"/>
      <point x="1698" y="0" type="line"/>
      <point x="1698" y="336" type="line"/>
      <point x="1510" y="336" type="line"/>
    </contour>
    <contour>
      <point x="978" y="648" type="line"/>
      <point x="1484" y="648" type="line"/>
      <point x="1484" y="836" type="line"/>
      <point x="978" y="836" type="line"/>
    </contour>
    <contour>
      <point x="1340" y="514" type="line"/>
      <point x="1520" y="514" type="line"/>
      <point x="1520" y="970" type="line"/>
      <point x="1340" y="970" type="line"/>
    </contour>
    <contour>
      <point x="662" y="1258" type="line"/>
      <point x="1624" y="1258" type="line"/>
      <point x="1624" y="1446" type="line"/>
      <point x="662" y="1446" type="line"/>
    </contour>
    <contour>
      <point x="1510" y="1126" type="line"/>
      <point x="1698" y="1126" type="line"/>
      <point x="1698" y="1446" type="line"/>
      <point x="1510" y="1446" type="line"/>
    </contour>
  </outline>
</glyph>
<glyph name="Eth" format="2">
  <advance width="1234"/>
  <unicode hex="00D0"/>
  <outline>
    <component base="D"/>
    <contour>
      <point x="64" y="648" type="line"/>
      <point x="640" y="648" type="line"/>
      <point x="640" y="836" type="line"/>
      <point x="64" y="836" type="line"/>
    </contour>
  </outline>
</glyph>
<glyph name="multiply" format="2">
  <advance width="1270"/>
  <unicode hex="00D7"/>
  <outline>
    <contour>
      <point x="839" y="269" type="line"/>
      <point x="98" y="1175" type="line"/>
      <point x="257" y="1175" type="line"/>
      <point x="998" y="269" type="line"/>
    </contour>
    <contour>
      <point x="98" y="269" type="line"/>
      <point x="839" y="1175" type="line"/>
      <point x="998" y="1175" type="line"/>
      <point x="257" y="269" type="line"/>
    </contour>
  </outline>
</glyph>
<glyph name="Oslash" format="2">
  <advance width="1232"/>
  <unicode hex="00D8"/>
  <outline>
    <component base="O"/>
    <contour>
      <point x="295" y="-60" type="line"/>
      <point x="1118" y="1508" type="line"/>
      <point x="937" y="1508" type="line"/>
      <point x="114" y="-60" type="line"/>
    </contour>
  </outline>
</glyph>
<glyph name="Thorn" format="2">
  <advance width="1128"/>
  <unicode hex="00DE"/>
  <outline>
    <component base="_latserifSW" xOffset="16"/>
    <component base="_latstemSW" xOffset="16"/>
    <component base="_latstemNW" xOffset="16"/>
    <component base="_latstemascW" xOffset="16" yOffset="-128"/>
    <component base="_latserifNW" xOffset="16" yOffset="408"/>
    <contour>
      <point x="288" y="318" type="line"/>
      <point x="527" y="318" type="line" smooth="yes"/>
      <point x="870" y="318"/>
      <point x="1030" y="496"/>
      <point x="1030" y="711" type="curve" smooth="yes"/>
      <point x="1030" y="743" type="line"/>
      <point x="822" y="743" type="line"/>
      <point x="822" y="721" type="line" smooth="yes"/>
      <point x="822" y="608"/>
      <point x="744" y="506"/>
      <point x="521" y="506" type="curve" smooth="yes"/>
      <point x="288" y="506" type="line"/>
    </contour>
    <contour>
      <point x="822" y="733" type="line"/>
      <point x="1030" y="733" type="line"/>
      <point x="1030" y="765" type="line" smooth="yes"/>
      <point x="1030" y="980"/>
      <point x="870" y="1128"/>
      <point x="527" y="1128" type="curve" smooth="yes"/>
      <point x="288" y="1128" type="line"/>
      <point x="288" y="940" type="line"/>
      <point x="521" y="940" type="line" smooth="yes"/>
      <point x="744" y="940"/>
      <point x="822" y="867"/>
      <point x="822" y="754" type="curve" smooth="yes"/>
    </contour>
  </outline>
</glyph>
<glyph name="germandbls" format="2">
  <advance width="1128"/>
  <unicode hex="00DF"/>
  <outline>
    <component base="_latstemSW"/>
    <component base="_latstemNW"/>
    <contour>
      <point x="484" y="0" type="line"/>
      <point x="565" y="0" type="line" smooth="yes"/>
      <point x="868" y="0"/>
      <point x="1030" y="199"/>
      <point x="1030" y="476" type="curve" smooth="yes"/>
      <point x="1030" y="493" type="line"/>
      <point x="822" y="493" type="line"/>
      <point x="822" y="476" type="line" smooth="yes"/>
      <point x="822" y="282"/>
      <point x="725" y="188"/>
      <point x="559" y="188" type="curve" smooth="yes"/>
      <point x="484" y="188" type="line"/>
    </contour>
    <contour>
      <point x="48" y="0" type="line"/>
      <point x="271" y="0" type="line"/>
      <point x="271" y="188" type="line"/>
      <point x="48" y="188" type="line"/>
    </contour>
    <contour>
      <point x="822" y="483" type="line"/>
      <point x="1030" y="483" type="line"/>
      <point x="1030" y="499" type="line" smooth="yes"/>
      <point x="1030" y="766"/>
      <point x="830" y="968"/>
      <point x="568" y="968" type="curve" smooth="yes"/>
      <point x="504" y="968" type="line"/>
      <point x="504" y="780" type="line"/>
      <point x="567" y="780" type="line" smooth="yes"/>
      <point x="689" y="780"/>
      <point x="822" y="703"/>
      <point x="822" y="499" type="curve" smooth="yes"/>
    </contour>
    <contour>
      <point x="182" y="973" type="line"/>
      <point x="390" y="973" type="line"/>
      <point x="390" y="1095" type="line" smooth="yes"/>
      <point x="390" y="1270"/>
      <point x="431" y="1386"/>
      <point x="572" y="1386" type="curve" smooth="yes"/>
      <point x="592" y="1386" type="line"/>
      <point x="592" y="1574" type="line"/>
      <point x="551" y="1574" type="line" smooth="yes"/>
      <point x="311" y="1574"/>
      <point x="182" y="1389"/>
      <point x="182" y="1105" type="curve" smooth="yes"/>
    </contour>
    <contour>
      <point x="484" y="780" type="line"/>
      <point x="533" y="780" type="line" smooth="yes"/>
      <point x="686" y="780"/>
      <point x="960" y="934"/>
      <point x="960" y="1181" type="curve" smooth="yes"/>
      <point x="960" y="1198" type="line"/>
      <point x="752" y="1198" type="line"/>
      <point x="752" y="1181" type="line" smooth="yes"/>
      <point x="752" y="1027"/>
      <point x="640" y="968"/>
      <point x="547" y="968" type="curve" smooth="yes"/>
      <point x="484" y="968" type="line"/>
    </contour>
    <contour>
      <point x="752" y="1188" type="line"/>
      <point x="960" y="1188" type="line"/>
      <point x="960" y="1204" type="line" smooth="yes"/>
      <point x="960" y="1371"/>
      <point x="850" y="1574"/>
      <point x="607" y="1574" type="curve" smooth="yes"/>
      <point x="581" y="1574" type="line"/>
      <point x="581" y="1386" type="line"/>
      <point x="601" y="1386" type="line" smooth="yes"/>
      <point x="704" y="1386"/>
      <point x="752" y="1298"/>
      <point x="752" y="1204" type="curve" smooth="yes"/>
    </contour>
  </outline>
</glyph>
<glyph name="ae" format="2">
  <advance width="1583"/>
  <unicode hex="00E6"/>
  <anchor x="809" y="1100" name="U"/>
  <outline>
    <component base="e" xOffset="586"/>
    <contour>
      <point x="684" y="512" type="line"/>
      <point x="892" y="512" type="line"/>
      <point x="892" y="694" type="line" smooth="yes"/>
      <point x="892" y="931"/>
      <point x="765" y="1050"/>
      <point x="514" y="1050" type="curve" smooth="yes"/>
      <point x="232" y="1050"/>
      <point x="126" y="868"/>
      <point x="126" y="712" type="curve" smooth="yes"/>
      <point x="126" y="705" type="line"/>
      <point x="339" y="705" type="line"/>
      <point x="339" y="712" type="line" smooth="yes"/>
      <point x="339" y="773"/>
      <point x="370" y="862"/>
      <point x="514" y="862" type="curve" smooth="yes"/>
      <point x="655" y="862"/>
      <point x="684" y="805"/>
      <point x="684" y="682" type="curve" smooth="yes"/>
    </contour>
    <contour>
      <point x="390" y="-12" type="curve" smooth="yes"/>
      <point x="591" y="-12"/>
      <point x="766" y="169"/>
      <point x="812" y="379" type="curve"/>
      <point x="697" y="378" type="line"/>
      <point x="660" y="272"/>
      <point x="563" y="176"/>
      <point x="430" y="176" type="curve" smooth="yes"/>
      <point x="325" y="176"/>
      <point x="306" y="249"/>
      <point x="306" y="302" type="curve" smooth="yes"/>
      <point x="306" y="310" type="line"/>
      <point x="98" y="310" type="line"/>
      <point x="98" y="300" type="line" smooth="yes"/>
      <point x="98" y="187"/>
      <point x="165" y="-12"/>
    </contour>
    <contour>
      <point x="98" y="302" type="line"/>
      <point x="306" y="302" type="line"/>
      <point x="306" y="309" type="line"/>
      <point x="306" y="390"/>
      <point x="350" y="465"/>
      <point x="472" y="465" type="curve" smooth="yes"/>
      <point x="488" y="465" type="line"/>
      <point x="488" y="637" type="line"/>
      <point x="461" y="637" type="line" smooth="yes"/>
      <point x="208" y="637"/>
      <point x="98" y="476"/>
      <point x="98" y="310" type="curve"/>
    </contour>
    <contour>
      <point x="479" y="465" type="line"/>
      <point x="823" y="465" type="line"/>
      <point x="823" y="637" type="line"/>
      <point x="479" y="637" type="line"/>
    </contour>
  </outline>
</glyph>
<glyph name="eth" format="2">
  <advance width="1000"/>
  <unicode hex="00F0"/>
  <outline>
    <contour>
      <point x="694" y="672" type="line"/>
      <point x="902" y="672" type="line"/>
      <point x="902" y="710" type="line" smooth="yes"/>
      <point x="902" y="1213"/>
      <point x="655" y="1475"/>
      <point x="216" y="1574" type="curve"/>
      <point x="174" y="1413" type="line"/>
      <point x="532" y="1325"/>
      <point x="694" y="1144"/>
      <point x="694" y="699" type="curve" smooth="yes"/>
    </contour>
    <contour>
      <point x="466" y="-12" type="curve" smooth="yes"/>
      <point x="492" y="-12" type="line"/>
      <point x="492" y="176" type="line"/>
      <point x="476" y="176" type="line" smooth="yes"/>
      <point x="358" y="176"/>
      <point x="306" y="271"/>
      <point x="306" y="506" type="curve" smooth="yes"/>
      <point x="306" y="528" type="line"/>
      <point x="98" y="528" type="line"/>
      <point x="98" y="496" type="line" smooth="yes"/>
      <point x="98" y="182"/>
      <point x="193" y="-12"/>
    </contour>
    <contour>
      <point x="488" y="-12" type="line"/>
      <point x="504" y="-12" type="line" smooth="yes"/>
      <point x="767" y="-12"/>
      <point x="902" y="162"/>
      <point x="902" y="616" type="curve" smooth="yes"/>
      <point x="902" y="688" type="line"/>
      <point x="694" y="688" type="line"/>
      <point x="694" y="626" type="line" smooth="yes"/>
      <point x="694" y="271"/>
      <point x="614" y="176"/>
      <point x="503" y="176" type="curve" smooth="yes"/>
      <point x="488" y="176" type="line"/>
    </contour>
    <contour>
      <point x="98" y="512" type="line"/>
      <point x="306" y="512" type="line"/>
      <point x="306" y="602" type="line" smooth="yes"/>
      <point x="306" y="787"/>
      <point x="375" y="862"/>
      <point x="470" y="862" type="curve" smooth="yes"/>
      <point x="593" y="862"/>
      <point x="657" y="788"/>
      <point x="694" y="700" type="curve"/>
      <point x="846" y="699" type="line"/>
      <point x="790" y="829"/>
      <point x="641" y="1050"/>
      <point x="450" y="1050" type="curve" smooth="yes"/>
      <point x="225" y="1050"/>
      <point x="98" y="867"/>
      <point x="98" y="614" type="curve" smooth="yes"/>
    </contour>
    <contour>
      <point x="292" y="1096" type="line"/>
      <point x="865" y="1442" type="line"/>
      <point x="774" y="1574" type="line"/>
      <point x="202" y="1228" type="line"/>
    </contour>
  </outline>
</glyph>
<glyph name="divide" format="2">
  <advance width="1158"/>
  <unicode hex="00F7"/>
  <outline>
    <contour>
      <point x="128" y="660" type="line"/>
      <point x="968" y="660" type="line"/>
      <point x="968" y="784" type="line"/>
      <point x="128" y="784" type="line"/>
    </contour>
    <contour>
      <point x="468" y="322" type="line"/>
      <point x="628" y="322" type="line"/>
      <point x="628" y="482" type="line"/>
      <point x="468" y="482" type="line"/>
    </contour>
    <contour>
      <point x="468" y="962" type="line"/>
      <point x="628" y="962" type="line"/>
      <point x="628" y="1122" type="line"/>
      <point x="468" y="1122" type="line"/>
    </contour>
  </outline>
</glyph>
<glyph name="oslash" format="2">
  <advance width="1020"/>
  <unicode hex="00F8"/>
  <outline>
    <component base="_latcirNE"/>
    <component base="_latcirNW"/>
    <component base="_latcirSE"/>
    <component base="_latcirSW"/>
    <contour>
      <point x="277" y="-110" type="line"/>
      <point x="919" y="1153" type="line"/>
      <point x="740" y="1153" type="line"/>
      <point x="98" y="-110" type="line"/>
    </contour>
  </outline>
</glyph>
<glyph name="idotless" format="2">
  <advance width="700"/>
  <unicode hex="0131"/>
  <anchor x="350" y="1100" name="U"/>
  <outline>
    <component base="_latstemSW" xOffset="64"/>
    <component base="_latstemNW" xOffset="64"/>
    <contour>
      <point x="96" y="0" type="line"/>
      <point x="604" y="0" type="line"/>
      <point x="604" y="188" type="line"/>
      <point x="96" y="188" type="line"/>
    </contour>
    <contour>
      <point x="96" y="850" type="line"/>
      <point x="336" y="850" type="line"/>
      <point x="336" y="1038" type="line"/>
      <point x="96" y="1038" type="line"/>
    </contour>
  </outline>
</glyph>
<glyph name="OE" format="2">
  <advance width="1844"/>
  <unicode hex="0152"/>
  <anchor x="991" y="1460" name="U"/>
  <outline>
    <component base="E" xOffset="692"/>
    <contour>
      <point x="756" y="1258" type="curve"/>
      <point x="756" y="1446" type="line"/>
      <point x="716" y="1452"/>
      <point x="670" y="1458"/>
      <point x="635" y="1458" type="curve" smooth="yes"/>
      <point x="614" y="1458" type="line"/>
      <point x="614" y="1270" type="line"/>
      <point x="629" y="1270" type="line" smooth="yes"/>
      <point x="670" y="1270"/>
      <point x="717" y="1266"/>
    </contour>
    <contour>
      <point x="114" y="724" type="line"/>
      <point x="322" y="724" type="line"/>
      <point x="322" y="745" type="line" smooth="yes"/>
      <point x="322" y="1110"/>
      <point x="409" y="1270"/>
      <point x="602" y="1270" type="curve" smooth="yes"/>
      <point x="618" y="1270" type="line"/>
      <point x="618" y="1458" type="line"/>
      <point x="597" y="1458" type="line" smooth="yes"/>
      <point x="279" y="1458"/>
      <point x="114" y="1229"/>
      <point x="114" y="756" type="curve" smooth="yes"/>
    </contour>
    <contour>
      <point x="756" y="0" type="curve"/>
      <point x="756" y="188" type="line"/>
      <point x="717" y="180"/>
      <point x="680" y="176"/>
      <point x="629" y="176" type="curve" smooth="yes"/>
      <point x="614" y="176" type="line"/>
      <point x="614" y="-12" type="line"/>
      <point x="635" y="-12" type="line" smooth="yes"/>
      <point x="681" y="-12"/>
      <point x="716" y="-8"/>
    </contour>
    <contour>
      <point x="597" y="-12" type="curve" smooth="yes"/>
      <point x="618" y="-12" type="line"/>
      <point x="618" y="176" type="line"/>
      <point x="602" y="176" type="line" smooth="yes"/>
      <point x="409" y="176"/>
      <point x="322" y="347"/>
      <point x="322" y="712" type="curve" smooth="yes"/>
      <point x="322" y="734" type="line"/>
      <point x="114" y="734" type="line"/>
      <point x="114" y="702" type="line" smooth="yes"/>
      <point x="114" y="228"/>
      <point x="279" y="-12"/>
    </contour>
  </outline>
</glyph>
<glyph name="florin" format="2">
  <advance width="800"/>
  <unicode hex="0192"/>
  <outline>
    <component base="_latstemSW" xOffset="88"/>
    <component base="_latstemNW" xOffset="88"/>
    <component base="_latcrossbar" xOffset="48"/>
    <contour>
      <point x="0" y="-512" type="line"/>
      <point x="91" y="-512" type="line" smooth="yes"/>
      <point x="374" y="-512"/>
      <point x="478" y="-297"/>
      <point x="478" y="-42" type="curve" smooth="yes"/>
      <point x="478" y="90" type="line"/>
      <point x="270" y="90" type="line"/>
      <point x="270" y="-32" type="line" smooth="yes"/>
      <point x="270" y="-198"/>
      <point x="251" y="-324"/>
      <point x="70" y="-324" type="curve" smooth="yes"/>
      <point x="0" y="-324" type="line"/>
    </contour>
    <contour>
      <point x="270" y="973" type="line"/>
      <point x="478" y="973" type="line"/>
      <point x="478" y="1095" type="line" smooth="yes"/>
      <point x="478" y="1260"/>
      <point x="489" y="1386"/>
      <point x="650" y="1386" type="curve" smooth="yes"/>
      <point x="800" y="1386" type="line"/>
      <point x="800" y="1574" type="line"/>
      <point x="629" y="1574" type="line" smooth="yes"/>
      <point x="346" y="1574"/>
      <point x="270" y="1359"/>
      <point x="270" y="1105" type="curve" smooth="yes"/>
    </contour>
  </outline>
</glyph>
<glyph name="breve" format="2">
  <advance width="1020"/>
  <unicode hex="02D8"/>
  <outline>
    <contour>
      <point x="501" y="1190" type="curve" smooth="yes"/>
      <point x="519" y="1190" type="line" smooth="yes"/>
      <point x="732" y="1190"/>
      <point x="875" y="1338"/>
      <point x="875" y="1522" type="curve" smooth="yes"/>
      <point x="875" y="1544" type="line"/>
      <point x="714" y="1544" type="line"/>
      <point x="714" y="1532" type="line" smooth="yes"/>
      <point x="714" y="1427"/>
      <point x="630" y="1366"/>
      <point x="518" y="1366" type="curve" smooth="yes"/>
      <point x="501" y="1366" type="line" smooth="yes"/>
      <point x="390" y="1366"/>
      <point x="306" y="1427"/>
      <point x="306" y="1532" type="curve" smooth="yes"/>
      <point x="306" y="1544" type="line"/>
      <point x="145" y="1544" type="line"/>
      <point x="145" y="1522" type="line" smooth="yes"/>
      <point x="145" y="1338"/>
      <point x="288" y="1190"/>
    </contour>
  </outline>
</glyph>
<glyph name="ogonek" format="2">
  <advance width="1020"/>
  <unicode hex="02DB"/>
  <anchor x="510" y="-50" name="_L"/>
  <outline>
    <contour>
      <point x="579" y="-452" type="curve" smooth="yes"/>
      <point x="685" y="-452" type="line"/>
      <point x="685" y="-320" type="line"/>
      <point x="671" y="-320"/>
      <point x="659" y="-320"/>
      <point x="606" y="-320" type="curve" smooth="yes"/>
      <point x="542" y="-320"/>
      <point x="486" y="-292"/>
      <point x="486" y="-238" type="curve" smooth="yes"/>
      <point x="486" y="-172"/>
      <point x="505" y="-112"/>
      <point x="658" y="20" type="curve"/>
      <point x="488" y="20" type="line"/>
      <point x="342" y="-101"/>
      <point x="315" y="-180"/>
      <point x="315" y="-263" type="curve" smooth="yes"/>
      <point x="315" y="-367"/>
      <point x="390" y="-452"/>
    </contour>
  </outline>
</glyph>
<glyph name="hungarumlaut" format="2">
  <advance width="1020"/>
  <unicode hex="02DD"/>
  <outline>
    <contour>
      <point x="501" y="1169" type="line"/>
      <point x="702" y="1169" type="line"/>
      <point x="917" y="1562" type="line"/>
      <point x="716" y="1562" type="line"/>
    </contour>
    <contour>
      <point x="141" y="1169" type="line"/>
      <point x="342" y="1169" type="line"/>
      <point x="557" y="1562" type="line"/>
      <point x="356" y="1562" type="line"/>
    </contour>
  </outline>
</glyph>
<glyph name="gravecomb" format="2">
  <unicode hex="0300"/>
  <anchor x="-510" y="1100" name="_U"/>
  <outline>
    <contour>
      <point x="-574" y="1169" type="line"/>
      <point x="-341" y="1169" type="line"/>
      <point x="-686" y="1562" type="line"/>
      <point x="-919" y="1562" type="line"/>
    </contour>
  </outline>
</glyph>
<glyph name="acutecomb" format="2">
  <unicode hex="0301"/>
  <anchor x="-510" y="1100" name="_U"/>
  <outline>
    <contour>
      <point x="-683" y="1169" type="line"/>
      <point x="-450" y="1169" type="line"/>
      <point x="-105" y="1562" type="line"/>
      <point x="-338" y="1562" type="line"/>
    </contour>
  </outline>
</glyph>
<glyph name="circumflexcomb" format="2">
  <unicode hex="0302"/>
  <anchor x="-510" y="1100" name="_U"/>
  <outline>
    <contour>
      <point x="-869" y="1169" type="line"/>
      <point x="-646" y="1169" type="line"/>
      <point x="-510" y="1327" type="line"/>
      <point x="-374" y="1169" type="line"/>
      <point x="-151" y="1169" type="line"/>
      <point x="-510" y="1584" type="line"/>
    </contour>
  </outline>
</glyph>
<glyph name="tildecomb" format="2">
  <unicode hex="0303"/>
  <anchor x="-510" y="1100" name="_U"/>
  <outline>
    <contour>
      <point x="-895" y="1210" type="curve"/>
      <point x="-735" y="1210" type="line"/>
      <point x="-735" y="1218"/>
      <point x="-735" y="1253"/>
      <point x="-735" y="1260" type="curve" smooth="yes"/>
      <point x="-735" y="1335"/>
      <point x="-709" y="1374"/>
      <point x="-665" y="1374" type="curve" smooth="yes"/>
      <point x="-629" y="1374"/>
      <point x="-603" y="1352"/>
      <point x="-549" y="1295" type="curve" smooth="yes"/>
      <point x="-494" y="1237"/>
      <point x="-442" y="1200"/>
      <point x="-358" y="1200" type="curve" smooth="yes"/>
      <point x="-241" y="1200"/>
      <point x="-125" y="1286"/>
      <point x="-125" y="1480" type="curve" smooth="yes"/>
      <point x="-125" y="1493"/>
      <point x="-125" y="1527"/>
      <point x="-125" y="1540" type="curve"/>
      <point x="-285" y="1540" type="line"/>
      <point x="-285" y="1532"/>
      <point x="-285" y="1499"/>
      <point x="-285" y="1490" type="curve" smooth="yes"/>
      <point x="-285" y="1415"/>
      <point x="-311" y="1376"/>
      <point x="-355" y="1376" type="curve" smooth="yes"/>
      <point x="-391" y="1376"/>
      <point x="-422" y="1402"/>
      <point x="-475" y="1457" type="curve" smooth="yes"/>
      <point x="-530" y="1514"/>
      <point x="-579" y="1550"/>
      <point x="-662" y="1550" type="curve" smooth="yes"/>
      <point x="-779" y="1550"/>
      <point x="-895" y="1464"/>
      <point x="-895" y="1270" type="curve" smooth="yes"/>
      <point x="-895" y="1253"/>
      <point x="-895" y="1227"/>
    </contour>
  </outline>
</glyph>
<glyph name="cedillacomb" format="2">
  <unicode hex="0327"/>
  <anchor x="-510" y="-50" name="_L"/>
  <outline>
    <contour>
      <point x="-647" y="-452" type="line"/>
      <point x="-591" y="-452"/>
      <point x="-556" y="-451"/>
      <point x="-538" y="-451" type="curve" smooth="yes"/>
      <point x="-329" y="-451"/>
      <point x="-268" y="-324"/>
      <point x="-268" y="-246" type="curve" smooth="yes"/>
      <point x="-268" y="-168"/>
      <point x="-322" y="-98"/>
      <point x="-444" y="-78" type="curve"/>
      <point x="-444" y="20" type="line"/>
      <point x="-576" y="20" type="line"/>
      <point x="-576" y="-170" type="line"/>
      <point x="-487" y="-176"/>
      <point x="-440" y="-197"/>
      <point x="-440" y="-246" type="curve" smooth="yes"/>
      <point x="-440" y="-294"/>
      <point x="-481" y="-320"/>
      <point x="-564" y="-320" type="curve" smooth="yes"/>
      <point x="-583" y="-320"/>
      <point x="-628" y="-320"/>
      <point x="-647" y="-320" type="curve"/>
    </contour>
  </outline>
</glyph>
<glyph name="pi" format="2">
  <advance width="1180"/>
  <unicode hex="03C0"/>
  <outline>
    <component base="_latstemSW" xOffset="68"/>
    <component base="_latstemNW" xOffset="68"/>
    <component base="_latstemSE" xOffset="-52"/>
    <component base="_lathalfserifSE" xOffset="26"/>
    <component base="_latstemNE" xOffset="-52"/>
    <component base="_lathalfserifSE" xOffset="-834"/>
    <contour>
      <point x="38" y="850" type="line"/>
      <point x="1142" y="850" type="line"/>
      <point x="1142" y="1038" type="line"/>
      <point x="38" y="1038" type="line"/>
    </contour>
  </outline>
</glyph>
<glyph name="figuredash" format="2">
  <advance width="1160"/>
  <unicode hex="2012"/>
  <outline>
    <contour>
      <point x="128" y="631" type="line"/>
      <point x="978" y="631" type="line"/>
      <point x="978" y="799" type="line"/>
      <point x="128" y="799" type="line"/>
    </contour>
  </outline>
</glyph>
<glyph name="emdash" format="2">
  <advance width="1748"/>
  <unicode hex="2014"/>
  <outline>
    <contour>
      <point x="128" y="441" type="line"/>
      <point x="1620" y="441" type="line"/>
      <point x="1620" y="609" type="line"/>
      <point x="128" y="609" type="line"/>
    </contour>
  </outline>
</glyph>
<glyph name="horizontalbar" format="2">
  <advance width="1748"/>
  <unicode hex="2015"/>
  <outline>
    <contour>
      <point x="0" y="441" type="line"/>
      <point x="1748" y="441" type="line"/>
      <point x="1748" y="609" type="line"/>
      <point x="0" y="609" type="line"/>
    </contour>
  </outline>
</glyph>
<glyph name="dagger" format="2">
  <advance width="788"/>
  <unicode hex="2020"/>
  <outline>
    <component base="_klmidW" xOffset="172"/>
    <component base="_latstemNW" xOffset="108"/>
    <component base="_latcrossbar" xOffset="10"/>
    <contour>
      <point x="290" y="988" type="line"/>
      <point x="498" y="988" type="line"/>
      <point x="498" y="1316" type="line"/>
      <point x="290" y="1316" type="line"/>
    </contour>
  </outline>
</glyph>
<glyph name="bullet" format="2">
  <advance width="740"/>
  <unicode hex="2022"/>
  <outline>
    <contour>
      <point x="200" y="620" type="line"/>
      <point x="540" y="620" type="line"/>
      <point x="540" y="960" type="line"/>
      <point x="200" y="960" type="line"/>
    </contour>
  </outline>
</glyph>
<glyph name="guilsinglleft" format="2">
  <advance width="776"/>
  <unicode hex="2039"/>
  <outline>
    <contour>
      <point x="721" y="0" type="line"/>
      <point x="546" y="193"/>
      <point x="399" y="359"/>
      <point x="237" y="548" type="curve"/>
      <point x="237" y="502" type="line"/>
      <point x="399" y="691"/>
      <point x="547" y="857"/>
      <point x="722" y="1050" type="curve"/>
      <point x="493" y="1050" type="line"/>
      <point x="356" y="895"/>
      <point x="218" y="735"/>
      <point x="38" y="525" type="curve"/>
      <point x="218" y="315"/>
      <point x="356" y="155"/>
      <point x="493" y="0" type="curve"/>
    </contour>
  </outline>
</glyph>
<glyph name="fraction" format="2">
  <advance width="1152"/>
  <unicode hex="2044"/>
  <outline>
    <contour>
      <point x="4" y="0" type="line"/>
      <point x="200" y="0" type="line"/>
      <point x="1148" y="1446" type="line"/>
      <point x="952" y="1446" type="line"/>
    </contour>
  </outline>
</glyph>
<glyph name="foursuperior" format="2">
  <advance width="600"/>
  <unicode hex="2074"/>
  <outline>
    <contour>
      <point x="44" y="877" type="line"/>
      <point x="109" y="877" type="line"/>
      <point x="348" y="1253" type="line"/>
      <point x="477" y="1253" type="line"/>
      <point x="477" y="1458" type="line"/>
      <point x="341" y="1458" type="line"/>
      <point x="44" y="987" type="line"/>
    </contour>
    <contour>
      <point x="44" y="867" type="line"/>
      <point x="545" y="867" type="line"/>
      <point x="545" y="987" type="line"/>
      <point x="44" y="987" type="line"/>
    </contour>
    <contour>
      <point x="333" y="729" type="line"/>
      <point x="477" y="729" type="line"/>
      <point x="477" y="1412" type="line"/>
      <point x="333" y="1412" type="line"/>
    </contour>
  </outline>
</glyph>
<glyph name="euro" format="2">
  <advance width="1106"/>
  <unicode hex="20AC"/>
  <outline>
    <contour>
      <point x="627" y="-12" type="curve" smooth="yes"/>
      <point x="665" y="-12" type="line" smooth="yes"/>
      <point x="938" y="-12"/>
      <point x="1052" y="202"/>
      <point x="1052" y="376" type="curve" smooth="yes"/>
      <point x="1052" y="388" type="line"/>
      <point x="839" y="388" type="line"/>
      <point x="839" y="376" type="line" smooth="yes"/>
      <point x="839" y="281"/>
      <point x="797" y="176"/>
      <point x="659" y="176" type="curve" smooth="yes"/>
      <point x="632" y="176" type="line" smooth="yes"/>
      <point x="454" y="176"/>
      <point x="402" y="357"/>
      <point x="402" y="712" type="curve" smooth="yes"/>
      <point x="402" y="745" type="line" smooth="yes"/>
      <point x="402" y="1100"/>
      <point x="454" y="1270"/>
      <point x="632" y="1270" type="curve" smooth="yes"/>
      <point x="659" y="1270" type="line" smooth="yes"/>
      <point x="797" y="1270"/>
      <point x="839" y="1176"/>
      <point x="839" y="1081" type="curve" smooth="yes"/>
      <point x="839" y="1070" type="line"/>
      <point x="1052" y="1070" type="line"/>
      <point x="1052" y="1082" type="line" smooth="yes"/>
      <point x="1052" y="1265"/>
      <point x="938" y="1458"/>
      <point x="665" y="1458" type="curve" smooth="yes"/>
      <point x="627" y="1458" type="line" smooth="yes"/>
      <point x="324" y="1458"/>
      <point x="194" y="1229"/>
      <point x="194" y="756" type="curve" smooth="yes"/>
      <point x="194" y="702" type="line" smooth="yes"/>
      <point x="194" y="228"/>
      <point x="324" y="-12"/>
    </contour>
    <contour>
      <point x="110" y="764" type="line"/>
      <point x="770" y="764" type="line"/>
      <point x="770" y="952" type="line"/>
      <point x="110" y="952" type="line"/>
    </contour>
    <contour>
      <point x="54" y="492" type="line"/>
      <point x="714" y="492" type="line"/>
      <point x="714" y="679" type="line"/>
      <point x="54" y="680" type="line"/>
    </contour>
  </outline>
</glyph>
<glyph name="trademark" format="2">
  <advance width="1483"/>
  <unicode hex="2122"/>
  <outline>
    <contour>
      <point x="106" y="1328" type="line"/>
      <point x="586" y="1328" type="line"/>
      <point x="586" y="1452" type="line"/>
      <point x="106" y="1452" type="line"/>
    </contour>
    <contour>
      <point x="501" y="1284" type="line"/>
      <point x="628" y="1284" type="line"/>
      <point x="628" y="1452" type="line"/>
      <point x="501" y="1452" type="line"/>
    </contour>
    <contour>
      <point x="64" y="1284" type="line"/>
      <point x="191" y="1284" type="line"/>
      <point x="191" y="1452" type="line"/>
      <point x="64" y="1452" type="line"/>
    </contour>
    <contour>
      <point x="214" y="729" type="line"/>
      <point x="478" y="729" type="line"/>
      <point x="478" y="853" type="line"/>
      <point x="214" y="853" type="line"/>
    </contour>
    <contour>
      <point x="281" y="729" type="line"/>
      <point x="408" y="729" type="line"/>
      <point x="408" y="998" type="line"/>
      <point x="281" y="998" type="line"/>
    </contour>
    <contour>
      <point x="281" y="985" type="line"/>
      <point x="408" y="985" type="line"/>
      <point x="408" y="1248" type="line"/>
      <point x="281" y="1248" type="line"/>
    </contour>
    <contour>
      <point x="281" y="1158" type="line"/>
      <point x="408" y="1158" type="line"/>
      <point x="408" y="1452" type="line"/>
      <point x="281" y="1452" type="line"/>
    </contour>
    <contour>
      <point x="234" y="1328" type="line"/>
      <point x="458" y="1328" type="line"/>
      <point x="458" y="1452" type="line"/>
      <point x="234" y="1452" type="line"/>
    </contour>
    <contour>
      <point x="1000" y="869" type="line"/>
      <point x="1091" y="869" type="line"/>
      <point x="1299" y="1452" type="line"/>
      <point x="1184" y="1452" type="line"/>
      <point x="1013" y="937" type="line"/>
      <point x="1080" y="937" type="line"/>
      <point x="907" y="1452" type="line"/>
      <point x="792" y="1452" type="line"/>
    </contour>
    <contour>
      <point x="662" y="729" type="line"/>
      <point x="926" y="729" type="line"/>
      <point x="926" y="853" type="line"/>
      <point x="662" y="853" type="line"/>
    </contour>
    <contour>
      <point x="732" y="729" type="line"/>
      <point x="859" y="729" type="line"/>
      <point x="859" y="998" type="line"/>
      <point x="732" y="998" type="line"/>
    </contour>
    <contour>
      <point x="732" y="985" type="line"/>
      <point x="859" y="985" type="line"/>
      <point x="859" y="1248" type="line"/>
      <point x="732" y="1248" type="line"/>
    </contour>
    <contour>
      <point x="1165" y="729" type="line"/>
      <point x="1429" y="729" type="line"/>
      <point x="1429" y="853" type="line"/>
      <point x="1165" y="853" type="line"/>
    </contour>
    <contour>
      <point x="1232" y="729" type="line"/>
      <point x="1359" y="729" type="line"/>
      <point x="1359" y="998" type="line"/>
      <point x="1232" y="998" type="line"/>
    </contour>
    <contour>
      <point x="732" y="1158" type="line"/>
      <point x="859" y="1158" type="line"/>
      <point x="859" y="1452" type="line"/>
      <point x="732" y="1452" type="line"/>
    </contour>
    <contour>
      <point x="672" y="1328" type="line"/>
      <point x="794" y="1328" type="line"/>
      <point x="794" y="1452" type="line"/>
      <point x="672" y="1452" type="line"/>
    </contour>
    <contour>
      <point x="1232" y="985" type="line"/>
      <point x="1359" y="985" type="line"/>
      <point x="1359" y="1248" type="line"/>
      <point x="1232" y="1248" type="line"/>
    </contour>
    <contour>
      <point x="1232" y="1158" type="line"/>
      <point x="1359" y="1158" type="line"/>
      <point x="1359" y="1452" type="line"/>
      <point x="1232" y="1452" type="line"/>
    </contour>
    <contour>
      <point x="1289" y="1328" type="line"/>
      <point x="1421" y="1328" type="line"/>
      <point x="1421" y="1452" type="line"/>
      <point x="1289" y="1452" type="line"/>
    </contour>
  </outline>
</glyph>
<glyph name="Ohm" format="2">
  <advance width="1272"/>
  <unicode hex="2126"/>
  <outline>
    <contour>
      <point x="129" y="0" type="line"/>
      <point x="567" y="0" type="line"/>
      <point x="567" y="188" type="line"/>
      <point x="129" y="188" type="line"/>
    </contour>
    <contour>
      <point x="379" y="0" type="line"/>
      <point x="567" y="0" type="line"/>
      <point x="567" y="432" type="line"/>
      <point x="379" y="432" type="line"/>
    </contour>
    <contour>
      <point x="705" y="0" type="line"/>
      <point x="1143" y="0" type="line"/>
      <point x="1143" y="188" type="line"/>
      <point x="705" y="188" type="line"/>
    </contour>
    <contour>
      <point x="705" y="0" type="line"/>
      <point x="893" y="0" type="line"/>
      <point x="893" y="432" type="line"/>
      <point x="705" y="432" type="line"/>
    </contour>
    <contour>
      <point x="950" y="835" type="curve" smooth="yes"/>
      <point x="950" y="802" type="line" smooth="yes"/>
      <point x="950" y="557"/>
      <point x="852" y="432"/>
      <point x="739" y="432" type="curve" smooth="yes"/>
      <point x="724" y="432" type="line"/>
      <point x="724" y="244" type="line"/>
      <point x="745" y="244" type="line" smooth="yes"/>
      <point x="953" y="244"/>
      <point x="1158" y="448"/>
      <point x="1158" y="792" type="curve" smooth="yes"/>
      <point x="1158" y="846" type="line" smooth="yes"/>
      <point x="1158" y="1219"/>
      <point x="973" y="1458"/>
      <point x="655" y="1458" type="curve" smooth="yes"/>
      <point x="617" y="1458" type="line" smooth="yes"/>
      <point x="299" y="1458"/>
      <point x="114" y="1219"/>
      <point x="114" y="846" type="curve" smooth="yes"/>
      <point x="114" y="792" type="line" smooth="yes"/>
      <point x="114" y="448"/>
      <point x="319" y="244"/>
      <point x="527" y="244" type="curve" smooth="yes"/>
      <point x="548" y="244" type="line"/>
      <point x="548" y="432" type="line"/>
      <point x="532" y="432" type="line" smooth="yes"/>
      <point x="420" y="432"/>
      <point x="322" y="557"/>
      <point x="322" y="802" type="curve" smooth="yes"/>
      <point x="322" y="835" type="line" smooth="yes"/>
      <point x="322" y="1100"/>
      <point x="409" y="1270"/>
      <point x="622" y="1270" type="curve" smooth="yes"/>
      <point x="649" y="1270" type="line" smooth="yes"/>
      <point x="862" y="1270"/>
      <point x="950" y="1100"/>
    </contour>
  </outline>
</glyph>
<glyph name="Delta" format="2">
  <advance width="1239"/>
  <unicode hex="2206"/>
  <outline>
    <contour>
      <point x="86" y="0" type="line"/>
      <point x="261" y="0" type="line"/>
      <point x="665" y="1323" type="line"/>
      <point x="573" y="1323" type="line"/>
      <point x="978" y="0" type="line"/>
      <point x="1153" y="0" type="line"/>
      <point x="711" y="1446" type="line"/>
      <point x="527" y="1446" type="line"/>
    </contour>
    <contour>
      <point x="185" y="0" type="line"/>
      <point x="1051" y="0" type="line"/>
      <point x="1051" y="168" type="line"/>
      <point x="185" y="168" type="line"/>
    </contour>
  </outline>
</glyph>
<glyph name="product" format="2">
  <advance width="1192"/>
  <unicode hex="220F"/>
  <outline>
    <component base="_latserifSW" xOffset="16"/>
    <component base="_latstemSW" xOffset="16"/>
    <component base="_latstemNW" xOffset="16"/>
    <component base="_latserifSE" xOffset="146"/>
    <component base="_latstemSE" xOffset="146"/>
    <component base="_latstemascW" xOffset="16" yOffset="-128"/>
    <component base="_latserifNW" xOffset="16" yOffset="408"/>
    <component base="_latstemNE" xOffset="146"/>
    <component base="_latstemascW" xOffset="782" yOffset="-128"/>
    <component base="_latserifNE" xOffset="146" yOffset="408"/>
    <contour>
      <point x="288" y="1322" type="line"/>
      <point x="1054" y="1322" type="line"/>
      <point x="1054" y="1446" type="line"/>
      <point x="288" y="1446" type="line"/>
    </contour>
  </outline>
</glyph>
<glyph name="summation" format="2">
  <advance width="1152"/>
  <unicode hex="2211"/>
  <outline>
    <component base="_latserifSW" xOffset="16"/>
    <component base="_latserifNW" xOffset="16" yOffset="408"/>
    <contour>
      <point x="288" y="1258" type="line"/>
      <point x="934" y="1258" type="line"/>
      <point x="934" y="1446" type="line"/>
      <point x="288" y="1446" type="line"/>
    </contour>
    <contour>
      <point x="288" y="0" type="line"/>
      <point x="934" y="0" type="line"/>
      <point x="934" y="188" type="line"/>
      <point x="288" y="188" type="line"/>
    </contour>
    <contour>
      <point x="840" y="0" type="line"/>
      <point x="1028" y="0" type="line"/>
      <point x="1028" y="368" type="line"/>
      <point x="840" y="368" type="line"/>
    </contour>
    <contour>
      <point x="666" y="743" type="line"/>
      <point x="266" y="1258" type="line"/>
      <point x="64" y="1258" type="line"/>
      <point x="464" y="743" type="line"/>
      <point x="64" y="188" type="line"/>
      <point x="266" y="188" type="line"/>
    </contour>
    <contour>
      <point x="840" y="1094" type="line"/>
      <point x="1028" y="1094" type="line"/>
      <point x="1028" y="1446" type="line"/>
      <point x="840" y="1446" type="line"/>
    </contour>
  </outline>
</glyph>
<glyph name="minus" format="2">
  <advance width="1180"/>
  <unicode hex="2212"/>
  <outline>
    <contour>
      <point x="150" y="628" type="line"/>
      <point x="1030" y="628" type="line"/>
      <point x="1030" y="816" type="line"/>
      <point x="150" y="816" type="line"/>
    </contour>
  </outline>
</glyph>
<glyph name="radical" format="2">
  <advance width="1320"/>
  <unicode hex="221A"/>
  <outline>
    <contour>
      <point x="811" y="0" type="line"/>
      <point x="1170" y="1698" type="line"/>
      <point x="970" y="1698" type="line"/>
      <point x="650" y="107" type="line"/>
      <point x="776" y="107" type="line"/>
      <point x="480" y="1038" type="line"/>
      <point x="274" y="1038" type="line"/>
      <point x="623" y="0" type="line"/>
    </contour>
    <contour>
      <point x="150" y="850" type="line"/>
      <point x="384" y="850" type="line"/>
      <point x="384" y="1038" type="line"/>
      <point x="150" y="1038" type="line"/>
    </contour>
    <contour>
      <point x="1076" y="1510" type="line"/>
      <point x="1330" y="1510" type="line"/>
      <point x="1330" y="1698" type="line"/>
      <point x="1076" y="1698" type="line"/>
    </contour>
  </outline>
</glyph>
<glyph name="infinity" format="2">
  <advance width="1695"/>
  <unicode hex="221E"/>
  <outline>
    <contour>
      <point x="409" y="344" type="curve" smooth="yes"/>
      <point x="576" y="344"/>
      <point x="694" y="420"/>
      <point x="848" y="607" type="curve"/>
      <point x="1003" y="420"/>
      <point x="1118" y="344"/>
      <point x="1286" y="344" type="curve" smooth="yes"/>
      <point x="1463" y="344"/>
      <point x="1597" y="519"/>
      <point x="1597" y="727" type="curve" smooth="yes"/>
      <point x="1597" y="945"/>
      <point x="1448" y="1105"/>
      <point x="1271" y="1105" type="curve" smooth="yes"/>
      <point x="1113" y="1105"/>
      <point x="960" y="979"/>
      <point x="848" y="838" type="curve"/>
      <point x="723" y="989"/>
      <point x="580" y="1105"/>
      <point x="424" y="1105" type="curve" smooth="yes"/>
      <point x="247" y="1105"/>
      <point x="98" y="945"/>
      <point x="98" y="727" type="curve" smooth="yes"/>
      <point x="98" y="519"/>
      <point x="232" y="344"/>
    </contour>
    <contour>
      <point x="442" y="525" type="curve" smooth="yes"/>
      <point x="347" y="525"/>
      <point x="262" y="581"/>
      <point x="262" y="710" type="curve" smooth="yes"/>
      <point x="262" y="838"/>
      <point x="328" y="912"/>
      <point x="432" y="912" type="curve" smooth="yes"/>
      <point x="532" y="912"/>
      <point x="630" y="864"/>
      <point x="751" y="723" type="curve"/>
      <point x="633" y="564"/>
      <point x="557" y="525"/>
    </contour>
    <contour>
      <point x="1253" y="525" type="curve" smooth="yes"/>
      <point x="1137" y="525"/>
      <point x="1062" y="564"/>
      <point x="942" y="723" type="curve"/>
      <point x="1065" y="864"/>
      <point x="1161" y="912"/>
      <point x="1261" y="912" type="curve" smooth="yes"/>
      <point x="1365" y="912"/>
      <point x="1431" y="838"/>
      <point x="1431" y="710" type="curve" smooth="yes"/>
      <point x="1431" y="581"/>
      <point x="1348" y="525"/>
    </contour>
  </outline>
</glyph>
<glyph name="integral" format="2">
  <advance width="730"/>
  <unicode hex="222B"/>
  <outline>
    <contour>
      <point x="256" y="973" type="line"/>
      <point x="464" y="973" type="line"/>
      <point x="464" y="1095" type="line" smooth="yes"/>
      <point x="464" y="1290"/>
      <point x="469" y="1400"/>
      <point x="650" y="1400" type="curve" smooth="yes"/>
      <point x="730" y="1400" type="line"/>
      <point x="730" y="1574" type="line"/>
      <point x="629" y="1574" type="line" smooth="yes"/>
      <point x="306" y="1574"/>
      <point x="256" y="1359"/>
      <point x="256" y="1105" type="curve" smooth="yes"/>
    </contour>
    <contour>
      <point x="0" y="-512" type="line"/>
      <point x="91" y="-512" type="line" smooth="yes"/>
      <point x="414" y="-512"/>
      <point x="464" y="-297"/>
      <point x="464" y="-42" type="curve" smooth="yes"/>
      <point x="464" y="90" type="line"/>
      <point x="256" y="90" type="line"/>
      <point x="256" y="-32" type="line" smooth="yes"/>
      <point x="256" y="-228"/>
      <point x="251" y="-338"/>
      <point x="70" y="-338" type="curve" smooth="yes"/>
      <point x="0" y="-338" type="line"/>
    </contour>
    <contour>
      <point x="256" y="0" type="line"/>
      <point x="464" y="0" type="line"/>
      <point x="464" y="538" type="line"/>
      <point x="256" y="538" type="line"/>
    </contour>
    <contour>
      <point x="256" y="512" type="line"/>
      <point x="464" y="512" type="line"/>
      <point x="464" y="1038" type="line"/>
      <point x="256" y="1038" type="line"/>
    </contour>
  </outline>
</glyph>
<glyph name="approxequal" format="2">
  <advance width="1180"/>
  <unicode hex="2248"/>
  <outline>
    <contour>
      <point x="150" y="761" type="line"/>
      <point x="246" y="871"/>
      <point x="302" y="891"/>
      <point x="388" y="891" type="curve" smooth="yes"/>
      <point x="513" y="891"/>
      <point x="637" y="761"/>
      <point x="792" y="761" type="curve" smooth="yes"/>
      <point x="888" y="761"/>
      <point x="964" y="791"/>
      <point x="1030" y="861" type="curve"/>
      <point x="1030" y="1089" type="line"/>
      <point x="934" y="979"/>
      <point x="878" y="949"/>
      <point x="792" y="949" type="curve" smooth="yes"/>
      <point x="667" y="949"/>
      <point x="543" y="1079"/>
      <point x="388" y="1079" type="curve" smooth="yes"/>
      <point x="292" y="1079"/>
      <point x="216" y="1049"/>
      <point x="150" y="979" type="curve"/>
    </contour>
    <contour>
      <point x="150" y="363" type="line"/>
      <point x="246" y="473"/>
      <point x="302" y="493"/>
      <point x="388" y="493" type="curve" smooth="yes"/>
      <point x="513" y="493"/>
      <point x="637" y="363"/>
      <point x="792" y="363" type="curve" smooth="yes"/>
      <point x="888" y="363"/>
      <point x="964" y="393"/>
      <point x="1030" y="463" type="curve"/>
      <point x="1030" y="691" type="line"/>
      <point x="934" y="581"/>
      <point x="878" y="551"/>
      <point x="792" y="551" type="curve" smooth="yes"/>
      <point x="667" y="551"/>
      <point x="543" y="681"/>
      <point x="388" y="681" type="curve" smooth="yes"/>
      <point x="292" y="681"/>
      <point x="216" y="651"/>
      <point x="150" y="581" type="curve"/>
    </contour>
  </outline>
</glyph>
<glyph name="notequal" format="2">
  <advance width="1192"/>
  <unicode hex="2260"/>
  <outline>
    <component base="equal"/>
    <contour>
      <point x="304" y="199" type="line"/>
      <point x="932" y="1245" type="line"/>
      <point x="792" y="1245" type="line"/>
      <point x="164" y="199" type="line"/>
    </contour>
  </outline>
</glyph>
<glyph name="lessequal" format="2">
  <advance width="1180"/>
  <unicode hex="2264"/>
  <outline>
    <contour>
      <point x="1030" y="580" type="line"/>
      <point x="1030" y="747" type="line"/>
      <point x="235" y="958" type="line"/>
      <point x="235" y="876" type="line"/>
      <point x="1030" y="1087" type="line"/>
      <point x="1030" y="1254" type="line"/>
      <point x="150" y="1011" type="line"/>
      <point x="150" y="823" type="line"/>
    </contour>
    <contour>
      <point x="150" y="249" type="line"/>
      <point x="1030" y="249" type="line"/>
      <point x="1030" y="437" type="line"/>
      <point x="150" y="437" type="line"/>
    </contour>
  </outline>
</glyph>
<glyph name="greaterequal" format="2">
  <advance width="1180"/>
  <unicode hex="2265"/>
  <outline>
    <contour>
      <point x="150" y="580" type="line"/>
      <point x="1030" y="823" type="line"/>
      <point x="1030" y="1011" type="line"/>
      <point x="150" y="1254" type="line"/>
      <point x="150" y="1087" type="line"/>
      <point x="945" y="876" type="line"/>
      <point x="945" y="958" type="line"/>
      <point x="150" y="747" type="line"/>
    </contour>
    <contour>
      <point x="150" y="249" type="line"/>
      <point x="1030" y="249" type="line"/>
      <point x="1030" y="437" type="line"/>
      <point x="150" y="437" type="line"/>
    </contour>
  </outline>
</glyph>
<glyph name="openbox" format="2">
  <advance width="691"/>
  <unicode hex="2423"/>
  <outline>
    <contour>
      <point x="0" y="-286" type="line"/>
      <point x="691" y="-286" type="line"/>
      <point x="691" y="0" type="line"/>
      <point x="544" y="0" type="line"/>
      <point x="544" y="-139" type="line"/>
      <point x="147" y="-139" type="line"/>
      <point x="147" y="0" type="line"/>
      <point x="0" y="0" type="line"/>
    </contour>
  </outline>
</glyph>
<glyph name="lozenge" format="2">
  <advance width="951"/>
  <unicode hex="25CA"/>
  <outline>
    <contour>
      <point x="384" y="100" type="line"/>
      <point x="568" y="100" type="line"/>
      <point x="833" y="722" type="line"/>
      <point x="567" y="1346" type="line"/>
      <point x="383" y="1346" type="line"/>
      <point x="118" y="724" type="line"/>
    </contour>
    <contour>
      <point x="524" y="178" type="line"/>
      <point x="283" y="765" type="line"/>
      <point x="283" y="683" type="line"/>
      <point x="523" y="1268" type="line"/>
      <point x="427" y="1268" type="line"/>
      <point x="668" y="681" type="line"/>
      <point x="668" y="763" type="line"/>
      <point x="428" y="178" type="line"/>
    </contour>
  </outline>
</glyph>
<glyph name="uniA902" format="2">
  <advance width="1156"/>
  <unicode hex="A902"/>
  <outline>
    <contour>
      <point x="668" y="0" type="line"/>
      <point x="1048" y="1048" type="line"/>
      <point x="852" y="1048" type="line"/>
      <point x="578" y="275" type="line"/>
      <point x="304" y="1048" type="line"/>
      <point x="108" y="1048" type="line"/>
      <point x="488" y="0" type="line"/>
    </contour>
  </outline>
</glyph>
<glyph name="uniA904" format="2">
  <advance width="1156"/>
  <unicode hex="A904"/>
  <outline>
    <component base="_klmidW" yOffset="240"/>
    <component base="_klsqWN"/>
    <component base="_klcircleNE"/>
    <component base="_klmidE"/>
    <component base="_kldiagNW" xOffset="5"/>
    <component base="_klcircleSE"/>
    <component base="_klcircleSWshort" yOffset="264"/>
    <contour>
      <point x="465" y="846" type="line"/>
      <point x="745" y="846" type="line"/>
      <point x="745" y="1050" type="line"/>
      <point x="465" y="1050" type="line"/>
    </contour>
  </outline>
</glyph>
<glyph name="uniA906" format="2">
  <advance width="1156"/>
  <unicode hex="A906"/>
  <outline>
    <component base="_klsqWS"/>
    <component base="_klmidW"/>
    <component base="_klsqWN"/>
    <component base="_klcircleNE"/>
    <contour>
      <point x="261" y="156" type="line"/>
      <point x="666" y="847" type="line"/>
      <point x="666" y="1050" type="line"/>
      <point x="566" y="1050" type="line"/>
      <point x="261" y="526" type="line"/>
    </contour>
    <contour>
      <point x="796" y="167" type="curve" smooth="yes"/>
      <point x="768" y="167"/>
      <point x="745" y="190"/>
      <point x="745" y="218" type="curve" smooth="yes"/>
      <point x="745" y="247"/>
      <point x="768" y="270"/>
      <point x="796" y="270" type="curve" smooth="yes"/>
      <point x="824" y="270"/>
      <point x="847" y="247"/>
      <point x="847" y="218" type="curve" smooth="yes"/>
      <point x="847" y="190"/>
      <point x="824" y="167"/>
    </contour>
    <contour>
      <point x="796" y="-12" type="curve" smooth="yes"/>
      <point x="923" y="-12"/>
      <point x="1038" y="90"/>
      <point x="1038" y="272" type="curve" smooth="yes"/>
      <point x="1038" y="717" type="line"/>
      <point x="830" y="717" type="line"/>
      <point x="830" y="446" type="line"/>
      <point x="820" y="448"/>
      <point x="808" y="449"/>
      <point x="796" y="449" type="curve" smooth="yes"/>
      <point x="669" y="449"/>
      <point x="566" y="345"/>
      <point x="566" y="218" type="curve" smooth="yes"/>
      <point x="566" y="92"/>
      <point x="669" y="-12"/>
    </contour>
  </outline>
</glyph>
<glyph name="uniA907" format="2">
  <advance width="1156"/>
  <unicode hex="A907"/>
  <outline>
    <component base="_klhookascE" yOffset="-524"/>
    <component base="_klmidE"/>
    <component base="_klcircleSE"/>
    <component base="_klmidS"/>
    <component base="_klcircleSW"/>
    <component base="_klcircleNW" yOffset="-376"/>
    <component base="_klsqNEshort" yOffset="-376"/>
    <contour>
      <point x="118" y="333" type="line"/>
      <point x="326" y="333" type="line"/>
      <point x="326" y="349" type="line"/>
      <point x="118" y="349" type="line"/>
    </contour>
  </outline>
</glyph>
<glyph name="uniA908" format="2">
  <advance width="1156"/>
  <unicode hex="A908"/>
  <outline>
    <component base="_klmidS"/>
    <component base="_klcircleSW"/>
    <component base="_klmidW"/>
    <component base="_klsqWN"/>
    <contour>
      <point x="639" y="0" type="line"/>
      <point x="785" y="0" type="line" smooth="yes"/>
      <point x="939" y="0"/>
      <point x="1038" y="100"/>
      <point x="1038" y="284" type="curve" smooth="yes"/>
      <point x="1038" y="438" type="line"/>
      <point x="830" y="438" type="line"/>
      <point x="830" y="294" type="line" smooth="yes"/>
      <point x="830" y="225"/>
      <point x="805" y="188"/>
      <point x="754" y="188" type="curve" smooth="yes"/>
      <point x="639" y="188" type="line"/>
    </contour>
  </outline>
</glyph>
<glyph name="uniA909" format="2">
  <advance width="1156"/>
  <unicode hex="A909"/>
  <outline>
    <component base="_klcircleNE" yOffset="-376"/>
    <component base="_klcircleSE"/>
    <component base="_klmidS"/>
    <component base="_klcircleSW"/>
    <component base="_klmidW"/>
    <component base="_klhookascW" yOffset="-524"/>
    <component base="_klsqNWshort" yOffset="-376"/>
    <contour>
      <point x="830" y="333" type="line"/>
      <point x="1038" y="333" type="line"/>
      <point x="1038" y="349" type="line"/>
      <point x="830" y="349" type="line"/>
    </contour>
  </outline>
</glyph>
<glyph name="uniA90A" format="2">
  <advance width="1260"/>
  <unicode hex="A90A"/>
  <outline>
    <component base="_klsqSW"/>
    <component base="_klmidE" xOffset="104"/>
    <component base="_klsqES" xOffset="104"/>
    <component base="_klsqSEshort" xOffset="104"/>
    <component base="_klsqES" xOffset="-384"/>
    <component base="_klmidE" xOffset="-384"/>
    <contour>
      <point x="446" y="712" type="line"/>
      <point x="654" y="712" type="line"/>
      <point x="654" y="765" type="line" smooth="yes"/>
      <point x="654" y="957"/>
      <point x="559" y="1050"/>
      <point x="392" y="1050" type="curve" smooth="yes"/>
      <point x="384" y="1050" type="line"/>
      <point x="384" y="862" type="line"/>
      <point x="390" y="862" type="line" smooth="yes"/>
      <point x="428" y="862"/>
      <point x="446" y="845"/>
      <point x="446" y="755" type="curve" smooth="yes"/>
    </contour>
    <contour>
      <point x="118" y="712" type="line"/>
      <point x="326" y="712" type="line"/>
      <point x="326" y="755" type="line" smooth="yes"/>
      <point x="326" y="845"/>
      <point x="344" y="862"/>
      <point x="382" y="862" type="curve" smooth="yes"/>
      <point x="387" y="862" type="line"/>
      <point x="387" y="1050" type="line"/>
      <point x="379" y="1050" type="line" smooth="yes"/>
      <point x="213" y="1050"/>
      <point x="118" y="957"/>
      <point x="118" y="765" type="curve" smooth="yes"/>
    </contour>
    <contour>
      <point x="118" y="0" type="line"/>
      <point x="326" y="0" type="line"/>
      <point x="326" y="236" type="line"/>
      <point x="118" y="236" type="line"/>
    </contour>
    <contour>
      <point x="934" y="712" type="line"/>
      <point x="1142" y="712" type="line"/>
      <point x="1142" y="765" type="line" smooth="yes"/>
      <point x="1142" y="950"/>
      <point x="1042" y="1050"/>
      <point x="888" y="1050" type="curve" smooth="yes"/>
      <point x="794" y="1050" type="line"/>
      <point x="794" y="862" type="line"/>
      <point x="858" y="862" type="line" smooth="yes"/>
      <point x="909" y="862"/>
      <point x="934" y="824"/>
      <point x="934" y="755" type="curve" smooth="yes"/>
    </contour>
    <contour>
      <point x="779" y="1050" type="line"/>
      <point x="251" y="511" type="line" smooth="yes"/>
      <point x="153" y="410"/>
      <point x="118" y="375"/>
      <point x="118" y="266" type="curve" smooth="yes"/>
      <point x="118" y="212" type="line"/>
      <point x="326" y="212" type="line"/>
      <point x="326" y="256" type="line" smooth="yes"/>
      <point x="326" y="341"/>
      <point x="332" y="356"/>
      <point x="375" y="399" type="curve" smooth="yes"/>
      <point x="829" y="862" type="line"/>
      <point x="829" y="1050" type="line"/>
    </contour>
  </outline>
</glyph>
<glyph name="uniA90C" format="2">
  <advance width="1156"/>
  <unicode hex="A90C"/>
  <outline>
    <component base="_klsqSWshort"/>
    <component base="_klsqWS"/>
    <component base="_klmidW"/>
    <component base="_klsqWN"/>
    <component base="_klmidline" yOffset="-62"/>
    <component base="_klmidE"/>
    <component base="_klsqES"/>
    <component base="_klsqSEshort"/>
    <contour>
      <point x="830" y="712" type="line"/>
      <point x="1038" y="712" type="line"/>
      <point x="1038" y="765" type="line" smooth="yes"/>
      <point x="1038" y="950"/>
      <point x="939" y="1050"/>
      <point x="785" y="1050" type="curve" smooth="yes"/>
      <point x="690" y="1050" type="line"/>
      <point x="690" y="862" type="line"/>
      <point x="754" y="862" type="line" smooth="yes"/>
      <point x="805" y="862"/>
      <point x="830" y="825"/>
      <point x="830" y="755" type="curve" smooth="yes"/>
    </contour>
    <contour>
      <point x="718" y="1050" type="line"/>
      <point x="667" y="1050" type="line"/>
      <point x="223" y="586" type="line"/>
      <point x="223" y="344" type="line"/>
      <point x="718" y="862" type="line"/>
    </contour>
  </outline>
</glyph>
<glyph name="uniA90E" format="2">
  <advance width="1156"/>
  <unicode hex="A90E"/>
  <outline>
    <component base="_klsqSW"/>
    <component base="_klheadcir" xOffset="-246" yOffset="317"/>
    <component base="_klmidN"/>
    <component base="_klcircleNE"/>
    <component base="_klmidE"/>
    <component base="_klsqES"/>
    <component base="_klsqSE"/>
    <contour>
      <point x="118" y="188" type="line"/>
      <point x="118" y="0" type="line"/>
      <point x="214" y="0" type="line"/>
      <point x="445" y="368" type="line"/>
      <point x="445" y="702" type="line"/>
    </contour>
    <contour>
      <point x="316" y="727" type="curve" smooth="yes"/>
      <point x="316" y="745" type="line" smooth="yes"/>
      <point x="316" y="815"/>
      <point x="351" y="862"/>
      <point x="402" y="862" type="curve" smooth="yes"/>
      <point x="517" y="862" type="line"/>
      <point x="517" y="1050" type="line"/>
      <point x="371" y="1050" type="line" smooth="yes"/>
      <point x="218" y="1050"/>
      <point x="118" y="930"/>
      <point x="118" y="745" type="curve" smooth="yes"/>
      <point x="118" y="727" type="line" smooth="yes"/>
      <point x="118" y="542"/>
      <point x="218" y="433"/>
      <point x="371" y="433" type="curve" smooth="yes"/>
      <point x="429" y="433" type="line"/>
      <point x="429" y="611" type="line"/>
      <point x="402" y="611" type="line" smooth="yes"/>
      <point x="351" y="611"/>
      <point x="316" y="657"/>
    </contour>
  </outline>
</glyph>
<glyph name="uniA910" format="2">
  <advance width="1156"/>
  <unicode hex="A910"/>
  <outline>
    <component base="_klsqWN"/>
    <component base="_kldescSW"/>
    <component base="_klmidW"/>
    <component base="_klmidS"/>
    <component base="_klsqSE"/>
    <contour>
      <point x="1038" y="187" type="line"/>
      <point x="700" y="353" type="line"/>
      <point x="490" y="353" type="line"/>
      <point x="490" y="298" type="line"/>
      <point x="910" y="89" type="line"/>
      <point x="910" y="89"/>
      <point x="1038" y="89"/>
      <point x="1038" y="89" type="curve"/>
    </contour>
    <contour>
      <point x="490" y="298" type="curve"/>
      <point x="894" y="298"/>
      <point x="1070" y="468"/>
      <point x="1070" y="688" type="curve" smooth="yes"/>
      <point x="1070" y="902"/>
      <point x="919" y="1066"/>
      <point x="693" y="1066" type="curve" smooth="yes"/>
      <point x="467" y="1066"/>
      <point x="306" y="884"/>
      <point x="198" y="552" type="curve"/>
      <point x="323" y="483" type="line"/>
      <point x="443" y="816"/>
      <point x="585" y="870"/>
      <point x="689" y="870" type="curve" smooth="yes"/>
      <point x="801" y="870"/>
      <point x="866" y="799"/>
      <point x="866" y="678" type="curve" smooth="yes"/>
      <point x="866" y="591"/>
      <point x="813" y="435"/>
      <point x="490" y="435" type="curve"/>
      <point x="490" y="406"/>
      <point x="490" y="327"/>
    </contour>
  </outline>
</glyph>
<glyph name="uniA912" format="2">
  <advance width="1156"/>
  <unicode hex="A912"/>
  <outline>
    <component base="_klsqWS"/>
    <component base="_klmidW"/>
    <component base="_klheadcir" xOffset="16"/>
    <component base="_klsqWN"/>
    <contour>
      <point x="811" y="-12" type="curve"/>
      <point x="935" y="-12"/>
      <point x="1054" y="60"/>
      <point x="1054" y="300" type="curve" smooth="yes"/>
      <point x="1054" y="504"/>
      <point x="916" y="687"/>
      <point x="673" y="687" type="curve" smooth="yes"/>
      <point x="467" y="687"/>
      <point x="276" y="525"/>
      <point x="183" y="244" type="curve"/>
      <point x="312" y="145" type="line"/>
      <point x="397" y="427"/>
      <point x="559" y="503"/>
      <point x="673" y="503" type="curve" smooth="yes"/>
      <point x="825" y="503"/>
      <point x="902" y="391"/>
      <point x="902" y="300" type="curve" smooth="yes"/>
      <point x="902" y="203"/>
      <point x="884" y="74"/>
      <point x="811" y="74" type="curve"/>
      <point x="811" y="45"/>
      <point x="811" y="17"/>
    </contour>
    <contour>
      <point x="1038" y="713" type="line"/>
      <point x="1038" y="894" type="line"/>
      <point x="328" y="1050" type="line"/>
      <point x="118" y="1050" type="line"/>
      <point x="118" y="917" type="line"/>
    </contour>
  </outline>
</glyph>
<glyph name="uniA91A" format="2">
  <advance width="1156"/>
  <unicode hex="A91A"/>
  <outline>
    <component base="_klsqWS"/>
    <component base="_klmidW"/>
    <component base="_klsqWN"/>
    <component base="_klcircleNE"/>
    <component base="_klmidE"/>
    <component base="_kldescSE"/>
    <component base="_kldiagNW" xOffset="37"/>
    <component base="_klsqSW"/>
    <contour>
      <point x="502" y="862" type="line"/>
      <point x="745" y="862" type="line"/>
      <point x="745" y="1050" type="line"/>
      <point x="502" y="1050" type="line"/>
    </contour>
  </outline>
</glyph>
<glyph name="uniA91F" format="2">
  <advance width="1156"/>
  <unicode hex="A91F"/>
  <outline>
    <component base="_klsqNW"/>
    <component base="_klsqWN"/>
    <component base="_klmidW"/>
    <component base="_klcircleSW"/>
    <component base="_kldiagSE"/>
    <component base="_klsqEN"/>
    <component base="_klmidE"/>
    <component base="_kldescSE"/>
    <contour>
      <point x="614" y="1050" type="line"/>
      <point x="452" y="1050" type="line"/>
      <point x="452" y="1050"/>
      <point x="452" y="742"/>
      <point x="452" y="742" type="curve" smooth="yes"/>
      <point x="452" y="618"/>
      <point x="412" y="475"/>
      <point x="307" y="447" type="curve"/>
      <point x="307" y="293" type="line"/>
      <point x="524" y="359"/>
      <point x="614" y="528"/>
      <point x="614" y="768" type="curve" smooth="yes"/>
    </contour>
  </outline>
</glyph>
<glyph name="uniA920" format="2">
  <advance width="1156"/>
  <unicode hex="A920"/>
  <outline>
    <component base="_klsqEN"/>
    <component base="_klmidE"/>
    <component base="_klcircleSE"/>
    <component base="_klmidS"/>
    <component base="_klcircleSW"/>
    <component base="_klserifWSshort"/>
    <contour>
      <point x="328" y="1050" type="line"/>
      <point x="293" y="1050" type="line"/>
      <point x="293" y="861" type="line"/>
      <point x="579" y="620" type="line"/>
      <point x="579" y="837" type="line"/>
    </contour>
    <contour>
      <point x="864" y="1050" type="line"/>
      <point x="829" y="1050" type="line"/>
      <point x="579" y="837" type="line"/>
      <point x="579" y="620" type="line"/>
      <point x="864" y="861" type="line"/>
    </contour>
    <contour>
      <point x="118" y="625" type="line"/>
      <point x="326" y="625" type="line"/>
      <point x="326" y="1050" type="line"/>
      <point x="118" y="1050" type="line"/>
    </contour>
  </outline>
</glyph>
<glyph name="uniA921" format="2">
  <advance width="1156"/>
  <unicode hex="A921"/>
  <outline>
    <component base="_klsqSW"/>
    <component base="_klsqWS"/>
    <component base="_klmidW"/>
    <component base="_klsqWN"/>
    <component base="_klsqES"/>
    <component base="_klmidE"/>
    <component base="_klascNE"/>
    <contour>
      <point x="1038" y="57" type="line"/>
      <point x="328" y="1050" type="line"/>
      <point x="118" y="1050" type="line"/>
      <point x="118" y="1001" type="line"/>
      <point x="828" y="0" type="line"/>
      <point x="828" y="0"/>
      <point x="1038" y="0"/>
      <point x="1038" y="0" type="curve"/>
    </contour>
  </outline>
</glyph>
<glyph name="uniA923" format="2">
  <advance width="1156"/>
  <unicode hex="A923"/>
  <outline>
    <component base="_klsqNWshort"/>
    <component base="_klsqWN"/>
    <component base="_klmidW"/>
    <component base="_kldiagSE" xOffset="-100"/>
    <component base="_klsqNEshort"/>
    <component base="_klsqEN"/>
    <component base="_klmidE"/>
    <component base="_klcircleSEshort"/>
    <contour>
      <point x="371" y="0" type="curve" smooth="yes"/>
      <point x="417" y="0" type="line"/>
      <point x="417" y="188" type="line"/>
      <point x="402" y="188" type="line" smooth="yes"/>
      <point x="351" y="188"/>
      <point x="326" y="225"/>
      <point x="326" y="294" type="curve" smooth="yes"/>
      <point x="326" y="338" type="line"/>
      <point x="118" y="338" type="line"/>
      <point x="118" y="284" type="line" smooth="yes"/>
      <point x="118" y="100"/>
      <point x="218" y="0"/>
    </contour>
  </outline>
</glyph>
<glyph name="uniA925" format="2">
  <advance width="1156"/>
  <unicode hex="A925"/>
  <outline>
    <component base="_klcircleSW"/>
    <component base="_klmidS"/>
    <component base="_klmidW"/>
    <component base="_klcircleSE"/>
    <component base="_klcircleNW"/>
    <component base="_klmidE"/>
    <component base="_klmidN"/>
    <component base="_klcircleNE"/>
    <contour>
      <point x="578" y="540" type="curve" smooth="yes"/>
      <point x="748" y="540"/>
      <point x="908" y="620"/>
      <point x="988" y="740" type="curve"/>
      <point x="938" y="916" type="line"/>
      <point x="864" y="796"/>
      <point x="718" y="724"/>
      <point x="578" y="724" type="curve" smooth="yes"/>
      <point x="438" y="724"/>
      <point x="292" y="796"/>
      <point x="218" y="916" type="curve"/>
      <point x="168" y="740" type="line"/>
      <point x="248" y="620"/>
      <point x="408" y="540"/>
    </contour>
  </outline>
</glyph>
<glyph name="uniA926" format="2">
  <unicode hex="A926"/>
  <outline>
    <contour>
      <point x="-682" y="1274" type="line"/>
      <point x="-474" y="1274" type="line"/>
      <point x="-474" y="1462" type="line"/>
      <point x="-682" y="1462" type="line"/>
    </contour>
  </outline>
</glyph>
<glyph name="uniA927" format="2">
  <unicode hex="A927"/>
  <outline>
    <contour>
      <point x="-132" y="1128" type="line"/>
      <point x="-727" y="1562" type="line"/>
      <point x="-1014" y="1562" type="line"/>
      <point x="-419" y="1128" type="line"/>
    </contour>
  </outline>
</glyph>
<glyph name="uniA928" format="2">
  <unicode hex="A928"/>
  <outline>
    <contour>
      <point x="-132" y="1128" type="line"/>
      <point x="-578" y="1584" type="line"/>
      <point x="-1024" y="1128" type="line"/>
      <point x="-787" y="1128" type="line"/>
      <point x="-578" y="1342" type="line"/>
      <point x="-369" y="1128" type="line"/>
    </contour>
  </outline>
</glyph>
<glyph name="uniA929" format="2">
  <unicode hex="A929"/>
  <outline>
    <component base="_klcircleSW" xOffset="-1156" yOffset="1128"/>
    <component base="_klmidS" xOffset="-1156" yOffset="1128"/>
    <component base="_klcircleSE" xOffset="-1156" yOffset="1128"/>
    <contour>
      <point x="-1038" y="1436" type="line"/>
      <point x="-830" y="1436" type="line"/>
      <point x="-830" y="1562" type="line"/>
      <point x="-1038" y="1562" type="line"/>
    </contour>
    <contour>
      <point x="-326" y="1436" type="line"/>
      <point x="-118" y="1436" type="line"/>
      <point x="-118" y="1562" type="line"/>
      <point x="-326" y="1562" type="line"/>
    </contour>
  </outline>
</glyph>
<glyph name="uniA92D" format="2">
  <unicode hex="A92D"/>
  <outline>
    <component base="_klmidS" xOffset="-1156" yOffset="-525"/>
    <contour>
      <point x="-517" y="-525" type="line"/>
      <point x="-371" y="-525" type="line" smooth="yes"/>
      <point x="-217" y="-525"/>
      <point x="-118" y="-425"/>
      <point x="-118" y="-241" type="curve" smooth="yes"/>
      <point x="-118" y="-147" type="line"/>
      <point x="-326" y="-147" type="line"/>
      <point x="-326" y="-231" type="line" smooth="yes"/>
      <point x="-326" y="-300"/>
      <point x="-351" y="-337"/>
      <point x="-402" y="-337" type="curve" smooth="yes"/>
      <point x="-517" y="-337" type="line"/>
    </contour>
    <contour>
      <point x="-785" y="-525" type="curve" smooth="yes"/>
      <point x="-639" y="-525" type="line"/>
      <point x="-639" y="-337" type="line"/>
      <point x="-754" y="-337" type="line" smooth="yes"/>
      <point x="-805" y="-337"/>
      <point x="-830" y="-300"/>
      <point x="-830" y="-231" type="curve" smooth="yes"/>
      <point x="-830" y="-179" type="line"/>
      <point x="-1038" y="-179" type="line"/>
      <point x="-1038" y="-241" type="line" smooth="yes"/>
      <point x="-1038" y="-425"/>
      <point x="-938" y="-525"/>
    </contour>
    <contour>
      <point x="-1038" y="-216" type="line"/>
      <point x="-830" y="-216" type="line"/>
      <point x="-830" y="-173" type="line" smooth="yes"/>
      <point x="-830" y="-120"/>
      <point x="-818" y="-13"/>
      <point x="-766" y="25" type="curve"/>
      <point x="-838" y="131" type="line"/>
      <point x="-948" y="70"/>
      <point x="-1038" y="-34"/>
      <point x="-1038" y="-163" type="curve" smooth="yes"/>
    </contour>
    <contour>
      <point x="-682" y="-247" type="line"/>
      <point x="-474" y="-247" type="line"/>
      <point x="-474" y="-75" type="line"/>
      <point x="-682" y="-75" type="line"/>
    </contour>
  </outline>
</glyph>
<glyph name="uniA92E" format="2">
  <advance width="1368"/>
  <unicode hex="A92E"/>
  <outline>
    <contour>
      <point x="84" y="0" type="curve"/>
      <point x="299" y="0" type="line"/>
      <point x="340" y="70"/>
      <point x="479" y="160"/>
      <point x="664" y="160" type="curve" smooth="yes"/>
      <point x="849" y="160"/>
      <point x="988" y="70"/>
      <point x="1029" y="0" type="curve"/>
      <point x="1244" y="0" type="line"/>
      <point x="1194" y="210"/>
      <point x="934" y="360"/>
      <point x="664" y="360" type="curve" smooth="yes"/>
      <point x="394" y="360"/>
      <point x="134" y="210"/>
    </contour>
  </outline>
</glyph>
<glyph name="uniA92F" format="2">
  <advance width="444"/>
  <unicode hex="A92F"/>
  <outline>
    <contour>
      <point x="326" y="0" type="line"/>
      <point x="326" y="1050" type="line"/>
      <point x="118" y="1050" type="line"/>
      <point x="118" y="0" type="line"/>
    </contour>
  </outline>
</glyph>
<glyph name="_klascNW" format="2">
  <advance width="1156"/>
  <outline>
    <contour>
      <point x="830" y="1203" type="line"/>
      <point x="1038" y="1203" type="line"/>
      <point x="1038" y="1277" type="line" smooth="yes"/>
      <point x="1038" y="1462"/>
      <point x="939" y="1562"/>
      <point x="785" y="1562" type="curve" smooth="yes"/>
      <point x="639" y="1562" type="line"/>
      <point x="639" y="1374" type="line"/>
      <point x="754" y="1374" type="line" smooth="yes"/>
      <point x="805" y="1374"/>
      <point x="830" y="1329"/>
      <point x="830" y="1267" type="curve" smooth="yes"/>
    </contour>
    <contour>
      <point x="118" y="691" type="line"/>
      <point x="326" y="691" type="line"/>
      <point x="326" y="1229" type="line"/>
      <point x="118" y="1229" type="line"/>
    </contour>
    <contour>
      <point x="118" y="1203" type="line"/>
      <point x="326" y="1203" type="line"/>
      <point x="326" y="1267" type="line" smooth="yes"/>
      <point x="326" y="1329"/>
      <point x="351" y="1374"/>
      <point x="402" y="1374" type="curve" smooth="yes"/>
      <point x="517" y="1374" type="line"/>
      <point x="517" y="1562" type="line"/>
      <point x="371" y="1562" type="line" smooth="yes"/>
      <point x="218" y="1562"/>
      <point x="118" y="1462"/>
      <point x="118" y="1277" type="curve" smooth="yes"/>
    </contour>
    <contour>
      <point x="639" y="1127" type="line"/>
      <point x="1038" y="1127" type="line"/>
      <point x="1038" y="1265" type="line"/>
      <point x="934" y="1279" type="line"/>
      <point x="639" y="1279" type="line"/>
    </contour>
    <contour>
      <point x="425" y="1374" type="line"/>
      <point x="731" y="1374" type="line"/>
      <point x="731" y="1562" type="line"/>
      <point x="425" y="1562" type="line"/>
    </contour>
  </outline>
</glyph>
<glyph name="_klcircleNE" format="2">
  <advance width="1156"/>
  <outline>
    <contour>
      <point x="830" y="712" type="line"/>
      <point x="1038" y="712" type="line"/>
      <point x="1038" y="765" type="line" smooth="yes"/>
      <point x="1038" y="950"/>
      <point x="939" y="1050"/>
      <point x="785" y="1050" type="curve" smooth="yes"/>
      <point x="639" y="1050" type="line"/>
      <point x="639" y="862" type="line"/>
      <point x="754" y="862" type="line" smooth="yes"/>
      <point x="805" y="862"/>
      <point x="830" y="825"/>
      <point x="830" y="755" type="curve" smooth="yes"/>
    </contour>
  </outline>
</glyph>
<glyph name="_klcircleSE" format="2">
  <advance width="1156"/>
  <outline>
    <contour>
      <point x="639" y="0" type="line"/>
      <point x="785" y="0" type="line" smooth="yes"/>
      <point x="939" y="0"/>
      <point x="1038" y="100"/>
      <point x="1038" y="284" type="curve" smooth="yes"/>
      <point x="1038" y="338" type="line"/>
      <point x="830" y="338" type="line"/>
      <point x="830" y="294" type="line" smooth="yes"/>
      <point x="830" y="225"/>
      <point x="805" y="188"/>
      <point x="754" y="188" type="curve" smooth="yes"/>
      <point x="639" y="188" type="line"/>
    </contour>
  </outline>
</glyph>
<glyph name="_klcircleSWshort" format="2">
  <advance width="1156"/>
  <outline>
    <contour>
      <point x="371" y="0" type="curve" smooth="yes"/>
      <point x="457" y="0" type="line"/>
      <point x="457" y="188" type="line"/>
      <point x="402" y="188" type="line" smooth="yes"/>
      <point x="351" y="188"/>
      <point x="326" y="225"/>
      <point x="326" y="294" type="curve" smooth="yes"/>
      <point x="326" y="338" type="line"/>
      <point x="118" y="338" type="line"/>
      <point x="118" y="284" type="line" smooth="yes"/>
      <point x="118" y="100"/>
      <point x="218" y="0"/>
    </contour>
  </outline>
</glyph>
<glyph name="_klcirclecomp" format="2">
  <advance width="1156"/>
  <outline>
    <contour>
      <point x="830" y="712" type="line"/>
      <point x="1038" y="712" type="line"/>
      <point x="1038" y="765" type="line" smooth="yes"/>
      <point x="1038" y="950"/>
      <point x="939" y="1050"/>
      <point x="785" y="1050" type="curve" smooth="yes"/>
      <point x="639" y="1050" type="line"/>
      <point x="639" y="846" type="line"/>
      <point x="754" y="846" type="line" smooth="yes"/>
      <point x="805" y="846"/>
      <point x="830" y="817"/>
      <point x="830" y="755" type="curve" smooth="yes"/>
    </contour>
    <contour>
      <point x="371" y="0" type="curve" smooth="yes"/>
      <point x="517" y="0" type="line"/>
      <point x="517" y="204" type="line"/>
      <point x="402" y="204" type="line" smooth="yes"/>
      <point x="351" y="204"/>
      <point x="326" y="233"/>
      <point x="326" y="294" type="curve" smooth="yes"/>
      <point x="326" y="338" type="line"/>
      <point x="118" y="338" type="line"/>
      <point x="118" y="284" type="line" smooth="yes"/>
      <point x="118" y="100"/>
      <point x="218" y="0"/>
    </contour>
    <contour>
      <point x="425" y="0" type="line"/>
      <point x="731" y="0" type="line"/>
      <point x="731" y="204" type="line"/>
      <point x="425" y="204" type="line"/>
    </contour>
    <contour>
      <point x="118" y="308" type="line"/>
      <point x="517" y="308" type="line"/>
      <point x="517" y="492" type="line"/>
      <point x="118" y="492" type="line"/>
    </contour>
    <contour>
      <point x="118" y="333" type="line"/>
      <point x="326" y="333" type="line"/>
      <point x="326" y="717" type="line"/>
      <point x="118" y="717" type="line"/>
    </contour>
    <contour>
      <point x="118" y="558" type="line"/>
      <point x="517" y="558" type="line"/>
      <point x="517" y="742" type="line"/>
      <point x="118" y="742" type="line"/>
    </contour>
    <contour>
      <point x="639" y="0" type="line"/>
      <point x="785" y="0" type="line" smooth="yes"/>
      <point x="939" y="0"/>
      <point x="1038" y="100"/>
      <point x="1038" y="284" type="curve" smooth="yes"/>
      <point x="1038" y="338" type="line"/>
      <point x="830" y="338" type="line"/>
      <point x="830" y="294" type="line" smooth="yes"/>
      <point x="830" y="233"/>
      <point x="805" y="204"/>
      <point x="754" y="204" type="curve" smooth="yes"/>
      <point x="639" y="204" type="line"/>
    </contour>
    <contour>
      <point x="118" y="712" type="line"/>
      <point x="326" y="712" type="line"/>
      <point x="326" y="755" type="line" smooth="yes"/>
      <point x="326" y="817"/>
      <point x="351" y="846"/>
      <point x="402" y="846" type="curve" smooth="yes"/>
      <point x="517" y="846" type="line"/>
      <point x="517" y="1050" type="line"/>
      <point x="371" y="1050" type="line" smooth="yes"/>
      <point x="218" y="1050"/>
      <point x="118" y="950"/>
      <point x="118" y="765" type="curve" smooth="yes"/>
    </contour>
    <contour>
      <point x="639" y="308" type="line"/>
      <point x="1038" y="308" type="line"/>
      <point x="1038" y="492" type="line"/>
      <point x="639" y="492" type="line"/>
    </contour>
    <contour>
      <point x="830" y="333" type="line"/>
      <point x="1038" y="333" type="line"/>
      <point x="1038" y="717" type="line"/>
      <point x="830" y="717" type="line"/>
    </contour>
    <contour>
      <point x="639" y="558" type="line"/>
      <point x="1038" y="558" type="line"/>
      <point x="1038" y="742" type="line"/>
      <point x="639" y="742" type="line"/>
    </contour>
    <contour>
      <point x="425" y="846" type="line"/>
      <point x="731" y="846" type="line"/>
      <point x="731" y="1050" type="line"/>
      <point x="425" y="1050" type="line"/>
    </contour>
  </outline>
</glyph>
<glyph name="_klcirclemidW" format="2">
  <advance width="1156"/>
  <outline>
    <contour>
      <point x="326" y="717" type="curve" smooth="yes"/>
      <point x="326" y="755" type="line" smooth="yes"/>
      <point x="326" y="825"/>
      <point x="351" y="862"/>
      <point x="402" y="862" type="curve" smooth="yes"/>
      <point x="517" y="862" type="line"/>
      <point x="517" y="1050" type="line"/>
      <point x="371" y="1050" type="line" smooth="yes"/>
      <point x="218" y="1050"/>
      <point x="118" y="950"/>
      <point x="118" y="765" type="curve" smooth="yes"/>
      <point x="118" y="717" type="line" smooth="yes"/>
      <point x="118" y="532"/>
      <point x="218" y="441"/>
      <point x="371" y="441" type="curve" smooth="yes"/>
      <point x="547" y="441" type="line"/>
      <point x="547" y="609" type="line"/>
      <point x="402" y="609" type="line" smooth="yes"/>
      <point x="351" y="609"/>
      <point x="326" y="647"/>
    </contour>
    <contour>
      <point x="326" y="294" type="curve" smooth="yes"/>
      <point x="326" y="333" type="line" smooth="yes"/>
      <point x="326" y="402"/>
      <point x="351" y="441"/>
      <point x="402" y="441" type="curve" smooth="yes"/>
      <point x="547" y="441" type="line"/>
      <point x="547" y="609" type="line"/>
      <point x="371" y="609" type="line" smooth="yes"/>
      <point x="218" y="609"/>
      <point x="118" y="517"/>
      <point x="118" y="333" type="curve" smooth="yes"/>
      <point x="118" y="284" type="line" smooth="yes"/>
      <point x="118" y="100"/>
      <point x="218" y="0"/>
      <point x="371" y="0" type="curve" smooth="yes"/>
      <point x="517" y="0" type="line"/>
      <point x="517" y="188" type="line"/>
      <point x="402" y="188" type="line" smooth="yes"/>
      <point x="351" y="188"/>
      <point x="326" y="225"/>
    </contour>
  </outline>
</glyph>
<glyph name="_kldescSE" format="2">
  <advance width="1156"/>
  <outline>
    <contour>
      <point x="640" y="-525" type="line"/>
      <point x="786" y="-525" type="line" smooth="yes"/>
      <point x="940" y="-525"/>
      <point x="1039" y="-425"/>
      <point x="1039" y="-241" type="curve" smooth="yes"/>
      <point x="1039" y="-166" type="line"/>
      <point x="831" y="-166" type="line"/>
      <point x="831" y="-230" type="line" smooth="yes"/>
      <point x="831" y="-300"/>
      <point x="806" y="-337"/>
      <point x="755" y="-337" type="curve" smooth="yes"/>
      <point x="640" y="-337" type="line"/>
    </contour>
    <contour>
      <point x="830" y="-219" type="line"/>
      <point x="1038" y="-219" type="line"/>
      <point x="1038" y="358" type="line"/>
      <point x="830" y="358" type="line"/>
    </contour>
  </outline>
</glyph>
<glyph name="_kldescSW" format="2">
  <advance width="1156"/>
  <outline>
    <contour>
      <point x="371" y="-525" type="curve" smooth="yes"/>
      <point x="517" y="-525" type="line"/>
      <point x="517" y="-337" type="line"/>
      <point x="402" y="-337" type="line" smooth="yes"/>
      <point x="351" y="-337"/>
      <point x="326" y="-300"/>
      <point x="326" y="-230" type="curve" smooth="yes"/>
      <point x="326" y="-166" type="line"/>
      <point x="118" y="-166" type="line"/>
      <point x="118" y="-241" type="line" smooth="yes"/>
      <point x="118" y="-425"/>
      <point x="218" y="-525"/>
    </contour>
    <contour>
      <point x="118" y="-219" type="line"/>
      <point x="326" y="-219" type="line"/>
      <point x="326" y="358" type="line"/>
      <point x="118" y="358" type="line"/>
    </contour>
  </outline>
</glyph>
